font.ufo
<glyph name="ampersand" format="2">
	<unicode hex="0026"/>
	<advance width="665"/>
	<outline>
		<contour>
			<point x="295" y="-16" type="curve" smooth="yes"/>
			<point x="456" y="-16"/>
			<point x="537" y="69"/>
			<point x="537" y="175" type="curve" smooth="yes"/>
			<point x="537" y="237"/>
			<point x="487" y="287"/>
			<point x="425" y="298" type="curve"/>
			<point x="424" y="290" type="line"/>
			<point x="551" y="306"/>
			<point x="651" y="360"/>
			<point x="701" y="476" type="curve"/>
			<point x="609" y="520" type="line"/>
			<point x="573" y="408"/>
			<point x="507" y="331"/>
			<point x="401" y="315" type="curve"/>
			<point x="397" y="291" type="line"/>
			<point x="456" y="283"/>
			<point x="480" y="238"/>
			<point x="480" y="199" type="curve" smooth="yes"/>
			<point x="480" y="137"/>
			<point x="429" y="80"/>
			<point x="324" y="80" type="curve" smooth="yes"/>
			<point x="223" y="80"/>
			<point x="153" y="132"/>
			<point x="153" y="235" type="curve" smooth="yes"/>
			<point x="153" y="287"/>
			<point x="174" y="341"/>
			<point x="230" y="381" type="curve"/>
			<point x="214" y="388" type="line"/>
			<point x="248" y="357"/>
			<point x="287" y="339"/>
			<point x="334" y="339" type="curve" smooth="yes"/>
			<point x="372" y="339"/>
			<point x="392" y="359"/>
			<point x="392" y="385" type="curve" smooth="yes"/>
			<point x="392" y="414"/>
			<point x="363" y="437"/>
			<point x="295" y="437" type="curve" smooth="yes"/>
			<point x="274" y="437"/>
			<point x="254" y="438"/>
			<point x="231" y="435" type="curve"/>
			<point x="280" y="426" type="line"/>
			<point x="259" y="460"/>
			<point x="254" y="486"/>
			<point x="254" y="519" type="curve" smooth="yes"/>
			<point x="254" y="590"/>
			<point x="300" y="650"/>
			<point x="385" y="650" type="curve" smooth="yes"/>
			<point x="403" y="650"/>
			<point x="417" y="645"/>
			<point x="437" y="641" type="curve"/>
			<point x="378" y="661" type="line"/>
			<point x="412" y="589" type="line" smooth="yes"/>
			<point x="432" y="546"/>
			<point x="453" y="531"/>
			<point x="479" y="531" type="curve" smooth="yes"/>
			<point x="507" y="531"/>
			<point x="525" y="549"/>
			<point x="527" y="577" type="curve"/>
			<point x="515" y="630"/>
			<point x="463" y="673"/>
			<point x="372" y="673" type="curve" smooth="yes"/>
			<point x="239" y="673"/>
			<point x="163" y="588"/>
			<point x="163" y="500" type="curve" smooth="yes"/>
			<point x="163" y="466"/>
			<point x="172" y="439"/>
			<point x="195" y="408" type="curve"/>
			<point x="194" y="419" type="line"/>
			<point x="86" y="379"/>
			<point x="35" y="289"/>
			<point x="35" y="200" type="curve" smooth="yes"/>
			<point x="35" y="83"/>
			<point x="118" y="-16"/>
		</contour>
	</outline>
</glyph>
<glyph name="quotesingle" format="2">
	<unicode hex="0027"/>
	<advance width="212"/>
	<outline>
		<contour>
			<point x="200" y="727" type="curve" smooth="yes"/>
			<point x="160" y="727"/>
			<point x="136" y="707"/>
			<point x="128" y="661" type="curve" smooth="yes"/>
			<point x="120" y="621"/>
			<point x="124" y="528"/>
			<point x="124" y="500" type="curve" smooth="yes"/>
			<point x="128" y="394" type="line"/>
			<point x="153" y="394" type="line"/>
			<point x="218" y="555"/>
			<point x="254" y="635"/>
			<point x="254" y="679" type="curve" smooth="yes"/>
			<point x="254" y="710"/>
			<point x="233" y="727"/>
		</contour>
	</outline>
</glyph>
<glyph name="plus" format="2">
	<unicode hex="002B"/>
	<advance width="509"/>
	<outline>
		<contour>
			<point x="250" y="79" type="line"/>
			<point x="296" y="79" type="line"/>
			<point x="296" y="559" type="line"/>
			<point x="250" y="559" type="line"/>
		</contour>
		<contour>
			<point x="493" y="301" type="line"/>
			<point x="493" y="345" type="line"/>
			<point x="53" y="345" type="line"/>
			<point x="53" y="301" type="line"/>
		</contour>
	</outline>
</glyph>
<glyph name="comma" format="2">
	<unicode hex="002C"/>
	<advance width="259"/>
	<outline>
		<contour>
			<point x="18" y="-138" type="line"/>
			<point x="117" y="-94"/>
			<point x="171" y="-27"/>
			<point x="171" y="70" type="curve" smooth="yes"/>
			<point x="171" y="86"/>
			<point x="168" y="96"/>
			<point x="163" y="108" type="curve"/>
			<point x="146" y="123"/>
			<point x="129" y="132"/>
			<point x="105" y="132" type="curve" smooth="yes"/>
			<point x="60" y="132"/>
			<point x="32" y="95"/>
			<point x="32" y="59" type="curve" smooth="yes"/>
			<point x="32" y="35"/>
			<point x="44" y="9"/>
			<point x="76" y="-7" type="curve" smooth="yes"/>
			<point x="112" y="-25" type="line"/>
			<point x="113" y="-7" type="line"/>
			<point x="90" y="-59"/>
			<point x="64" y="-83"/>
			<point x="7" y="-117" type="curve"/>
		</contour>
	</outline>
</glyph>
<glyph name="hyphen" format="2">
	<unicode hex="002D"/>
	<unicode hex="00AD"/>
	<unicode hex="2010"/>
	<advance width="311"/>
	<outline>
		<contour>
			<point x="42" y="232" type="line"/>
			<point x="282" y="232" type="line"/>
			<point x="282" y="278" type="line"/>
			<point x="42" y="278" type="line"/>
		</contour>
	</outline>
</glyph>
<glyph name="period" format="2">
	<unicode hex="002E"/>
	<advance width="255"/>
	<outline>
		<contour>
			<point x="82" y="-12" type="curve" smooth="yes"/>
			<point x="124" y="-12"/>
			<point x="162" y="22"/>
			<point x="162" y="66" type="curve" smooth="yes"/>
			<point x="162" y="101"/>
			<point x="137" y="132"/>
			<point x="98" y="132" type="curve" smooth="yes"/>
			<point x="56" y="132"/>
			<point x="17" y="97"/>
			<point x="17" y="53" type="curve" smooth="yes"/>
			<point x="17" y="19"/>
			<point x="43" y="-12"/>
		</contour>
	</outline>
</glyph>
<glyph name="one" format="2">
	<unicode hex="0031"/>
	<advance width="509"/>
	<outline>
		<contour>
			<point x="29" y="0" type="line"/>
			<point x="396" y="0" type="line"/>
			<point x="400" y="22" type="line"/>
			<point x="253" y="44" type="line"/>
			<point x="186" y="44" type="line"/>
			<point x="34" y="22" type="line"/>
		</contour>
		<contour>
			<point x="148" y="0" type="line"/>
			<point x="280" y="0" type="line"/>
			<point x="285" y="51"/>
			<point x="303" y="142"/>
			<point x="317" y="209" type="curve" smooth="yes"/>
			<point x="361" y="428" type="line"/>
			<point x="406" y="629" type="line"/>
			<point x="394" y="640" type="line"/>
			<point x="161" y="569" type="line"/>
			<point x="157" y="548" type="line"/>
			<point x="291" y="560" type="line"/>
			<point x="267" y="586" type="line"/>
		</contour>
	</outline>
</glyph>
<glyph name="less" format="2">
	<unicode hex="003C"/>
	<advance width="509"/>
	<outline>
		<contour>
			<point x="65" y="311" type="line"/>
			<point x="462" y="80" type="line"/>
			<point x="481" y="120" type="line"/>
			<point x="102" y="337" type="line"/>
			<point x="102" y="311" type="line"/>
			<point x="481" y="524" type="line"/>
			<point x="462" y="564" type="line"/>
			<point x="65" y="337" type="line"/>
		</contour>
	</outline>
</glyph>
<glyph name="at" format="2">
	<unicode hex="0040"/>
	<advance width="864"/>
	<outline>
		<contour>
			<point x="330" y="39" type="curve" smooth="yes"/>
			<point x="396" y="39"/>
			<point x="450" y="95"/>
			<point x="499" y="171" type="curve"/>
			<point x="505" y="171" type="line"/>
			<point x="494" y="191" type="line"/>
			<point x="445" y="129"/>
			<point x="414" y="111"/>
			<point x="388" y="111" type="curve" smooth="yes"/>
			<point x="358" y="111"/>
			<point x="346" y="136"/>
			<point x="346" y="181" type="curve" smooth="yes"/>
			<point x="346" y="287"/>
			<point x="407" y="430"/>
			<point x="478" y="430" type="curve" smooth="yes"/>
			<point x="511" y="430"/>
			<point x="529" y="413"/>
			<point x="543" y="388" type="curve"/>
			<point x="610" y="421" type="line"/>
			<point x="579" y="465"/>
			<point x="553" y="483"/>
			<point x="500" y="483" type="curve" smooth="yes"/>
			<point x="385" y="483"/>
			<point x="230" y="314"/>
			<point x="230" y="156" type="curve" smooth="yes"/>
			<point x="230" y="71"/>
			<point x="281" y="39"/>
		</contour>
		<contour>
			<point x="594" y="39" type="curve" smooth="yes"/>
			<point x="709" y="39"/>
			<point x="838" y="148"/>
			<point x="838" y="338" type="curve" smooth="yes"/>
			<point x="838" y="512"/>
			<point x="721" y="654"/>
			<point x="500" y="654" type="curve" smooth="yes"/>
			<point x="218" y="654"/>
			<point x="48" y="421"/>
			<point x="48" y="200" type="curve" smooth="yes"/>
			<point x="48" y="-15"/>
			<point x="175" y="-153"/>
			<point x="396" y="-153" type="curve" smooth="yes"/>
			<point x="463" y="-153"/>
			<point x="531" y="-137"/>
			<point x="589" y="-107" type="curve"/>
			<point x="582" y="-90" type="line"/>
			<point x="518" y="-116"/>
			<point x="464" y="-127"/>
			<point x="396" y="-127" type="curve" smooth="yes"/>
			<point x="226" y="-127"/>
			<point x="104" y="-14"/>
			<point x="104" y="200" type="curve" smooth="yes"/>
			<point x="104" y="415"/>
			<point x="240" y="628"/>
			<point x="494" y="628" type="curve" smooth="yes"/>
			<point x="678" y="628"/>
			<point x="782" y="517"/>
			<point x="782" y="338" type="curve" smooth="yes"/>
			<point x="782" y="169"/>
			<point x="689" y="78"/>
			<point x="633" y="78" type="curve" smooth="yes"/>
			<point x="593" y="78"/>
			<point x="570" y="103"/>
			<point x="589" y="195" type="curve" smooth="yes"/>
			<point x="648" y="475" type="line"/>
			<point x="638" y="486" type="line"/>
			<point x="527" y="425" type="line"/>
			<point x="474" y="173" type="line" smooth="yes"/>
			<point x="457" y="92"/>
			<point x="519" y="39"/>
		</contour>
	</outline>
</glyph>
<glyph name="A" format="2">
	<unicode hex="0041"/>
	<advance width="598"/>
	<outline>
		<contour>
			<point x="-27" y="0" type="line"/>
			<point x="141" y="0" type="line"/>
			<point x="145" y="22" type="line"/>
			<point x="66" y="32" type="line"/>
			<point x="48" y="32" type="line"/>
			<point x="-23" y="22" type="line"/>
		</contour>
		<contour>
			<point x="26" y="0" type="line"/>
			<point x="59" y="0" type="line"/>
			<point x="311" y="520" type="line"/>
			<point x="314" y="525" type="line"/>
			<point x="309" y="525" type="line"/>
			<point x="370" y="0" type="line"/>
			<point x="504" y="0" type="line"/>
			<point x="417" y="659" type="line"/>
			<point x="354" y="659" type="line"/>
		</contour>
		<contour>
			<point x="156" y="217" type="line"/>
			<point x="408" y="217" type="line"/>
			<point x="408" y="244" type="line"/>
			<point x="156" y="244" type="line"/>
		</contour>
		<contour>
			<point x="288" y="0" type="line"/>
			<point x="555" y="0" type="line"/>
			<point x="560" y="22" type="line"/>
			<point x="478" y="37" type="line"/>
			<point x="402" y="37" type="line"/>
			<point x="292" y="22" type="line"/>
		</contour>
	</outline>
	<anchor name="aboveUC" x="385" y="677"/>
	<anchor name="belowLC" x="228" y="-20"/>
	<anchor name="ogonek" x="453" y="0"/>
</glyph>
<glyph name="C" format="2">
	<unicode hex="0043"/>
	<advance width="558"/>
	<outline>
		<contour>
			<point x="306" y="-16" type="curve" smooth="yes"/>
			<point x="372" y="-16"/>
			<point x="421" y="-3"/>
			<point x="471" y="23" type="curve"/>
			<point x="498" y="194" type="line"/>
			<point x="476" y="194" type="line"/>
			<point x="380" y="9" type="line"/>
			<point x="418" y="37" type="line"/>
			<point x="380" y="15"/>
			<point x="346" y="10"/>
			<point x="306" y="10" type="curve" smooth="yes"/>
			<point x="230" y="10"/>
			<point x="179" y="68"/>
			<point x="179" y="197" type="curve" smooth="yes"/>
			<point x="179" y="397"/>
			<point x="275" y="647"/>
			<point x="424" y="647" type="curve" smooth="yes"/>
			<point x="452" y="647"/>
			<point x="481" y="642"/>
			<point x="508" y="627" type="curve"/>
			<point x="482" y="648" type="line"/>
			<point x="528" y="473" type="line"/>
			<point x="550" y="473" type="line"/>
			<point x="569" y="633" type="line"/>
			<point x="526" y="662"/>
			<point x="468" y="673"/>
			<point x="407" y="673" type="curve" smooth="yes"/>
			<point x="174" y="673"/>
			<point x="46" y="437"/>
			<point x="46" y="239" type="curve" smooth="yes"/>
			<point x="46" y="70"/>
			<point x="156" y="-16"/>
		</contour>
	</outline>
	<anchor name="aboveUC" x="397" y="677"/>
	<anchor name="baseLC" x="304" y="0"/>
	<anchor name="belowLC" x="298" y="-20"/>
</glyph>
<glyph name="E" format="2">
	<unicode hex="0045"/>
	<advance width="525"/>
	<outline>
		<contour>
			<point x="-7" y="0" type="line"/>
			<point x="161" y="0" type="line"/>
			<point x="163" y="37" type="line"/>
			<point x="101" y="37" type="line"/>
			<point x="-2" y="22" type="line"/>
		</contour>
		<contour>
			<point x="56" y="0" type="line"/>
			<point x="194" y="0" type="line"/>
			<point x="210" y="102"/>
			<point x="226" y="207"/>
			<point x="246" y="311" type="curve" smooth="yes"/>
			<point x="312" y="657" type="line"/>
			<point x="174" y="657" type="line"/>
			<point x="159" y="555"/>
			<point x="142" y="450"/>
			<point x="123" y="346" type="curve" smooth="yes"/>
		</contour>
		<contour>
			<point x="108" y="635" type="line"/>
			<point x="207" y="621" type="line"/>
			<point x="269" y="621" type="line"/>
			<point x="270" y="657" type="line"/>
			<point x="113" y="657" type="line"/>
		</contour>
		<contour>
			<point x="121" y="0" type="line"/>
			<point x="445" y="0" type="line"/>
			<point x="483" y="188" type="line"/>
			<point x="462" y="188" type="line"/>
			<point x="361" y="12" type="line"/>
			<point x="399" y="27" type="line"/>
			<point x="125" y="27" type="line"/>
		</contour>
		<contour>
			<point x="180" y="321" type="line"/>
			<point x="365" y="321" type="line"/>
			<point x="371" y="350" type="line"/>
			<point x="186" y="350" type="line"/>
		</contour>
		<contour>
			<point x="220" y="630" type="line"/>
			<point x="489" y="630" type="line"/>
			<point x="455" y="645" type="line"/>
			<point x="501" y="480" type="line"/>
			<point x="523" y="480" type="line"/>
			<point x="544" y="657" type="line"/>
			<point x="225" y="657" type="line"/>
		</contour>
		<contour>
			<point x="368" y="223" type="line"/>
			<point x="388" y="223" type="line"/>
			<point x="429" y="446" type="line"/>
			<point x="409" y="446" type="line"/>
			<point x="354" y="343" type="line"/>
			<point x="351" y="326" type="line"/>
		</contour>
	</outline>
	<anchor name="aboveUC" x="341" y="677"/>
	<anchor name="belowLC" x="231" y="-20"/>
	<anchor name="ogonek" x="356" y="0"/>
</glyph>
<glyph name="F" format="2">
	<unicode hex="0046"/>
	<advance width="496"/>
	<outline>
		<contour>
			<point x="-7" y="0" type="line"/>
			<point x="266" y="0" type="line"/>
			<point x="271" y="22" type="line"/>
			<point x="162" y="37" type="line"/>
			<point x="99" y="37" type="line"/>
			<point x="-2" y="22" type="line"/>
		</contour>
		<contour>
			<point x="56" y="0" type="line"/>
			<point x="194" y="0" type="line"/>
			<point x="210" y="103"/>
			<point x="226" y="207"/>
			<point x="246" y="311" type="curve" smooth="yes"/>
			<point x="312" y="657" type="line"/>
			<point x="174" y="657" type="line"/>
			<point x="158" y="554"/>
			<point x="142" y="450"/>
			<point x="123" y="346" type="curve" smooth="yes"/>
		</contour>
		<contour>
			<point x="108" y="635" type="line"/>
			<point x="208" y="621" type="line"/>
			<point x="270" y="621" type="line"/>
			<point x="277" y="657" type="line"/>
			<point x="113" y="657" type="line"/>
		</contour>
		<contour>
			<point x="180" y="321" type="line"/>
			<point x="361" y="321" type="line"/>
			<point x="367" y="350" type="line"/>
			<point x="186" y="350" type="line"/>
		</contour>
		<contour>
			<point x="220" y="630" type="line"/>
			<point x="484" y="630" type="line"/>
			<point x="451" y="645" type="line"/>
			<point x="497" y="480" type="line"/>
			<point x="519" y="480" type="line"/>
			<point x="540" y="657" type="line"/>
			<point x="225" y="657" type="line"/>
		</contour>
		<contour>
			<point x="364" y="223" type="line"/>
			<point x="384" y="223" type="line"/>
			<point x="425" y="446" type="line"/>
			<point x="405" y="446" type="line"/>
			<point x="350" y="343" type="line"/>
			<point x="347" y="326" type="line"/>
		</contour>
	</outline>
	<anchor name="aboveUC" x="344" y="677"/>
	<anchor name="belowLC" x="129" y="-20"/>
</glyph>
<glyph name="G" format="2">
	<unicode hex="0047"/>
	<advance width="602"/>
	<outline>
		<contour>
			<point x="47" y="244" type="curve" smooth="yes"/>
			<point x="47" y="71"/>
			<point x="153" y="-16"/>
			<point x="304" y="-16" type="curve" smooth="yes"/>
			<point x="371" y="-16"/>
			<point x="432" y="-2"/>
			<point x="492" y="33" type="curve"/>
			<point x="547" y="325" type="line"/>
			<point x="420" y="325" type="line"/>
			<point x="409" y="246"/>
			<point x="396" y="163"/>
			<point x="381" y="79" type="curve" smooth="yes"/>
			<point x="366" y="3" type="line"/>
			<point x="400" y="30" type="line"/>
			<point x="368" y="16"/>
			<point x="337" y="10"/>
			<point x="307" y="10" type="curve" smooth="yes"/>
			<point x="232" y="10"/>
			<point x="179" y="69"/>
			<point x="179" y="201" type="curve" smooth="yes"/>
			<point x="179" y="406"/>
			<point x="277" y="647"/>
			<point x="428" y="647" type="curve" smooth="yes"/>
			<point x="457" y="647"/>
			<point x="487" y="641"/>
			<point x="515" y="626" type="curve"/>
			<point x="490" y="646" type="line"/>
			<point x="535" y="473" type="line"/>
			<point x="557" y="473" type="line"/>
			<point x="580" y="631" type="line"/>
			<point x="539" y="660"/>
			<point x="473" y="673"/>
			<point x="412" y="673" type="curve" smooth="yes"/>
			<point x="177" y="673"/>
			<point x="47" y="447"/>
		</contour>
		<contour>
			<point x="356" y="303" type="line"/>
			<point x="459" y="289" type="line"/>
			<point x="491" y="289" type="line"/>
			<point x="588" y="303" type="line"/>
			<point x="593" y="325" type="line"/>
			<point x="360" y="325" type="line"/>
		</contour>
	</outline>
	<anchor name="aboveUC" x="398" y="677"/>
	<anchor name="belowLC" x="308" y="-20"/>
</glyph>
<glyph name="J" format="2">
	<unicode hex="004A"/>
	<advance width="326"/>
	<outline>
		<contour>
			<point x="-129" y="-86" type="curve"/>
			<point x="-127" y="-125"/>
			<point x="-86" y="-150"/>
			<point x="-39" y="-150" type="curve" smooth="yes"/>
			<point x="21" y="-150"/>
			<point x="59" y="-126"/>
			<point x="103" y="-87" type="curve" smooth="yes"/>
			<point x="194" y="-5"/>
			<point x="225" y="133"/>
			<point x="254" y="276" type="curve" smooth="yes"/>
			<point x="332" y="657" type="line"/>
			<point x="194" y="657" type="line"/>
			<point x="173" y="532"/>
			<point x="147" y="408"/>
			<point x="125" y="282" type="curve" smooth="yes"/>
			<point x="107" y="172"/>
			<point x="96" y="107"/>
			<point x="87" y="62" type="curve" smooth="yes"/>
			<point x="65" y="-54"/>
			<point x="45" y="-92"/>
			<point x="14" y="-120" type="curve"/>
			<point x="13" y="-126" type="line"/>
			<point x="37" y="-126" type="line"/>
			<point x="38" y="-120" type="line"/>
			<point x="-9" y="-44"/>
			<point x="-35" y="-36"/>
			<point x="-60" y="-36" type="curve" smooth="yes"/>
			<point x="-94" y="-36"/>
			<point x="-122" y="-57"/>
		</contour>
		<contour>
			<point x="113" y="635" type="line"/>
			<point x="226" y="621" type="line"/>
			<point x="286" y="621" type="line"/>
			<point x="391" y="635" type="line"/>
			<point x="395" y="657" type="line"/>
			<point x="117" y="657" type="line"/>
		</contour>
	</outline>
	<anchor name="aboveUC" x="262" y="677"/>
	<anchor name="belowLC" x="37" y="-160"/>
</glyph>
<glyph name="N" format="2">
	<unicode hex="004E"/>
	<advance width="605"/>
	<outline>
		<contour>
			<point x="-18" y="0" type="line"/>
			<point x="163" y="0" type="line"/>
			<point x="168" y="22" type="line"/>
			<point x="86" y="32" type="line"/>
			<point x="63" y="32" type="line"/>
			<point x="-14" y="22" type="line"/>
		</contour>
		<contour>
			<point x="53" y="0" type="line"/>
			<point x="84" y="0" type="line"/>
			<point x="145" y="329" type="line"/>
			<point x="204" y="645" type="line"/>
			<point x="173" y="645" type="line"/>
		</contour>
		<contour>
			<point x="486" y="635" type="line"/>
			<point x="573" y="625" type="line"/>
			<point x="596" y="625" type="line"/>
			<point x="666" y="635" type="line"/>
			<point x="671" y="657" type="line"/>
			<point x="490" y="657" type="line"/>
		</contour>
		<contour>
			<point x="512" y="196" type="line"/>
			<point x="497" y="196" type="line"/>
			<point x="287" y="657" type="line"/>
			<point x="102" y="657" type="line"/>
			<point x="98" y="635" type="line"/>
			<point x="148" y="628" type="line"/>
			<point x="171" y="579" type="line"/>
			<point x="174" y="573" type="line"/>
			<point x="434" y="-2" type="line"/>
			<point x="484" y="-2" type="line"/>
			<point x="607" y="657" type="line"/>
			<point x="576" y="657" type="line"/>
			<point x="515" y="329" type="line"/>
			<point x="474" y="108" type="line"/>
		</contour>
	</outline>
	<anchor name="aboveUC" x="379" y="677"/>
	<anchor name="belowLC" x="272" y="-20"/>
</glyph>
<glyph name="Q" format="2">
	<unicode hex="0051"/>
	<advance width="620"/>
	<outline>
		<contour>
			<point x="413" y="-243" type="curve" smooth="yes"/>
			<point x="492" y="-243"/>
			<point x="541" y="-215"/>
			<point x="578" y="-180" type="curve"/>
			<point x="568" y="-161" type="line"/>
			<point x="534" y="-179"/>
			<point x="504" y="-188"/>
			<point x="464" y="-188" type="curve" smooth="yes"/>
			<point x="356" y="-188"/>
			<point x="296" y="-120"/>
			<point x="313" y="10" type="curve"/>
			<point x="201" y="10" type="line"/>
			<point x="182" y="-154"/>
			<point x="275" y="-243"/>
		</contour>
		<component base="O"/>
	</outline>
	<anchor name="aboveUC" x="388" y="677"/>
</glyph>
<glyph name="R" format="2">
	<unicode hex="0052"/>
	<advance width="618"/>
	<outline>
		<contour>
			<point x="-7" y="0" type="line"/>
			<point x="262" y="0" type="line"/>
			<point x="266" y="22" type="line"/>
			<point x="162" y="37" type="line"/>
			<point x="100" y="37" type="line"/>
			<point x="-2" y="22" type="line"/>
		</contour>
		<contour>
			<point x="56" y="0" type="line"/>
			<point x="194" y="0" type="line"/>
			<point x="210" y="102"/>
			<point x="226" y="207"/>
			<point x="246" y="311" type="curve" smooth="yes"/>
			<point x="312" y="657" type="line"/>
			<point x="174" y="657" type="line"/>
			<point x="159" y="555"/>
			<point x="142" y="449"/>
			<point x="123" y="345" type="curve" smooth="yes"/>
		</contour>
		<contour>
			<point x="108" y="635" type="line"/>
			<point x="207" y="621" type="line"/>
			<point x="249" y="621" type="line"/>
			<point x="249" y="657" type="line"/>
			<point x="113" y="657" type="line"/>
		</contour>
		<contour>
			<point x="495" y="-11" type="curve" smooth="yes"/>
			<point x="530" y="-11"/>
			<point x="547" y="-7"/>
			<point x="581" y="0" type="curve"/>
			<point x="585" y="22" type="line"/>
			<point x="483" y="39" type="line"/>
			<point x="532" y="14" type="line"/>
			<point x="483" y="198" type="line" smooth="yes"/>
			<point x="460" y="287"/>
			<point x="424" y="315"/>
			<point x="286" y="324" type="curve"/>
			<point x="285" y="312" type="line"/>
			<point x="421" y="324"/>
			<point x="565" y="390"/>
			<point x="565" y="511" type="curve" smooth="yes"/>
			<point x="565" y="595"/>
			<point x="499" y="657"/>
			<point x="358" y="657" type="curve" smooth="yes"/>
			<point x="242" y="657" type="line"/>
			<point x="241" y="630" type="line"/>
			<point x="339" y="630" type="line" smooth="yes"/>
			<point x="404" y="630"/>
			<point x="436" y="584"/>
			<point x="436" y="516" type="curve" smooth="yes"/>
			<point x="436" y="410"/>
			<point x="385" y="335"/>
			<point x="288" y="335" type="curve" smooth="yes"/>
			<point x="176" y="335" type="line"/>
			<point x="170" y="307" type="line"/>
			<point x="256" y="307" type="line" smooth="yes"/>
			<point x="321" y="307"/>
			<point x="332" y="283"/>
			<point x="348" y="204" type="curve" smooth="yes"/>
			<point x="375" y="79" type="line" smooth="yes"/>
			<point x="388" y="12"/>
			<point x="421" y="-11"/>
		</contour>
	</outline>
	<anchor name="aboveUC" x="347" y="677"/>
	<anchor name="belowLC" x="297" y="-20"/>
</glyph>
<glyph name="X" format="2">
	<unicode hex="0058"/>
	<advance width="593"/>
	<outline>
		<contour>
			<point x="-31" y="0" type="line"/>
			<point x="150" y="0" type="line"/>
			<point x="154" y="22" type="line"/>
			<point x="79" y="32" type="line"/>
			<point x="48" y="32" type="line"/>
			<point x="-26" y="22" type="line"/>
		</contour>
		<contour>
			<point x="20" y="0" type="line"/>
			<point x="55" y="0" type="line"/>
			<point x="286" y="301" type="line"/>
			<point x="301" y="320" type="line"/>
			<point x="323" y="320" type="line"/>
			<point x="292" y="347" type="line"/>
		</contour>
		<contour>
			<point x="91" y="635" type="line"/>
			<point x="182" y="621" type="line"/>
			<point x="249" y="621" type="line"/>
			<point x="360" y="635" type="line"/>
			<point x="364" y="657" type="line"/>
			<point x="96" y="657" type="line"/>
		</contour>
		<contour>
			<point x="282" y="0" type="line"/>
			<point x="551" y="0" type="line"/>
			<point x="555" y="22" type="line"/>
			<point x="465" y="37" type="line"/>
			<point x="398" y="37" type="line"/>
			<point x="287" y="22" type="line"/>
		</contour>
		<contour>
			<point x="341" y="325" type="line"/>
			<point x="596" y="657" type="line"/>
			<point x="561" y="657" type="line"/>
			<point x="351" y="376" type="line"/>
			<point x="335" y="355" type="line"/>
			<point x="314" y="355" type="line"/>
		</contour>
		<contour>
			<point x="462" y="635" type="line"/>
			<point x="537" y="625" type="line"/>
			<point x="568" y="625" type="line"/>
			<point x="643" y="635" type="line"/>
			<point x="647" y="657" type="line"/>
			<point x="466" y="657" type="line"/>
		</contour>
		<contour>
			<point x="369" y="0" type="line"/>
			<point x="507" y="0" type="line"/>
			<point x="277" y="657" type="line"/>
			<point x="140" y="657" type="line"/>
		</contour>
	</outline>
	<anchor name="aboveUC" x="415" y="677"/>
	<anchor name="belowLC" x="226" y="-20"/>
</glyph>
<glyph name="Z" format="2">
	<unicode hex="005A"/>
	<advance width="521"/>
	<outline>
		<contour>
			<point x="-6" y="0" type="line"/>
			<point x="445" y="0" type="line"/>
			<point x="491" y="188" type="line"/>
			<point x="470" y="188" type="line"/>
			<point x="361" y="12" type="line"/>
			<point x="399" y="27" type="line"/>
			<point x="282" y="27" type="line"/>
			<point x="143" y="27" type="line"/>
			<point x="144" y="40" type="line"/>
			<point x="135" y="10" type="line"/>
			<point x="560" y="638" type="line"/>
			<point x="562" y="657" type="line"/>
			<point x="130" y="657" type="line"/>
			<point x="89" y="475" type="line"/>
			<point x="111" y="475" type="line"/>
			<point x="215" y="645" type="line"/>
			<point x="175" y="630" type="line"/>
			<point x="292" y="630" type="line"/>
			<point x="413" y="630" type="line"/>
			<point x="413" y="621" type="line"/>
			<point x="422" y="645" type="line"/>
			<point x="-2" y="19" type="line"/>
		</contour>
	</outline>
	<anchor name="aboveUC" x="348" y="677"/>
	<anchor name="belowLC" x="236" y="-20"/>
</glyph>
<glyph name="asciicircum" format="2">
	<unicode hex="005E"/>
	<advance width="508"/>
	<outline>
		<contour>
			<point x="88" y="231" type="line"/>
			<point x="123" y="209" type="line"/>
			<point x="286" y="474" type="line"/>
			<point x="255" y="474" type="line"/>
			<point x="417" y="209" type="line"/>
			<point x="452" y="231" type="line"/>
			<point x="283" y="506" type="line"/>
			<point x="257" y="506" type="line"/>
		</contour>
	</outline>
</glyph>
<glyph name="a" format="2">
	<unicode hex="0061"/>
	<advance width="529"/>
	<outline>
		<contour>
			<point x="131" y="-15" type="curve" smooth="yes"/>
			<point x="211" y="-15"/>
			<point x="273" y="66"/>
			<point x="313" y="131" type="curve"/>
			<point x="317" y="131" type="line"/>
			<point x="317" y="157" type="line"/>
			<point x="264" y="86"/>
			<point x="224" y="62"/>
			<point x="196" y="62" type="curve" smooth="yes"/>
			<point x="162" y="62"/>
			<point x="154" y="91"/>
			<point x="154" y="135" type="curve" smooth="yes"/>
			<point x="154" y="200"/>
			<point x="178" y="301"/>
			<point x="223" y="362" type="curve" smooth="yes"/>
			<point x="246" y="393"/>
			<point x="275" y="414"/>
			<point x="309" y="414" type="curve" smooth="yes"/>
			<point x="338" y="414"/>
			<point x="361" y="392"/>
			<point x="380" y="367" type="curve"/>
			<point x="455" y="408" type="line"/>
			<point x="430" y="449"/>
			<point x="380" y="473"/>
			<point x="331" y="473" type="curve" smooth="yes"/>
			<point x="193" y="473"/>
			<point x="27" y="262"/>
			<point x="27" y="111" type="curve" smooth="yes"/>
			<point x="27" y="22"/>
			<point x="78" y="-15"/>
		</contour>
		<contour>
			<point x="357" y="-15" type="curve" smooth="yes"/>
			<point x="426" y="-15"/>
			<point x="479" y="46"/>
			<point x="511" y="104" type="curve"/>
			<point x="494" y="116" type="line"/>
			<point x="465" y="79"/>
			<point x="442" y="63"/>
			<point x="426" y="63" type="curve" smooth="yes"/>
			<point x="418" y="63"/>
			<point x="412" y="66"/>
			<point x="412" y="77" type="curve" smooth="yes"/>
			<point x="412" y="88"/>
			<point x="415" y="100"/>
			<point x="418" y="115" type="curve" smooth="yes"/>
			<point x="491" y="464" type="line"/>
			<point x="477" y="475" type="line"/>
			<point x="361" y="409" type="line"/>
			<point x="353" y="408" type="line"/>
			<point x="293" y="115" type="line"/>
			<point x="294" y="114" type="line" smooth="yes"/>
			<point x="286" y="82"/>
			<point x="284" y="68"/>
			<point x="284" y="56" type="curve" smooth="yes"/>
			<point x="284" y="13"/>
			<point x="315" y="-15"/>
		</contour>
	</outline>
	<anchor name="aboveLC" x="334" y="478"/>
	<anchor name="belowLC" x="239" y="-20"/>
	<anchor name="ogonek" x="404" y="0"/>
</glyph>
<glyph name="k" format="2">
	<unicode hex="006B"/>
	<advance width="489"/>
	<outline>
		<contour>
			<point x="24" y="3" type="line"/>
			<point x="38" y="-8" type="line"/>
			<point x="157" y="0" type="line"/>
			<point x="163" y="68"/>
			<point x="176" y="138"/>
			<point x="190" y="204" type="curve" smooth="yes"/>
			<point x="297" y="720" type="line"/>
			<point x="284" y="730" type="line"/>
			<point x="92" y="678" type="line"/>
			<point x="89" y="662" type="line"/>
			<point x="176" y="639" type="line"/>
			<point x="154" y="656" type="line"/>
			<point x="145" y="592"/>
			<point x="132" y="524"/>
			<point x="119" y="459" type="curve" smooth="yes"/>
		</contour>
		<contour>
			<point x="470" y="1" type="curve"/>
			<point x="474" y="19" type="line"/>
			<point x="451" y="23" type="line" smooth="yes"/>
			<point x="425" y="26"/>
			<point x="414" y="51"/>
			<point x="399" y="87" type="curve" smooth="yes"/>
			<point x="373" y="151" type="line" smooth="yes"/>
			<point x="346" y="215"/>
			<point x="305" y="245"/>
			<point x="234" y="252" type="curve" smooth="yes"/>
			<point x="199" y="255" type="line"/>
			<point x="197" y="248" type="line"/>
			<point x="394" y="326" type="line" smooth="yes"/>
			<point x="456" y="347"/>
			<point x="485" y="363"/>
			<point x="485" y="410" type="curve" smooth="yes"/>
			<point x="485" y="442"/>
			<point x="457" y="466"/>
			<point x="430" y="468" type="curve"/>
			<point x="194" y="259" type="line"/>
			<point x="185" y="251" type="line"/>
			<point x="181" y="251" type="line"/>
			<point x="181" y="245" type="line"/>
			<point x="193" y="241" type="line" smooth="yes"/>
			<point x="220" y="230"/>
			<point x="226" y="211"/>
			<point x="242" y="162" type="curve" smooth="yes"/>
			<point x="269" y="74" type="line" smooth="yes"/>
			<point x="291" y="1"/>
			<point x="330" y="-14"/>
			<point x="389" y="-14" type="curve" smooth="yes"/>
			<point x="423" y="-14"/>
			<point x="447" y="-8"/>
		</contour>
	</outline>
	<anchor name="aboveLC" x="235" y="730"/>
	<anchor name="belowLC" x="220" y="-20"/>
</glyph>
<glyph name="l" format="2">
	<unicode hex="006C"/>
	<advance width="284"/>
	<outline>
		<contour>
			<point x="103" y="-15" type="curve" smooth="yes"/>
			<point x="178" y="-15"/>
			<point x="232" y="46"/>
			<point x="264" y="104" type="curve"/>
			<point x="247" y="116" type="line"/>
			<point x="218" y="79"/>
			<point x="196" y="63"/>
			<point x="181" y="63" type="curve" smooth="yes"/>
			<point x="173" y="63"/>
			<point x="166" y="67"/>
			<point x="166" y="78" type="curve" smooth="yes"/>
			<point x="166" y="87"/>
			<point x="170" y="104"/>
			<point x="174" y="125" type="curve" smooth="yes"/>
			<point x="297" y="720" type="line"/>
			<point x="283" y="730" type="line"/>
			<point x="92" y="678" type="line"/>
			<point x="89" y="662" type="line"/>
			<point x="176" y="639" type="line"/>
			<point x="153" y="656" type="line"/>
			<point x="145" y="592"/>
			<point x="132" y="524"/>
			<point x="119" y="459" type="curve" smooth="yes"/>
			<point x="49" y="130" type="line" smooth="yes"/>
			<point x="44" y="104"/>
			<point x="35" y="68"/>
			<point x="35" y="45" type="curve" smooth="yes"/>
			<point x="35" y="8"/>
			<point x="62" y="-15"/>
		</contour>
	</outline>
	<anchor name="aboveLC" x="228" y="730"/>
	<anchor name="belowLC" x="115" y="-20"/>
</glyph>
<glyph name="p" format="2">
	<unicode hex="0070"/>
	<advance width="507"/>
	<outline>
		<contour>
			<point x="-87" y="-245" type="line"/>
			<point x="187" y="-245" type="line"/>
			<point x="190" y="-225" type="line"/>
			<point x="96" y="-210" type="line"/>
			<point x="7" y="-210" type="line"/>
			<point x="-83" y="-225" type="line"/>
		</contour>
		<contour>
			<point x="-20" y="-245" type="line"/>
			<point x="106" y="-245" type="line"/>
			<point x="117" y="-178"/>
			<point x="136" y="-82"/>
			<point x="154" y="12" type="curve"/>
			<point x="159" y="30" type="line"/>
			<point x="225" y="343" type="line"/>
			<point x="227" y="353" type="line"/>
			<point x="250" y="462" type="line"/>
			<point x="236" y="473" type="line"/>
			<point x="47" y="421" type="line"/>
			<point x="43" y="404" type="line"/>
			<point x="129" y="382" type="line"/>
			<point x="111" y="395" type="line"/>
		</contour>
		<contour>
			<point x="192" y="-15" type="curve" smooth="yes"/>
			<point x="329" y="-15"/>
			<point x="490" y="196"/>
			<point x="490" y="347" type="curve" smooth="yes"/>
			<point x="490" y="436"/>
			<point x="439" y="473"/>
			<point x="386" y="473" type="curve" smooth="yes"/>
			<point x="307" y="473"/>
			<point x="244" y="392"/>
			<point x="204" y="327" type="curve"/>
			<point x="196" y="327" type="line"/>
			<point x="200" y="301" type="line"/>
			<point x="253" y="372"/>
			<point x="293" y="396"/>
			<point x="321" y="396" type="curve" smooth="yes"/>
			<point x="356" y="396"/>
			<point x="363" y="366"/>
			<point x="363" y="323" type="curve" smooth="yes"/>
			<point x="363" y="253"/>
			<point x="338" y="144"/>
			<point x="291" y="85" type="curve" smooth="yes"/>
			<point x="270" y="60"/>
			<point x="246" y="44"/>
			<point x="217" y="44" type="curve" smooth="yes"/>
			<point x="185" y="44"/>
			<point x="162" y="66"/>
			<point x="143" y="90" type="curve"/>
			<point x="68" y="50" type="line"/>
			<point x="93" y="9"/>
			<point x="143" y="-15"/>
		</contour>
	</outline>
	<anchor name="aboveLC" x="295" y="478"/>
	<anchor name="belowLC" x="46" y="-265"/>
</glyph>
<glyph name="q" format="2">
	<unicode hex="0071"/>
	<advance width="516"/>
	<outline>
		<contour>
			<point x="131" y="-15" type="curve" smooth="yes"/>
			<point x="211" y="-15"/>
			<point x="273" y="66"/>
			<point x="313" y="131" type="curve"/>
			<point x="321" y="131" type="line"/>
			<point x="317" y="157" type="line"/>
			<point x="264" y="86"/>
			<point x="224" y="62"/>
			<point x="196" y="62" type="curve" smooth="yes"/>
			<point x="162" y="62"/>
			<point x="154" y="91"/>
			<point x="154" y="135" type="curve" smooth="yes"/>
			<point x="154" y="202"/>
			<point x="180" y="308"/>
			<point x="227" y="368" type="curve" smooth="yes"/>
			<point x="250" y="396"/>
			<point x="277" y="414"/>
			<point x="309" y="414" type="curve" smooth="yes"/>
			<point x="338" y="414"/>
			<point x="361" y="392"/>
			<point x="380" y="367" type="curve"/>
			<point x="455" y="408" type="line"/>
			<point x="430" y="449"/>
			<point x="380" y="473"/>
			<point x="331" y="473" type="curve" smooth="yes"/>
			<point x="193" y="473"/>
			<point x="27" y="262"/>
			<point x="27" y="111" type="curve" smooth="yes"/>
			<point x="27" y="22"/>
			<point x="78" y="-15"/>
		</contour>
		<contour>
			<point x="139" y="-245" type="line"/>
			<point x="417" y="-245" type="line"/>
			<point x="421" y="-225" type="line"/>
			<point x="339" y="-210" type="line"/>
			<point x="241" y="-210" type="line"/>
			<point x="143" y="-225" type="line"/>
		</contour>
		<contour>
			<point x="218" y="-245" type="line"/>
			<point x="344" y="-245" type="line"/>
			<point x="356" y="-185"/>
			<point x="367" y="-123"/>
			<point x="381" y="-56" type="curve" smooth="yes"/>
			<point x="491" y="464" type="line"/>
			<point x="476" y="475" type="line"/>
			<point x="366" y="415" type="line"/>
			<point x="354" y="409" type="line"/>
			<point x="293" y="123" type="line"/>
			<point x="294" y="112" type="line"/>
		</contour>
	</outline>
	<anchor name="aboveLC" x="333" y="478"/>
	<anchor name="belowLC" x="279" y="-265"/>
</glyph>
<glyph name="r" format="2">
	<unicode hex="0072"/>
	<advance width="416"/>
	<outline>
		<contour>
			<point x="188" y="213" type="line"/>
			<point x="218" y="283"/>
			<point x="249" y="351"/>
			<point x="307" y="409" type="curve"/>
			<point x="307" y="415" type="line"/>
			<point x="286" y="408" type="line"/>
			<point x="301" y="390" type="line" smooth="yes"/>
			<point x="325" y="361"/>
			<point x="336" y="348"/>
			<point x="370" y="348" type="curve" smooth="yes"/>
			<point x="409" y="348"/>
			<point x="437" y="382"/>
			<point x="438" y="420" type="curve"/>
			<point x="428" y="458"/>
			<point x="401" y="473"/>
			<point x="375" y="473" type="curve" smooth="yes"/>
			<point x="292" y="473"/>
			<point x="240" y="387"/>
			<point x="190" y="260" type="curve"/>
			<point x="179" y="260" type="line"/>
		</contour>
		<contour>
			<point x="32" y="3" type="line"/>
			<point x="45" y="-8" type="line"/>
			<point x="165" y="0" type="line"/>
			<point x="172" y="68"/>
			<point x="184" y="138"/>
			<point x="197" y="204" type="curve" smooth="yes"/>
			<point x="213" y="281" type="line"/>
			<point x="210" y="284" type="line"/>
			<point x="244" y="462" type="line"/>
			<point x="229" y="473" type="line"/>
			<point x="47" y="421" type="line"/>
			<point x="43" y="404" type="line"/>
			<point x="129" y="382" type="line"/>
			<point x="113" y="395" type="line"/>
		</contour>
	</outline>
	<anchor name="aboveLC" x="274" y="478"/>
	<anchor name="belowLC" x="99" y="-20"/>
</glyph>
<glyph name="v" format="2">
	<unicode hex="0076"/>
	<advance width="463"/>
	<outline>
		<contour>
			<point x="121" y="3" type="curve"/>
			<point x="134" y="-7" type="line"/>
			<point x="213" y="0" type="line"/>
			<point x="309" y="98"/>
			<point x="372" y="202"/>
			<point x="416" y="285" type="curve" smooth="yes"/>
			<point x="435" y="320"/>
			<point x="457" y="366"/>
			<point x="457" y="409" type="curve" smooth="yes"/>
			<point x="457" y="426"/>
			<point x="453" y="443"/>
			<point x="445" y="460" type="curve"/>
			<point x="435" y="468"/>
			<point x="417" y="473"/>
			<point x="400" y="473" type="curve" smooth="yes"/>
			<point x="363" y="473"/>
			<point x="339" y="451"/>
			<point x="339" y="404" type="curve" smooth="yes"/>
			<point x="339" y="383"/>
			<point x="342" y="359"/>
			<point x="363" y="295" type="curve"/>
			<point x="377" y="251" type="line"/>
			<point x="408" y="336" type="line"/>
			<point x="401" y="319"/>
			<point x="393" y="304"/>
			<point x="385" y="289" type="curve" smooth="yes"/>
			<point x="345" y="208"/>
			<point x="299" y="132"/>
			<point x="237" y="59" type="curve"/>
			<point x="231" y="52" type="line"/>
			<point x="241" y="52" type="line"/>
			<point x="241" y="157"/>
			<point x="235" y="287"/>
			<point x="225" y="372" type="curve" smooth="yes"/>
			<point x="217" y="435"/>
			<point x="201" y="473"/>
			<point x="140" y="473" type="curve" smooth="yes"/>
			<point x="84" y="473"/>
			<point x="42" y="435"/>
			<point x="4" y="339" type="curve"/>
			<point x="21" y="328" type="line"/>
			<point x="45" y="371"/>
			<point x="64" y="392"/>
			<point x="79" y="392" type="curve" smooth="yes"/>
			<point x="88" y="392"/>
			<point x="96" y="386"/>
			<point x="99" y="357" type="curve" smooth="yes"/>
			<point x="113" y="240"/>
			<point x="118" y="155"/>
		</contour>
	</outline>
	<anchor name="aboveLC" x="276" y="478"/>
	<anchor name="belowLC" x="174" y="-20"/>
</glyph>
<glyph name="w" format="2">
	<unicode hex="0077"/>
	<advance width="724"/>
	<outline>
		<contour>
			<point x="121" y="3" type="curve"/>
			<point x="134" y="-7" type="line"/>
			<point x="213" y="0" type="line"/>
			<point x="285" y="97"/>
			<point x="336" y="208"/>
			<point x="372" y="317" type="curve"/>
			<point x="378" y="333" type="line"/>
			<point x="366" y="332" type="line"/>
			<point x="373" y="223"/>
			<point x="380" y="113"/>
			<point x="387" y="3" type="curve"/>
			<point x="400" y="-7" type="line"/>
			<point x="465" y="0" type="line"/>
			<point x="561" y="98"/>
			<point x="631" y="204"/>
			<point x="674" y="287" type="curve" smooth="yes"/>
			<point x="694" y="322"/>
			<point x="716" y="367"/>
			<point x="716" y="410" type="curve" smooth="yes"/>
			<point x="716" y="427"/>
			<point x="711" y="443"/>
			<point x="704" y="460" type="curve"/>
			<point x="694" y="468"/>
			<point x="675" y="473"/>
			<point x="659" y="473" type="curve" smooth="yes"/>
			<point x="622" y="473"/>
			<point x="597" y="451"/>
			<point x="597" y="404" type="curve" smooth="yes"/>
			<point x="597" y="384"/>
			<point x="599" y="362"/>
			<point x="621" y="296" type="curve" smooth="yes"/>
			<point x="639" y="244" type="line"/>
			<point x="665" y="338" type="line"/>
			<point x="658" y="323"/>
			<point x="651" y="307"/>
			<point x="643" y="294" type="curve" smooth="yes"/>
			<point x="594" y="195"/>
			<point x="551" y="136"/>
			<point x="497" y="71" type="curve"/>
			<point x="490" y="61" type="line"/>
			<point x="506" y="56" type="line"/>
			<point x="498" y="188"/>
			<point x="488" y="320"/>
			<point x="476" y="452" type="curve"/>
			<point x="386" y="452" type="line"/>
			<point x="348" y="327"/>
			<point x="305" y="204"/>
			<point x="232" y="73" type="curve"/>
			<point x="226" y="62" type="line"/>
			<point x="239" y="61" type="line"/>
			<point x="242" y="182"/>
			<point x="233" y="295"/>
			<point x="225" y="372" type="curve" smooth="yes"/>
			<point x="218" y="435"/>
			<point x="201" y="473"/>
			<point x="140" y="473" type="curve" smooth="yes"/>
			<point x="84" y="473"/>
			<point x="42" y="435"/>
			<point x="4" y="339" type="curve"/>
			<point x="21" y="328" type="line"/>
			<point x="45" y="371"/>
			<point x="64" y="392"/>
			<point x="79" y="392" type="curve" smooth="yes"/>
			<point x="88" y="392"/>
			<point x="96" y="386"/>
			<point x="99" y="357" type="curve" smooth="yes"/>
			<point x="113" y="240"/>
			<point x="118" y="155"/>
		</contour>
	</outline>
	<anchor name="aboveLC" x="431" y="478"/>
	<anchor name="belowLC" x="306" y="-20"/>
</glyph>
<glyph name="x" format="2">
	<unicode hex="0078"/>
	<advance width="520"/>
	<outline>
		<contour>
			<point x="341" y="-15" type="curve" smooth="yes"/>
			<point x="406" y="-15"/>
			<point x="454" y="43"/>
			<point x="487" y="118" type="curve"/>
			<point x="470" y="128" type="line"/>
			<point x="445" y="88"/>
			<point x="422" y="63"/>
			<point x="403" y="63" type="curve" smooth="yes"/>
			<point x="389" y="63"/>
			<point x="381" y="77"/>
			<point x="374" y="102" type="curve" smooth="yes"/>
			<point x="318" y="285" type="line"/>
			<point x="315" y="292" type="line"/>
			<point x="286" y="386" type="line" smooth="yes"/>
			<point x="268" y="444"/>
			<point x="252" y="473"/>
			<point x="200" y="473" type="curve" smooth="yes"/>
			<point x="134" y="473"/>
			<point x="96" y="405"/>
			<point x="71" y="337" type="curve"/>
			<point x="88" y="328" type="line"/>
			<point x="111" y="375"/>
			<point x="128" y="389"/>
			<point x="139" y="389" type="curve" smooth="yes"/>
			<point x="151" y="389"/>
			<point x="155" y="380"/>
			<point x="163" y="353" type="curve" smooth="yes"/>
			<point x="217" y="179" type="line"/>
			<point x="219" y="172" type="line"/>
			<point x="250" y="69" type="line" smooth="yes"/>
			<point x="269" y="6"/>
			<point x="294" y="-15"/>
		</contour>
		<contour>
			<point x="-10" y="57" type="curve"/>
			<point x="-1" y="5"/>
			<point x="36" y="-15"/>
			<point x="70" y="-15" type="curve" smooth="yes"/>
			<point x="113" y="-15"/>
			<point x="135" y="9"/>
			<point x="164" y="53" type="curve" smooth="yes"/>
			<point x="188" y="91"/>
			<point x="219" y="151"/>
			<point x="260" y="233" type="curve"/>
			<point x="252" y="256" type="line"/>
			<point x="211" y="183"/>
			<point x="175" y="120"/>
			<point x="139" y="64" type="curve" smooth="yes"/>
			<point x="130" y="52"/>
			<point x="122" y="46"/>
			<point x="115" y="41" type="curve"/>
			<point x="115" y="32" type="line"/>
			<point x="130" y="32" type="line"/>
			<point x="119" y="59" type="line" smooth="yes"/>
			<point x="102" y="96"/>
			<point x="82" y="111"/>
			<point x="53" y="111" type="curve" smooth="yes"/>
			<point x="22" y="111"/>
			<point x="-5" y="93"/>
		</contour>
		<contour>
			<point x="282" y="201" type="line"/>
			<point x="323" y="275"/>
			<point x="359" y="337"/>
			<point x="395" y="393" type="curve" smooth="yes"/>
			<point x="404" y="407"/>
			<point x="412" y="413"/>
			<point x="420" y="417" type="curve"/>
			<point x="420" y="427" type="line"/>
			<point x="402" y="427" type="line"/>
			<point x="415" y="400" type="line" smooth="yes"/>
			<point x="431" y="365"/>
			<point x="454" y="348"/>
			<point x="484" y="348" type="curve" smooth="yes"/>
			<point x="515" y="348"/>
			<point x="538" y="369"/>
			<point x="543" y="401" type="curve"/>
			<point x="535" y="452"/>
			<point x="498" y="473"/>
			<point x="464" y="473" type="curve" smooth="yes"/>
			<point x="421" y="473"/>
			<point x="399" y="449"/>
			<point x="371" y="405" type="curve" smooth="yes"/>
			<point x="346" y="366"/>
			<point x="315" y="306"/>
			<point x="275" y="224" type="curve"/>
		</contour>
	</outline>
	<anchor name="aboveLC" x="318" y="478"/>
	<anchor name="belowLC" x="204" y="-20"/>
</glyph>
<glyph name="y" format="2">
	<unicode hex="0079"/>
	<advance width="490"/>
	<outline>
		<contour>
			<point x="-34" y="-245" type="curve" smooth="yes"/>
			<point x="18" y="-245"/>
			<point x="54" y="-220"/>
			<point x="91" y="-186" type="curve" smooth="yes"/>
			<point x="155" y="-131"/>
			<point x="220" y="-50"/>
			<point x="258" y="3" type="curve" smooth="yes"/>
			<point x="311" y="75"/>
			<point x="344" y="131"/>
			<point x="376" y="187" type="curve" smooth="yes"/>
			<point x="400" y="228"/>
			<point x="427" y="273"/>
			<point x="452" y="319" type="curve" smooth="yes"/>
			<point x="470" y="354"/>
			<point x="486" y="392"/>
			<point x="486" y="421" type="curve" smooth="yes"/>
			<point x="486" y="452"/>
			<point x="467" y="474"/>
			<point x="435" y="474" type="curve" smooth="yes"/>
			<point x="384" y="474"/>
			<point x="369" y="436"/>
			<point x="353" y="347" type="curve" smooth="yes"/>
			<point x="333" y="238"/>
			<point x="301" y="98"/>
			<point x="245" y="25" type="curve" smooth="yes"/>
			<point x="205" y="-25"/>
			<point x="175" y="-70"/>
			<point x="128" y="-111" type="curve" smooth="yes"/>
			<point x="101" y="-140"/>
			<point x="65" y="-184"/>
			<point x="20" y="-208" type="curve"/>
			<point x="20" y="-216" type="line"/>
			<point x="38" y="-216" type="line"/>
			<point x="38" y="-207" type="line"/>
			<point x="19" y="-185" type="line" smooth="yes"/>
			<point x="-8" y="-152"/>
			<point x="-35" y="-128"/>
			<point x="-73" y="-128" type="curve" smooth="yes"/>
			<point x="-102" y="-128"/>
			<point x="-130" y="-144"/>
			<point x="-135" y="-176" type="curve"/>
			<point x="-126" y="-222"/>
			<point x="-83" y="-245"/>
		</contour>
		<contour>
			<point x="151" y="-94" type="curve"/>
			<point x="263" y="17" type="line"/>
			<point x="258" y="17" type="line"/>
			<point x="258" y="123"/>
			<point x="241" y="287"/>
			<point x="228" y="372" type="curve" smooth="yes"/>
			<point x="219" y="435"/>
			<point x="201" y="473"/>
			<point x="140" y="473" type="curve" smooth="yes"/>
			<point x="84" y="473"/>
			<point x="42" y="435"/>
			<point x="4" y="339" type="curve"/>
			<point x="21" y="328" type="line"/>
			<point x="44" y="369"/>
			<point x="63" y="392"/>
			<point x="79" y="392" type="curve" smooth="yes"/>
			<point x="88" y="392"/>
			<point x="95" y="385"/>
			<point x="101" y="348" type="curve" smooth="yes"/>
			<point x="120" y="240"/>
			<point x="141" y="81"/>
		</contour>
	</outline>
	<anchor name="aboveLC" x="288" y="478"/>
	<anchor name="belowLC" x="12" y="-258"/>
</glyph>
<glyph name="braceleft" format="2">
	<unicode hex="007B"/>
	<advance width="336"/>
	<outline>
		<contour>
			<point x="62" y="265" type="line"/>
			<point x="130" y="251"/>
			<point x="148" y="231"/>
			<point x="148" y="201" type="curve" smooth="yes"/>
			<point x="148" y="121"/>
			<point x="45" y="24"/>
			<point x="45" y="-70" type="curve" smooth="yes"/>
			<point x="45" y="-134"/>
			<point x="102" y="-162"/>
			<point x="198" y="-162" type="curve" smooth="yes"/>
			<point x="227" y="-162" type="line"/>
			<point x="232" y="-141" type="line"/>
			<point x="206" y="-137" type="line" smooth="yes"/>
			<point x="167" y="-132"/>
			<point x="155" y="-114"/>
			<point x="155" y="-85" type="curve" smooth="yes"/>
			<point x="155" y="-29"/>
			<point x="227" y="102"/>
			<point x="227" y="173" type="curve" smooth="yes"/>
			<point x="227" y="233"/>
			<point x="183" y="270"/>
			<point x="90" y="278" type="curve"/>
			<point x="88" y="273" type="line"/>
			<point x="241" y="285"/>
			<point x="277" y="347"/>
			<point x="277" y="470" type="curve" smooth="yes"/>
			<point x="277" y="489"/>
			<point x="276" y="521"/>
			<point x="276" y="538" type="curve" smooth="yes"/>
			<point x="276" y="620"/>
			<point x="286" y="679"/>
			<point x="359" y="688" type="curve" smooth="yes"/>
			<point x="386" y="691" type="line"/>
			<point x="389" y="713" type="line"/>
			<point x="360" y="713" type="line" smooth="yes"/>
			<point x="238" y="713"/>
			<point x="162" y="665"/>
			<point x="162" y="558" type="curve" smooth="yes"/>
			<point x="162" y="501"/>
			<point x="185" y="444"/>
			<point x="185" y="393" type="curve" smooth="yes"/>
			<point x="185" y="336"/>
			<point x="166" y="306"/>
			<point x="67" y="286" type="curve"/>
		</contour>
	</outline>
</glyph>
<glyph name="bar" format="2">
	<unicode hex="007C"/>
	<advance width="285"/>
	<outline>
		<contour>
			<point x="116" y="-252" type="line"/>
			<point x="179" y="-252" type="line"/>
			<point x="179" y="748" type="line"/>
			<point x="116" y="748" type="line"/>
		</contour>
	</outline>
</glyph>
<glyph name="asciitilde" format="2">
	<unicode hex="007E"/>
	<advance width="509"/>
	<outline>
		<contour>
			<point x="286" y="357" type="curve" smooth="yes"/>
			<point x="257" y="381"/>
			<point x="227" y="405"/>
			<point x="183" y="405" type="curve" smooth="yes"/>
			<point x="121" y="405"/>
			<point x="83" y="359"/>
			<point x="74" y="277" type="curve"/>
			<point x="110" y="271" type="line"/>
			<point x="120" y="341"/>
			<point x="146" y="361"/>
			<point x="179" y="361" type="curve" smooth="yes"/>
			<point x="211" y="361"/>
			<point x="235" y="340"/>
			<point x="262" y="317" type="curve" smooth="yes"/>
			<point x="291" y="293"/>
			<point x="321" y="268"/>
			<point x="365" y="268" type="curve" smooth="yes"/>
			<point x="427" y="268"/>
			<point x="465" y="314"/>
			<point x="474" y="396" type="curve"/>
			<point x="438" y="403" type="line"/>
			<point x="428" y="332"/>
			<point x="402" y="312"/>
			<point x="369" y="312" type="curve" smooth="yes"/>
			<point x="337" y="312"/>
			<point x="312" y="334"/>
		</contour>
	</outline>
</glyph>
<glyph name="sterling" format="2">
	<unicode hex="00A3"/>
	<advance width="509"/>
	<outline>
		<contour>
			<point x="10" y="0" type="line"/>
			<point x="425" y="0" type="line"/>
			<point x="446" y="105" type="line"/>
			<point x="80" y="105" type="line"/>
			<point x="70" y="90" type="line"/>
			<point x="171" y="125"/>
			<point x="262" y="189"/>
			<point x="262" y="306" type="curve" smooth="yes"/>
			<point x="262" y="347"/>
			<point x="243" y="396"/>
			<point x="243" y="477" type="curve" smooth="yes"/>
			<point x="243" y="556"/>
			<point x="286" y="620"/>
			<point x="371" y="620" type="curve" smooth="yes"/>
			<point x="393" y="620"/>
			<point x="418" y="615"/>
			<point x="443" y="604" type="curve"/>
			<point x="413" y="629" type="line"/>
			<point x="414" y="535" type="line" smooth="yes"/>
			<point x="414" y="481"/>
			<point x="436" y="467"/>
			<point x="467" y="467" type="curve" smooth="yes"/>
			<point x="493" y="467"/>
			<point x="512" y="481"/>
			<point x="520" y="507" type="curve"/>
			<point x="519" y="600"/>
			<point x="459" y="645"/>
			<point x="357" y="645" type="curve" smooth="yes"/>
			<point x="215" y="645"/>
			<point x="115" y="580"/>
			<point x="115" y="450" type="curve" smooth="yes"/>
			<point x="115" y="386"/>
			<point x="149" y="325"/>
			<point x="149" y="267" type="curve" smooth="yes"/>
			<point x="149" y="193"/>
			<point x="110" y="126"/>
			<point x="24" y="76" type="curve"/>
		</contour>
		<contour>
			<point x="69" y="306" type="line"/>
			<point x="411" y="306" type="line"/>
			<point x="416" y="332" type="line"/>
			<point x="75" y="332" type="line"/>
		</contour>
	</outline>
</glyph>
<glyph name="copyright" format="2">
	<unicode hex="00A9"/>
	<advance width="744"/>
	<outline>
		<contour>
			<point x="347" y="-16" type="curve" smooth="yes"/>
			<point x="545" y="-16"/>
			<point x="736" y="140"/>
			<point x="736" y="386" type="curve" smooth="yes"/>
			<point x="736" y="562"/>
			<point x="605" y="673"/>
			<point x="439" y="673" type="curve" smooth="yes"/>
			<point x="241" y="673"/>
			<point x="49" y="519"/>
			<point x="49" y="273" type="curve" smooth="yes"/>
			<point x="49" y="96"/>
			<point x="181" y="-16"/>
		</contour>
		<contour>
			<point x="351" y="17" type="curve" smooth="yes"/>
			<point x="204" y="17"/>
			<point x="91" y="115"/>
			<point x="91" y="273" type="curve" smooth="yes"/>
			<point x="91" y="496"/>
			<point x="259" y="640"/>
			<point x="435" y="640" type="curve" smooth="yes"/>
			<point x="581" y="640"/>
			<point x="695" y="543"/>
			<point x="695" y="385" type="curve" smooth="yes"/>
			<point x="695" y="162"/>
			<point x="527" y="17"/>
		</contour>
		<contour>
			<point x="381" y="130" type="curve" smooth="yes"/>
			<point x="417" y="130"/>
			<point x="455" y="140"/>
			<point x="484" y="154" type="curve"/>
			<point x="506" y="260" type="line"/>
			<point x="491" y="260" type="line"/>
			<point x="423" y="147" type="line"/>
			<point x="446" y="161" type="line"/>
			<point x="427" y="153"/>
			<point x="409" y="149"/>
			<point x="387" y="149" type="curve" smooth="yes"/>
			<point x="334" y="149"/>
			<point x="310" y="210"/>
			<point x="310" y="280" type="curve" smooth="yes"/>
			<point x="310" y="395"/>
			<point x="362" y="520"/>
			<point x="447" y="520" type="curve" smooth="yes"/>
			<point x="466" y="520"/>
			<point x="482" y="516"/>
			<point x="498" y="507" type="curve"/>
			<point x="483" y="522" type="line"/>
			<point x="516" y="411" type="line"/>
			<point x="531" y="411" type="line"/>
			<point x="543" y="514" type="line"/>
			<point x="516" y="528"/>
			<point x="480" y="538"/>
			<point x="443" y="538" type="curve" smooth="yes"/>
			<point x="294" y="538"/>
			<point x="206" y="414"/>
			<point x="206" y="292" type="curve" smooth="yes"/>
			<point x="206" y="200"/>
			<point x="259" y="130"/>
		</contour>
	</outline>
</glyph>
<glyph name="logicalnot" format="2">
	<unicode hex="00AC"/>
	<advance width="509"/>
	<outline>
		<contour>
			<point x="50" y="341" type="line"/>
			<point x="472" y="341" type="line"/>
			<point x="445" y="373" type="line"/>
			<point x="445" y="166" type="line"/>
			<point x="490" y="166" type="line"/>
			<point x="490" y="385" type="line"/>
			<point x="50" y="385" type="line"/>
		</contour>
	</outline>
</glyph>
<glyph name="plusminus" format="2">
	<unicode hex="00B1"/>
	<advance width="509"/>
	<outline>
		<contour>
			<point x="247" y="123" type="line"/>
			<point x="293" y="123" type="line"/>
			<point x="293" y="556" type="line"/>
			<point x="247" y="556" type="line"/>
		</contour>
		<contour>
			<point x="490" y="322" type="line"/>
			<point x="490" y="365" type="line"/>
			<point x="50" y="365" type="line"/>
			<point x="50" y="322" type="line"/>
		</contour>
		<contour>
			<point x="490" y="0" type="line"/>
			<point x="490" y="44" type="line"/>
			<point x="50" y="44" type="line"/>
			<point x="50" y="0" type="line"/>
		</contour>
	</outline>
</glyph>
<glyph name="three.sups" format="2">
	<unicode hex="00B3"/>
	<advance width="361"/>
	<outline>
		<contour>
			<point x="210" y="408" type="curve" smooth="yes"/>
			<point x="338" y="408"/>
			<point x="399" y="464"/>
			<point x="399" y="532" type="curve" smooth="yes"/>
			<point x="399" y="593"/>
			<point x="339" y="628"/>
			<point x="255" y="628" type="curve"/>
			<point x="253" y="624" type="line"/>
			<point x="361" y="624"/>
			<point x="426" y="673"/>
			<point x="426" y="736" type="curve" smooth="yes"/>
			<point x="426" y="787"/>
			<point x="379" y="831"/>
			<point x="282" y="831" type="curve" smooth="yes"/>
			<point x="213" y="831"/>
			<point x="150" y="801"/>
			<point x="144" y="741" type="curve"/>
			<point x="148" y="721"/>
			<point x="165" y="714"/>
			<point x="179" y="714" type="curve" smooth="yes"/>
			<point x="203" y="714"/>
			<point x="218" y="724"/>
			<point x="225" y="764" type="curve" smooth="yes"/>
			<point x="235" y="820" type="line"/>
			<point x="200" y="799" type="line"/>
			<point x="225" y="812"/>
			<point x="241" y="813"/>
			<point x="261" y="813" type="curve" smooth="yes"/>
			<point x="307" y="813"/>
			<point x="328" y="780"/>
			<point x="328" y="740" type="curve" smooth="yes"/>
			<point x="328" y="687"/>
			<point x="301" y="637"/>
			<point x="204" y="637" type="curve"/>
			<point x="199" y="615" type="line"/>
			<point x="268" y="615"/>
			<point x="292" y="580"/>
			<point x="292" y="531" type="curve" smooth="yes"/>
			<point x="292" y="481"/>
			<point x="260" y="426"/>
			<point x="198" y="426" type="curve" smooth="yes"/>
			<point x="187" y="426"/>
			<point x="170" y="427"/>
			<point x="155" y="435" type="curve"/>
			<point x="172" y="419" type="line"/>
			<point x="171" y="483" type="line" smooth="yes"/>
			<point x="170" y="522"/>
			<point x="152" y="534"/>
			<point x="128" y="534" type="curve" smooth="yes"/>
			<point x="111" y="534"/>
			<point x="96" y="524"/>
			<point x="89" y="506" type="curve"/>
			<point x="91" y="441"/>
			<point x="141" y="408"/>
		</contour>
	</outline>
</glyph>
<glyph name="paragraph" format="2">
	<unicode hex="00B6"/>
	<advance width="591"/>
	<outline>
		<contour>
			<point x="509" y="657" type="line"/>
			<point x="502" y="620" type="line"/>
			<point x="539" y="620" type="line"/>
			<point x="650" y="635" type="line"/>
			<point x="654" y="657" type="line"/>
		</contour>
		<contour>
			<point x="326" y="-117" type="line"/>
			<point x="442" y="-117" type="line"/>
			<point x="452" y="-39"/>
			<point x="475" y="89"/>
			<point x="495" y="193" type="curve" smooth="yes"/>
			<point x="582" y="657" type="line"/>
			<point x="468" y="657" type="line"/>
		</contour>
		<contour>
			<point x="394" y="630" type="line"/>
			<point x="533" y="630" type="line"/>
			<point x="538" y="657" type="line"/>
			<point x="414" y="657" type="line" smooth="yes"/>
			<point x="212" y="657"/>
			<point x="53" y="535"/>
			<point x="53" y="328" type="curve" smooth="yes"/>
			<point x="53" y="187"/>
			<point x="159" y="121"/>
			<point x="300" y="119" type="curve"/>
		</contour>
	</outline>
</glyph>
<glyph name="Oslash" format="2">
	<unicode hex="00D8"/>
	<advance width="633"/>
	<outline>
		<contour>
			<point x="659" y="663" type="line"/>
			<point x="641" y="679" type="line"/>
			<point x="16" y="-4" type="line"/>
			<point x="33" y="-21" type="line"/>
		</contour>
		<contour>
			<point x="279" y="-16" type="curve" smooth="yes"/>
			<point x="491" y="-16"/>
			<point x="629" y="214"/>
			<point x="629" y="431" type="curve" smooth="yes"/>
			<point x="629" y="599"/>
			<point x="522" y="673"/>
			<point x="396" y="673" type="curve" smooth="yes"/>
			<point x="184" y="673"/>
			<point x="46" y="443"/>
			<point x="46" y="225" type="curve" smooth="yes"/>
			<point x="46" y="58"/>
			<point x="152" y="-16"/>
		</contour>
		<contour>
			<point x="279" y="10" type="curve" smooth="yes"/>
			<point x="212" y="10"/>
			<point x="180" y="65"/>
			<point x="180" y="160" type="curve" smooth="yes"/>
			<point x="180" y="342"/>
			<point x="266" y="647"/>
			<point x="396" y="647" type="curve" smooth="yes"/>
			<point x="462" y="647"/>
			<point x="494" y="593"/>
			<point x="494" y="498" type="curve" smooth="yes"/>
			<point x="494" y="315"/>
			<point x="409" y="10"/>
		</contour>
	</outline>
	<anchor name="aboveUC" x="384" y="677"/>
</glyph>
<glyph name="Thorn" format="2">
	<unicode hex="00DE"/>
	<advance width="526"/>
	<outline>
		<contour>
			<point x="131" y="161" type="line"/>
			<point x="241" y="161" type="line" smooth="yes"/>
			<point x="448" y="161"/>
			<point x="530" y="253"/>
			<point x="530" y="377" type="curve" smooth="yes"/>
			<point x="530" y="472"/>
			<point x="459" y="529"/>
			<point x="300" y="529" type="curve" smooth="yes"/>
			<point x="199" y="529" type="line"/>
			<point x="192" y="503" type="line"/>
			<point x="294" y="503" type="line" smooth="yes"/>
			<point x="361" y="503"/>
			<point x="398" y="454"/>
			<point x="398" y="379" type="curve" smooth="yes"/>
			<point x="398" y="263"/>
			<point x="330" y="188"/>
			<point x="242" y="188" type="curve" smooth="yes"/>
			<point x="137" y="188" type="line"/>
		</contour>
		<contour>
			<point x="-7" y="0" type="line"/>
			<point x="256" y="0" type="line"/>
			<point x="260" y="22" type="line"/>
			<point x="162" y="37" type="line"/>
			<point x="100" y="37" type="line"/>
			<point x="-2" y="22" type="line"/>
		</contour>
		<contour>
			<point x="56" y="0" type="line"/>
			<point x="194" y="0" type="line"/>
			<point x="210" y="102"/>
			<point x="226" y="207"/>
			<point x="246" y="311" type="curve" smooth="yes"/>
			<point x="312" y="657" type="line"/>
			<point x="174" y="657" type="line"/>
			<point x="159" y="555"/>
			<point x="142" y="449"/>
			<point x="123" y="345" type="curve" smooth="yes"/>
		</contour>
		<contour>
			<point x="108" y="635" type="line"/>
			<point x="207" y="621" type="line"/>
			<point x="268" y="621" type="line"/>
			<point x="372" y="635" type="line"/>
			<point x="376" y="657" type="line"/>
			<point x="113" y="657" type="line"/>
		</contour>
	</outline>
</glyph>
<glyph name="eogonek" format="2">
	<unicode hex="0119"/>
	<advance width="417"/>
	<outline>
		<contour>
			<point x="207" y="-229" type="curve" smooth="yes"/>
			<point x="246" y="-229"/>
			<point x="279" y="-211"/>
			<point x="304" y="-186" type="curve"/>
			<point x="294" y="-166" type="line"/>
			<point x="282" y="-170"/>
			<point x="271" y="-173"/>
			<point x="259" y="-173" type="curve" smooth="yes"/>
			<point x="223" y="-173"/>
			<point x="201" y="-151"/>
			<point x="201" y="-115" type="curve" smooth="yes"/>
			<point x="201" y="-72"/>
			<point x="231" y="-32"/>
			<point x="299" y="19" type="curve" smooth="yes"/>
			<point x="333" y="45"/>
			<point x="360" y="81"/>
			<point x="382" y="127" type="curve"/>
			<point x="366" y="137" type="line"/>
			<point x="336" y="100"/>
			<point x="290" y="74"/>
			<point x="247" y="74" type="curve" smooth="yes"/>
			<point x="191" y="74"/>
			<point x="143" y="112"/>
			<point x="143" y="190" type="curve" smooth="yes"/>
			<point x="143" y="339"/>
			<point x="226" y="444"/>
			<point x="275" y="444" type="curve" smooth="yes"/>
			<point x="296" y="444"/>
			<point x="311" y="430"/>
			<point x="311" y="397" type="curve" smooth="yes"/>
			<point x="311" y="318"/>
			<point x="266" y="251"/>
			<point x="88" y="204" type="curve"/>
			<point x="89" y="185" type="line"/>
			<point x="314" y="235"/>
			<point x="415" y="296"/>
			<point x="415" y="385" type="curve" smooth="yes"/>
			<point x="415" y="438"/>
			<point x="371" y="473"/>
			<point x="298" y="473" type="curve" smooth="yes"/>
			<point x="141" y="473"/>
			<point x="20" y="315"/>
			<point x="20" y="159" type="curve" smooth="yes"/>
			<point x="20" y="46"/>
			<point x="88" y="-15"/>
			<point x="179" y="-15" type="curve" smooth="yes"/>
			<point x="200" y="-15"/>
			<point x="223" y="-12"/>
			<point x="240" y="-6" type="curve"/>
			<point x="240" y="-7" type="line"/>
			<point x="175" y="-44"/>
			<point x="123" y="-89"/>
			<point x="123" y="-152" type="curve" smooth="yes"/>
			<point x="123" y="-197"/>
			<point x="155" y="-229"/>
		</contour>
	</outline>
	<anchor name="aboveLC" x="292" y="478"/>
</glyph>
<glyph name="kgreenlandic" format="2">
	<unicode hex="0138"/>
	<advance width="508"/>
	<outline>
		<contour>
			<point x="44" y="-8" type="line"/>
			<point x="163" y="0" type="line"/>
			<point x="169" y="68"/>
			<point x="182" y="138"/>
			<point x="196" y="204" type="curve" smooth="yes"/>
			<point x="225" y="341" type="line"/>
			<point x="250" y="462" type="line"/>
			<point x="236" y="473" type="line"/>
			<point x="47" y="421" type="line"/>
			<point x="43" y="404" type="line"/>
			<point x="129" y="382" type="line"/>
			<point x="113" y="395" type="line"/>
			<point x="30" y="3" type="line"/>
		</contour>
		<contour>
			<point x="388" y="-15" type="curve" smooth="yes"/>
			<point x="420" y="-15"/>
			<point x="452" y="-8"/>
			<point x="476" y="1" type="curve"/>
			<point x="480" y="19" type="line"/>
			<point x="455" y="23" type="line" smooth="yes"/>
			<point x="428" y="27"/>
			<point x="417" y="49"/>
			<point x="402" y="85" type="curve" smooth="yes"/>
			<point x="381" y="134" type="line" smooth="yes"/>
			<point x="357" y="193"/>
			<point x="314" y="221"/>
			<point x="254" y="227" type="curve" smooth="yes"/>
			<point x="202" y="232" type="line"/>
			<point x="197" y="222" type="line"/>
			<point x="405" y="325" type="line" smooth="yes"/>
			<point x="463" y="350"/>
			<point x="493" y="367"/>
			<point x="493" y="406" type="curve" smooth="yes"/>
			<point x="493" y="441"/>
			<point x="467" y="464"/>
			<point x="430" y="470" type="curve"/>
			<point x="188" y="229" type="line"/>
			<point x="184" y="219" type="line"/>
			<point x="197" y="215" type="line" smooth="yes"/>
			<point x="224" y="204"/>
			<point x="239" y="190"/>
			<point x="254" y="143" type="curve" smooth="yes"/>
			<point x="274" y="76" type="line" smooth="yes"/>
			<point x="296" y="5"/>
			<point x="323" y="-15"/>
		</contour>
	</outline>
</glyph>
<glyph name="lslash" format="2">
	<unicode hex="0142"/>
	<advance width="284"/>
	<outline>
		<contour>
			<point x="215" y="402" type="line"/>
			<point x="26" y="306" type="line"/>
			<point x="21" y="278" type="line"/>
			<point x="210" y="374" type="line"/>
		</contour>
		<contour>
			<point x="301" y="435" type="line"/>
			<point x="111" y="339" type="line"/>
			<point x="106" y="311" type="line"/>
			<point x="295" y="407" type="line"/>
		</contour>
		<component base="l"/>
	</outline>
</glyph>
<glyph name="Eng" format="2">
	<unicode hex="014A"/>
	<advance width="605"/>
	<outline>
		<contour>
			<point x="-18" y="0" type="line"/>
			<point x="163" y="0" type="line"/>
			<point x="168" y="22" type="line"/>
			<point x="86" y="32" type="line"/>
			<point x="63" y="32" type="line"/>
			<point x="-14" y="22" type="line"/>
		</contour>
		<contour>
			<point x="53" y="0" type="line"/>
			<point x="84" y="0" type="line"/>
			<point x="145" y="329" type="line"/>
			<point x="204" y="645" type="line"/>
			<point x="173" y="645" type="line"/>
		</contour>
		<contour>
			<point x="257" y="-147" type="curve" smooth="yes"/>
			<point x="308" y="-147"/>
			<point x="364" y="-127"/>
			<point x="417" y="-68" type="curve" smooth="yes"/>
			<point x="475" y="-5"/>
			<point x="499" y="54"/>
			<point x="520" y="172" type="curve" smooth="yes"/>
			<point x="605" y="657" type="line"/>
			<point x="576" y="657" type="line"/>
			<point x="518" y="329" type="line"/>
			<point x="488" y="153" type="line" smooth="yes"/>
			<point x="467" y="28"/>
			<point x="419" y="-49"/>
			<point x="330" y="-105" type="curve"/>
			<point x="330" y="-119" type="line"/>
			<point x="347" y="-119" type="line"/>
			<point x="347" y="-104" type="line"/>
			<point x="312" y="-69" type="line" smooth="yes"/>
			<point x="286" y="-44"/>
			<point x="267" y="-33"/>
			<point x="237" y="-33" type="curve" smooth="yes"/>
			<point x="209" y="-33"/>
			<point x="173" y="-54"/>
			<point x="164" y="-85" type="curve"/>
			<point x="173" y="-129"/>
			<point x="208" y="-147"/>
		</contour>
		<contour>
			<point x="438" y="-2" type="line"/>
			<point x="462" y="-2" type="line"/>
			<point x="514" y="195" type="line"/>
			<point x="502" y="195" type="line"/>
			<point x="287" y="657" type="line"/>
			<point x="102" y="657" type="line"/>
			<point x="98" y="635" type="line"/>
			<point x="148" y="628" type="line"/>
			<point x="171" y="579" type="line"/>
			<point x="174" y="573" type="line"/>
		</contour>
		<contour>
			<point x="573" y="625" type="line"/>
			<point x="596" y="625" type="line"/>
			<point x="666" y="635" type="line"/>
			<point x="671" y="657" type="line"/>
			<point x="490" y="657" type="line"/>
			<point x="486" y="635" type="line"/>
		</contour>
	</outline>
</glyph>
<glyph name="eng" format="2">
	<unicode hex="014B"/>
	<advance width="552"/>
	<outline>
		<contour>
			<point x="44" y="-8" type="line"/>
			<point x="165" y="0" type="line"/>
			<point x="171" y="68"/>
			<point x="183" y="138"/>
			<point x="197" y="204" type="curve" smooth="yes"/>
			<point x="227" y="347" type="line"/>
			<point x="229" y="356" type="line"/>
			<point x="250" y="462" type="line"/>
			<point x="236" y="473" type="line"/>
			<point x="47" y="421" type="line"/>
			<point x="43" y="404" type="line"/>
			<point x="129" y="382" type="line"/>
			<point x="113" y="395" type="line"/>
			<point x="30" y="3" type="line"/>
		</contour>
		<contour>
			<point x="176" y="-245" type="line"/>
			<point x="257" y="-234"/>
			<point x="299" y="-210"/>
			<point x="334" y="-167" type="curve" smooth="yes"/>
			<point x="378" y="-119"/>
			<point x="401" y="-48"/>
			<point x="419" y="39" type="curve" smooth="yes"/>
			<point x="476" y="304" type="line" smooth="yes"/>
			<point x="483" y="334"/>
			<point x="488" y="365"/>
			<point x="488" y="395" type="curve" smooth="yes"/>
			<point x="488" y="447"/>
			<point x="459" y="473"/>
			<point x="416" y="473" type="curve" smooth="yes"/>
			<point x="345" y="473"/>
			<point x="281" y="420"/>
			<point x="210" y="342" type="curve"/>
			<point x="203" y="342" type="line"/>
			<point x="216" y="325" type="line"/>
			<point x="264" y="370"/>
			<point x="304" y="392"/>
			<point x="332" y="392" type="curve" smooth="yes"/>
			<point x="349" y="392"/>
			<point x="359" y="382"/>
			<point x="359" y="363" type="curve" smooth="yes"/>
			<point x="359" y="348"/>
			<point x="354" y="317"/>
			<point x="348" y="288" type="curve" smooth="yes"/>
			<point x="293" y="26" type="line" smooth="yes"/>
			<point x="274" y="-65"/>
			<point x="261" y="-129"/>
			<point x="233" y="-170" type="curve" smooth="yes"/>
			<point x="217" y="-196"/>
			<point x="200" y="-212"/>
			<point x="171" y="-226" type="curve"/>
		</contour>
	</outline>
</glyph>
<glyph name="Uogonek" format="2">
	<unicode hex="0172"/>
	<advance width="607"/>
	<outline>
		<contour>
			<point x="197" y="621" type="line"/>
			<point x="258" y="621" type="line"/>
			<point x="362" y="635" type="line"/>
			<point x="366" y="657" type="line"/>
			<point x="105" y="657" type="line"/>
			<point x="101" y="635" type="line"/>
		</contour>
		<contour>
			<point x="325" y="-229" type="curve" smooth="yes"/>
			<point x="363" y="-229"/>
			<point x="396" y="-211"/>
			<point x="422" y="-186" type="curve"/>
			<point x="412" y="-166" type="line"/>
			<point x="400" y="-170"/>
			<point x="389" y="-173"/>
			<point x="378" y="-173" type="curve" smooth="yes"/>
			<point x="339" y="-173"/>
			<point x="319" y="-154"/>
			<point x="319" y="-112" type="curve" smooth="yes"/>
			<point x="319" y="-72"/>
			<point x="349" y="-30"/>
			<point x="416" y="21" type="curve" smooth="yes"/>
			<point x="474" y="62"/>
			<point x="511" y="139"/>
			<point x="534" y="263" type="curve" smooth="yes"/>
			<point x="608" y="657" type="line"/>
			<point x="577" y="657" type="line"/>
			<point x="502" y="255" type="line" smooth="yes"/>
			<point x="473" y="101"/>
			<point x="418" y="55"/>
			<point x="338" y="55" type="curve" smooth="yes"/>
			<point x="265" y="55"/>
			<point x="220" y="90"/>
			<point x="220" y="181" type="curve" smooth="yes"/>
			<point x="220" y="205"/>
			<point x="225" y="237"/>
			<point x="231" y="271" type="curve" smooth="yes"/>
			<point x="299" y="657" type="line"/>
			<point x="165" y="657" type="line"/>
			<point x="149" y="555"/>
			<point x="133" y="451"/>
			<point x="113" y="341" type="curve" smooth="yes"/>
			<point x="99" y="268" type="line" smooth="yes"/>
			<point x="92" y="231"/>
			<point x="88" y="195"/>
			<point x="88" y="167" type="curve" smooth="yes"/>
			<point x="88" y="25"/>
			<point x="175" y="-16"/>
			<point x="278" y="-16" type="curve" smooth="yes"/>
			<point x="305" y="-16"/>
			<point x="332" y="-13"/>
			<point x="355" y="-6" type="curve"/>
			<point x="355" y="-7" type="line"/>
			<point x="291" y="-43"/>
			<point x="241" y="-90"/>
			<point x="241" y="-152" type="curve" smooth="yes"/>
			<point x="241" y="-197"/>
			<point x="273" y="-229"/>
		</contour>
		<contour>
			<point x="578" y="625" type="line"/>
			<point x="594" y="625" type="line"/>
			<point x="668" y="635" type="line"/>
			<point x="672" y="657" type="line"/>
			<point x="506" y="657" type="line"/>
			<point x="502" y="635" type="line"/>
		</contour>
	</outline>
	<anchor name="aboveUC" x="421" y="677"/>
</glyph>
<glyph name="longs" format="2">
	<unicode hex="017F"/>
	<advance width="318"/>
	<outline>
		<contour>
			<point x="-68" y="-245" type="curve" smooth="yes"/>
			<point x="-2" y="-245"/>
			<point x="53" y="-210"/>
			<point x="95" y="-157" type="curve" smooth="yes"/>
			<point x="141" y="-99"/>
			<point x="170" y="-20"/>
			<point x="181" y="54" type="curve" smooth="yes"/>
			<point x="205" y="204"/>
			<point x="229" y="358"/>
			<point x="252" y="508" type="curve" smooth="yes"/>
			<point x="270" y="623"/>
			<point x="291" y="685"/>
			<point x="327" y="715" type="curve"/>
			<point x="327" y="719" type="line"/>
			<point x="311" y="719" type="line"/>
			<point x="311" y="714" type="line"/>
			<point x="347" y="664" type="line" smooth="yes"/>
			<point x="370" y="633"/>
			<point x="391" y="611"/>
			<point x="424" y="611" type="curve" smooth="yes"/>
			<point x="454" y="611"/>
			<point x="478" y="630"/>
			<point x="480" y="665" type="curve"/>
			<point x="469" y="714"/>
			<point x="410" y="740"/>
			<point x="354" y="740" type="curve" smooth="yes"/>
			<point x="233" y="740"/>
			<point x="144" y="640"/>
			<point x="116" y="452" type="curve" smooth="yes"/>
			<point x="96" y="314"/>
			<point x="76" y="176"/>
			<point x="56" y="39" type="curve" smooth="yes"/>
			<point x="48" y="-13"/>
			<point x="38" y="-80"/>
			<point x="18" y="-135" type="curve" smooth="yes"/>
			<point x="5" y="-167"/>
			<point x="-9" y="-196"/>
			<point x="-28" y="-214" type="curve"/>
			<point x="-28" y="-218" type="line"/>
			<point x="-11" y="-218" type="line"/>
			<point x="-11" y="-214" type="line"/>
			<point x="-31" y="-186" type="line" smooth="yes"/>
			<point x="-54" y="-152"/>
			<point x="-77" y="-133"/>
			<point x="-114" y="-133" type="curve" smooth="yes"/>
			<point x="-142" y="-133"/>
			<point x="-169" y="-148"/>
			<point x="-173" y="-179" type="curve"/>
			<point x="-165" y="-224"/>
			<point x="-128" y="-245"/>
		</contour>
	</outline>
</glyph>
<glyph name="Schwa" format="2">
	<unicode hex="018F"/>
	<advance width="577"/>
	<outline>
		<contour>
			<point x="243" y="-16" type="curve" smooth="yes"/>
			<point x="441" y="-16"/>
			<point x="570" y="217"/>
			<point x="570" y="414" type="curve" smooth="yes"/>
			<point x="570" y="583"/>
			<point x="485" y="673"/>
			<point x="348" y="673" type="curve" smooth="yes"/>
			<point x="255" y="673"/>
			<point x="191" y="637"/>
			<point x="127" y="565" type="curve"/>
			<point x="136" y="551" type="line"/>
			<point x="197" y="598"/>
			<point x="251" y="617"/>
			<point x="307" y="617" type="curve" smooth="yes"/>
			<point x="386" y="617"/>
			<point x="436" y="564"/>
			<point x="436" y="435" type="curve" smooth="yes"/>
			<point x="436" y="269"/>
			<point x="355" y="10"/>
			<point x="246" y="10" type="curve" smooth="yes"/>
			<point x="182" y="10"/>
			<point x="155" y="58"/>
			<point x="155" y="147" type="curve" smooth="yes"/>
			<point x="155" y="200"/>
			<point x="165" y="269"/>
			<point x="184" y="323" type="curve"/>
			<point x="451" y="323" type="line"/>
			<point x="456" y="351" type="line"/>
			<point x="66" y="351" type="line"/>
			<point x="47" y="302"/>
			<point x="36" y="247"/>
			<point x="36" y="196" type="curve" smooth="yes"/>
			<point x="36" y="76"/>
			<point x="99" y="-16"/>
		</contour>
	</outline>
	<anchor name="aboveUC" x="346" y="677"/>
	<anchor name="belowLC" x="248" y="-20"/>
</glyph>
<glyph name="florin" format="2">
	<unicode hex="0192"/>
	<advance width="509"/>
	<outline>
		<contour>
			<point x="118" y="354" type="line"/>
			<point x="433" y="354" type="line"/>
			<point x="438" y="380" type="line"/>
			<point x="124" y="380" type="line"/>
		</contour>
		<contour>
			<point x="50" y="-106" type="curve" smooth="yes"/>
			<point x="98" y="-106"/>
			<point x="147" y="-90"/>
			<point x="181" y="-61" type="curve" smooth="yes"/>
			<point x="242" y="-6"/>
			<point x="272" y="82"/>
			<point x="292" y="181" type="curve" smooth="yes"/>
			<point x="327" y="361" type="line" smooth="yes"/>
			<point x="349" y="471"/>
			<point x="364" y="544"/>
			<point x="387" y="582" type="curve" smooth="yes"/>
			<point x="404" y="612"/>
			<point x="425" y="626"/>
			<point x="457" y="631" type="curve"/>
			<point x="438" y="633" type="line"/>
			<point x="414" y="634" type="line"/>
			<point x="437" y="593" type="line" smooth="yes"/>
			<point x="460" y="551"/>
			<point x="480" y="538"/>
			<point x="508" y="538" type="curve" smooth="yes"/>
			<point x="535" y="538"/>
			<point x="560" y="552"/>
			<point x="565" y="584" type="curve"/>
			<point x="557" y="623"/>
			<point x="509" y="645"/>
			<point x="450" y="645" type="curve" smooth="yes"/>
			<point x="403" y="645"/>
			<point x="350" y="630"/>
			<point x="316" y="600" type="curve" smooth="yes"/>
			<point x="255" y="546"/>
			<point x="225" y="458"/>
			<point x="206" y="358" type="curve" smooth="yes"/>
			<point x="170" y="179" type="line" smooth="yes"/>
			<point x="149" y="69"/>
			<point x="134" y="-4"/>
			<point x="110" y="-43" type="curve" smooth="yes"/>
			<point x="94" y="-72"/>
			<point x="72" y="-86"/>
			<point x="41" y="-92" type="curve"/>
			<point x="68" y="-94" type="line"/>
			<point x="83" y="-95" type="line"/>
			<point x="60" y="-53" type="line" smooth="yes"/>
			<point x="37" y="-11"/>
			<point x="17" y="2"/>
			<point x="-11" y="2" type="curve" smooth="yes"/>
			<point x="-38" y="2"/>
			<point x="-63" y="-12"/>
			<point x="-67" y="-45" type="curve"/>
			<point x="-60" y="-83"/>
			<point x="-9" y="-106"/>
		</contour>
	</outline>
</glyph>
<glyph name="uhorn" format="2">
	<unicode hex="01B0"/>
	<advance width="544"/>
	<outline>
		<contour>
			<point x="117" y="-15" type="curve" smooth="yes"/>
			<point x="184" y="-15"/>
			<point x="247" y="33"/>
			<point x="313" y="104" type="curve"/>
			<point x="329" y="104" type="line"/>
			<point x="317" y="132" type="line"/>
			<point x="269" y="87"/>
			<point x="229" y="66"/>
			<point x="201" y="66" type="curve" smooth="yes"/>
			<point x="184" y="66"/>
			<point x="174" y="76"/>
			<point x="174" y="95" type="curve" smooth="yes"/>
			<point x="174" y="109"/>
			<point x="181" y="141"/>
			<point x="188" y="170" type="curve" smooth="yes"/>
			<point x="251" y="462" type="line"/>
			<point x="238" y="473" type="line"/>
			<point x="46" y="421" type="line"/>
			<point x="42" y="404" type="line"/>
			<point x="129" y="382" type="line"/>
			<point x="112" y="395" type="line"/>
			<point x="58" y="153" type="line" smooth="yes"/>
			<point x="51" y="123"/>
			<point x="44" y="93"/>
			<point x="44" y="63" type="curve" smooth="yes"/>
			<point x="44" y="11"/>
			<point x="74" y="-15"/>
		</contour>
		<contour>
			<point x="363" y="-15" type="curve" smooth="yes"/>
			<point x="438" y="-15"/>
			<point x="493" y="46"/>
			<point x="525" y="104" type="curve"/>
			<point x="508" y="116" type="line"/>
			<point x="479" y="79"/>
			<point x="455" y="63"/>
			<point x="440" y="63" type="curve" smooth="yes"/>
			<point x="432" y="63"/>
			<point x="426" y="66"/>
			<point x="426" y="77" type="curve" smooth="yes"/>
			<point x="426" y="88"/>
			<point x="429" y="102"/>
			<point x="433" y="123" type="curve" smooth="yes"/>
			<point x="504" y="462" type="line"/>
			<point x="447" y="437" type="line"/>
			<point x="536" y="452"/>
			<point x="599" y="499"/>
			<point x="599" y="577" type="curve" smooth="yes"/>
			<point x="599" y="591"/>
			<point x="594" y="607"/>
			<point x="590" y="616" type="curve"/>
			<point x="580" y="625"/>
			<point x="569" y="629"/>
			<point x="554" y="629" type="curve" smooth="yes"/>
			<point x="528" y="629"/>
			<point x="511" y="611"/>
			<point x="511" y="582" type="curve" smooth="yes"/>
			<point x="511" y="558"/>
			<point x="529" y="539"/>
			<point x="529" y="517" type="curve" smooth="yes"/>
			<point x="529" y="485"/>
			<point x="492" y="471"/>
			<point x="448" y="460" type="curve" smooth="yes"/>
			<point x="366" y="437" type="line"/>
			<point x="361" y="374"/>
			<point x="350" y="319"/>
			<point x="336" y="253" type="curve" smooth="yes"/>
			<point x="305" y="112" type="line"/>
			<point x="304" y="104" type="line"/>
			<point x="298" y="78"/>
			<point x="296" y="60"/>
			<point x="296" y="46" type="curve" smooth="yes"/>
			<point x="296" y="9"/>
			<point x="322" y="-15"/>
		</contour>
	</outline>
	<anchor name="aboveLC" x="310" y="478"/>
	<anchor name="belowLC" x="247" y="-20"/>
</glyph>
<glyph name="dotlessj" format="2">
	<unicode hex="0237"/>
	<advance width="276"/>
	<outline>
		<contour>
			<point x="-83" y="-245" type="line"/>
			<point x="-5" y="-236"/>
			<point x="42" y="-208"/>
			<point x="76" y="-167" type="curve" smooth="yes"/>
			<point x="120" y="-119"/>
			<point x="143" y="-48"/>
			<point x="161" y="39" type="curve" smooth="yes"/>
			<point x="250" y="462" type="line"/>
			<point x="236" y="473" type="line"/>
			<point x="46" y="421" type="line"/>
			<point x="43" y="404" type="line"/>
			<point x="127" y="382" type="line"/>
			<point x="110" y="395" type="line"/>
			<point x="35" y="26" type="line" smooth="yes"/>
			<point x="16" y="-65"/>
			<point x="3" y="-129"/>
			<point x="-25" y="-170" type="curve" smooth="yes"/>
			<point x="-41" y="-195"/>
			<point x="-59" y="-214"/>
			<point x="-88" y="-226" type="curve"/>
		</contour>
	</outline>
	<anchor name="aboveLC" x="181" y="478"/>
	<anchor name="belowLC" x="1" y="-265"/>
</glyph>
<glyph name="schwa" format="2">
	<unicode hex="0259"/>
	<advance width="418"/>
	<outline>
		<contour>
			<point x="120" y="-15" type="curve" smooth="yes"/>
			<point x="277" y="-15"/>
			<point x="398" y="142"/>
			<point x="398" y="299" type="curve" smooth="yes"/>
			<point x="398" y="412"/>
			<point x="329" y="473"/>
			<point x="239" y="473" type="curve" smooth="yes"/>
			<point x="134" y="473"/>
			<point x="77" y="418"/>
			<point x="36" y="330" type="curve"/>
			<point x="51" y="320" type="line"/>
			<point x="82" y="358"/>
			<point x="128" y="384"/>
			<point x="171" y="384" type="curve" smooth="yes"/>
			<point x="227" y="384"/>
			<point x="274" y="346"/>
			<point x="274" y="268" type="curve" smooth="yes"/>
			<point x="274" y="119"/>
			<point x="192" y="14"/>
			<point x="143" y="14" type="curve" smooth="yes"/>
			<point x="122" y="14"/>
			<point x="107" y="27"/>
			<point x="107" y="60" type="curve" smooth="yes"/>
			<point x="107" y="139"/>
			<point x="151" y="206"/>
			<point x="330" y="254" type="curve"/>
			<point x="329" y="273" type="line"/>
			<point x="104" y="223"/>
			<point x="3" y="161"/>
			<point x="3" y="72" type="curve" smooth="yes"/>
			<point x="3" y="19"/>
			<point x="47" y="-15"/>
		</contour>
	</outline>
	<anchor name="aboveLC" x="255" y="478"/>
	<anchor name="belowLC" x="159" y="-20"/>
</glyph>
<glyph name="h.sups" format="2">
	<unicode hex="02B0"/>
	<advance width="376"/>
	<outline>
		<contour>
			<point x="99" y="413" type="line"/>
			<point x="195" y="418" type="line"/>
			<point x="233" y="637" type="line"/>
			<point x="234" y="640" type="line"/>
			<point x="282" y="874" type="line"/>
			<point x="272" y="882" type="line"/>
			<point x="131" y="847" type="line"/>
			<point x="129" y="836" type="line"/>
			<point x="187" y="821" type="line"/>
			<point x="170" y="830" type="line"/>
			<point x="89" y="421" type="line"/>
		</contour>
		<contour>
			<point x="327" y="408" type="curve" smooth="yes"/>
			<point x="382" y="408"/>
			<point x="421" y="448"/>
			<point x="443" y="487" type="curve"/>
			<point x="430" y="495" type="line"/>
			<point x="412" y="471"/>
			<point x="397" y="463"/>
			<point x="388" y="463" type="curve" smooth="yes"/>
			<point x="376" y="463"/>
			<point x="376" y="472"/>
			<point x="383" y="502" type="curve" smooth="yes"/>
			<point x="409" y="613" type="line" smooth="yes"/>
			<point x="413" y="632"/>
			<point x="417" y="652"/>
			<point x="417" y="672" type="curve" smooth="yes"/>
			<point x="417" y="707"/>
			<point x="394" y="723"/>
			<point x="364" y="723" type="curve" smooth="yes"/>
			<point x="313" y="723"/>
			<point x="271" y="691"/>
			<point x="221" y="639" type="curve"/>
			<point x="218" y="639" type="line"/>
			<point x="228" y="629" type="line"/>
			<point x="255" y="654"/>
			<point x="281" y="667"/>
			<point x="298" y="667" type="curve" smooth="yes"/>
			<point x="309" y="667"/>
			<point x="315" y="661"/>
			<point x="315" y="650" type="curve" smooth="yes"/>
			<point x="315" y="642"/>
			<point x="311" y="623"/>
			<point x="307" y="605" type="curve" smooth="yes"/>
			<point x="285" y="508" type="line" smooth="yes"/>
			<point x="282" y="493"/>
			<point x="276" y="467"/>
			<point x="276" y="450" type="curve" smooth="yes"/>
			<point x="276" y="424"/>
			<point x="296" y="408"/>
		</contour>
	</outline>
</glyph>
<glyph name="j.sups" format="2">
	<unicode hex="02B2"/>
	<advance width="198"/>
	<outline>
		<contour>
			<point x="224" y="778" type="curve" smooth="yes"/>
			<point x="257" y="778"/>
			<point x="283" y="802"/>
			<point x="283" y="835" type="curve" smooth="yes"/>
			<point x="283" y="862"/>
			<point x="263" y="881"/>
			<point x="234" y="881" type="curve" smooth="yes"/>
			<point x="200" y="881"/>
			<point x="173" y="857"/>
			<point x="173" y="824" type="curve" smooth="yes"/>
			<point x="173" y="795"/>
			<point x="197" y="778"/>
		</contour>
		<contour>
			<point x="16" y="263" type="line"/>
			<point x="81" y="270"/>
			<point x="121" y="287"/>
			<point x="146" y="319" type="curve" smooth="yes"/>
			<point x="173" y="349"/>
			<point x="186" y="393"/>
			<point x="198" y="451" type="curve" smooth="yes"/>
			<point x="253" y="716" type="line"/>
			<point x="242" y="723" type="line"/>
			<point x="103" y="689" type="line"/>
			<point x="100" y="677" type="line"/>
			<point x="156" y="662" type="line"/>
			<point x="144" y="670" type="line"/>
			<point x="97" y="436" type="line" smooth="yes"/>
			<point x="85" y="375"/>
			<point x="77" y="336"/>
			<point x="62" y="312" type="curve" smooth="yes"/>
			<point x="52" y="295"/>
			<point x="35" y="285"/>
			<point x="12" y="276" type="curve"/>
		</contour>
	</outline>
</glyph>
<glyph name="r.sups" format="2">
	<unicode hex="02B3"/>
	<advance width="310"/>
	<outline>
		<contour>
			<point x="210" y="549" type="line"/>
			<point x="227" y="592"/>
			<point x="245" y="635"/>
			<point x="288" y="679" type="curve"/>
			<point x="288" y="682" type="line"/>
			<point x="273" y="677" type="line"/>
			<point x="302" y="645"/>
			<point x="315" y="635"/>
			<point x="341" y="635" type="curve" smooth="yes"/>
			<point x="369" y="635"/>
			<point x="391" y="660"/>
			<point x="390" y="687" type="curve"/>
			<point x="383" y="714"/>
			<point x="357" y="723"/>
			<point x="336" y="723" type="curve" smooth="yes"/>
			<point x="281" y="723"/>
			<point x="241" y="664"/>
			<point x="211" y="582" type="curve"/>
			<point x="201" y="582" type="line"/>
		</contour>
		<contour>
			<point x="93" y="421" type="line"/>
			<point x="104" y="413" type="line"/>
			<point x="193" y="418" type="line"/>
			<point x="228" y="601" type="line"/>
			<point x="226" y="602" type="line"/>
			<point x="246" y="716" type="line"/>
			<point x="236" y="723" type="line"/>
			<point x="102" y="689" type="line"/>
			<point x="100" y="677" type="line"/>
			<point x="157" y="662" type="line"/>
			<point x="145" y="671" type="line"/>
		</contour>
	</outline>
</glyph>
<glyph name="w.sups" format="2">
	<unicode hex="02B7"/>
	<advance width="508"/>
	<outline>
		<contour>
			<point x="157" y="414" type="curve"/>
			<point x="232" y="418" type="line"/>
			<point x="278" y="481"/>
			<point x="306" y="543"/>
			<point x="331" y="617" type="curve"/>
			<point x="333" y="625" type="line"/>
			<point x="325" y="626" type="line"/>
			<point x="332" y="555"/>
			<point x="339" y="485"/>
			<point x="345" y="414" type="curve"/>
			<point x="409" y="418" type="line"/>
			<point x="474" y="481"/>
			<point x="519" y="548"/>
			<point x="551" y="601" type="curve" smooth="yes"/>
			<point x="565" y="625"/>
			<point x="577" y="653"/>
			<point x="577" y="680" type="curve" smooth="yes"/>
			<point x="577" y="692"/>
			<point x="573" y="705"/>
			<point x="567" y="717" type="curve"/>
			<point x="560" y="722"/>
			<point x="545" y="726"/>
			<point x="533" y="726" type="curve" smooth="yes"/>
			<point x="504" y="726"/>
			<point x="487" y="710"/>
			<point x="487" y="678" type="curve" smooth="yes"/>
			<point x="487" y="664"/>
			<point x="488" y="651"/>
			<point x="522" y="565" type="curve"/>
			<point x="543" y="635" type="line"/>
			<point x="537" y="624"/>
			<point x="531" y="614"/>
			<point x="527" y="605" type="curve" smooth="yes"/>
			<point x="492" y="542"/>
			<point x="467" y="509"/>
			<point x="434" y="470" type="curve"/>
			<point x="427" y="461" type="line"/>
			<point x="441" y="456" type="line"/>
			<point x="433" y="541"/>
			<point x="426" y="624"/>
			<point x="417" y="709" type="curve"/>
			<point x="337" y="709" type="line"/>
			<point x="315" y="633"/>
			<point x="294" y="556"/>
			<point x="244" y="468" type="curve"/>
			<point x="240" y="461" type="line"/>
			<point x="249" y="460" type="line"/>
			<point x="250" y="538"/>
			<point x="242" y="608"/>
			<point x="237" y="654" type="curve" smooth="yes"/>
			<point x="232" y="696"/>
			<point x="220" y="723"/>
			<point x="173" y="723" type="curve" smooth="yes"/>
			<point x="132" y="723"/>
			<point x="100" y="701"/>
			<point x="74" y="635" type="curve"/>
			<point x="87" y="627" type="line"/>
			<point x="101" y="652"/>
			<point x="114" y="667"/>
			<point x="124" y="667" type="curve" smooth="yes"/>
			<point x="130" y="667"/>
			<point x="135" y="663"/>
			<point x="137" y="647" type="curve" smooth="yes"/>
			<point x="148" y="569"/>
			<point x="152" y="512"/>
		</contour>
	</outline>
</glyph>
<glyph name="y.sups" format="2">
	<unicode hex="02B8"/>
	<advance width="349"/>
	<outline>
		<contour>
			<point x="-14" y="311" type="curve"/>
			<point x="-7" y="280"/>
			<point x="25" y="263"/>
			<point x="61" y="263" type="curve" smooth="yes"/>
			<point x="103" y="263"/>
			<point x="131" y="282"/>
			<point x="158" y="309" type="curve" smooth="yes"/>
			<point x="198" y="345"/>
			<point x="240" y="392"/>
			<point x="263" y="421" type="curve" smooth="yes"/>
			<point x="300" y="465"/>
			<point x="321" y="499"/>
			<point x="342" y="533" type="curve" smooth="yes"/>
			<point x="355" y="556"/>
			<point x="376" y="586"/>
			<point x="393" y="616" type="curve" smooth="yes"/>
			<point x="407" y="642"/>
			<point x="419" y="667"/>
			<point x="419" y="686" type="curve" smooth="yes"/>
			<point x="419" y="709"/>
			<point x="401" y="724"/>
			<point x="378" y="724" type="curve" smooth="yes"/>
			<point x="338" y="724"/>
			<point x="328" y="696"/>
			<point x="318" y="636" type="curve" smooth="yes"/>
			<point x="307" y="573"/>
			<point x="287" y="473"/>
			<point x="255" y="433" type="curve"/>
			<point x="231" y="406"/>
			<point x="216" y="389"/>
			<point x="189" y="365" type="curve" smooth="yes"/>
			<point x="167" y="343"/>
			<point x="139" y="308"/>
			<point x="101" y="290" type="curve"/>
			<point x="101" y="283" type="line"/>
			<point x="115" y="283" type="line"/>
			<point x="115" y="290" type="line"/>
			<point x="81" y="328"/>
			<point x="60" y="345"/>
			<point x="32" y="345" type="curve" smooth="yes"/>
			<point x="10" y="345"/>
			<point x="-10" y="334"/>
		</contour>
		<contour>
			<point x="264" y="432" type="line"/>
			<point x="263" y="499"/>
			<point x="249" y="600"/>
			<point x="239" y="654" type="curve" smooth="yes"/>
			<point x="232" y="696"/>
			<point x="220" y="723"/>
			<point x="173" y="723" type="curve" smooth="yes"/>
			<point x="132" y="723"/>
			<point x="100" y="701"/>
			<point x="74" y="635" type="curve"/>
			<point x="87" y="627" type="line"/>
			<point x="100" y="652"/>
			<point x="114" y="667"/>
			<point x="124" y="667" type="curve" smooth="yes"/>
			<point x="130" y="667"/>
			<point x="134" y="663"/>
			<point x="139" y="640" type="curve" smooth="yes"/>
			<point x="155" y="569"/>
			<point x="172" y="466"/>
			<point x="183" y="350" type="curve"/>
			<point x="269" y="432" type="line"/>
		</contour>
	</outline>
</glyph>
<glyph name="ringhalfleftmod" format="2">
	<unicode hex="02BF"/>
	<advance width="234"/>
	<outline>
		<contour>
			<point x="236" y="526" type="curve"/>
			<point x="245" y="570" type="line"/>
			<point x="214" y="571"/>
			<point x="197" y="588"/>
			<point x="197" y="615" type="curve" smooth="yes"/>
			<point x="197" y="657"/>
			<point x="228" y="685"/>
			<point x="266" y="686" type="curve"/>
			<point x="275" y="730" type="line"/>
			<point x="198" y="729"/>
			<point x="135" y="687"/>
			<point x="135" y="609" type="curve" smooth="yes"/>
			<point x="135" y="559"/>
			<point x="173" y="527"/>
		</contour>
	</outline>
</glyph>
<glyph name="verticallinemod" format="2">
	<unicode hex="02C8"/>
	<advance width="142"/>
	<outline>
		<contour>
			<point x="94" y="533" type="line"/>
			<point x="179" y="533" type="line"/>
			<point x="222" y="725" type="line"/>
			<point x="122" y="725" type="line"/>
		</contour>
	</outline>
</glyph>
<glyph name="l.sups" format="2">
	<unicode hex="02E1"/>
	<advance width="199"/>
	<outline>
		<contour>
			<point x="149" y="408" type="curve" smooth="yes"/>
			<point x="203" y="408"/>
			<point x="242" y="448"/>
			<point x="264" y="487" type="curve"/>
			<point x="251" y="495" type="line"/>
			<point x="233" y="471"/>
			<point x="219" y="463"/>
			<point x="211" y="463" type="curve" smooth="yes"/>
			<point x="197" y="463"/>
			<point x="199" y="475"/>
			<point x="204" y="502" type="curve" smooth="yes"/>
			<point x="282" y="874" type="line"/>
			<point x="271" y="882" type="line"/>
			<point x="131" y="847" type="line"/>
			<point x="129" y="836" type="line"/>
			<point x="187" y="821" type="line"/>
			<point x="170" y="830" type="line"/>
			<point x="107" y="508" type="line" smooth="yes"/>
			<point x="104" y="494"/>
			<point x="97" y="467"/>
			<point x="97" y="450" type="curve" smooth="yes"/>
			<point x="97" y="424"/>
			<point x="118" y="408"/>
		</contour>
	</outline>
</glyph>
<glyph name="s.sups" format="2">
	<unicode hex="02E2"/>
	<advance width="273"/>
	<outline>
		<contour>
			<point x="177" y="422" type="line"/>
			<point x="161" y="466" type="line" smooth="yes"/>
			<point x="150" y="494"/>
			<point x="136" y="504"/>
			<point x="114" y="504" type="curve" smooth="yes"/>
			<point x="94" y="504"/>
			<point x="81" y="492"/>
			<point x="79" y="473" type="curve"/>
			<point x="87" y="432"/>
			<point x="125" y="408"/>
			<point x="179" y="408" type="curve" smooth="yes"/>
			<point x="277" y="408"/>
			<point x="315" y="454"/>
			<point x="315" y="502" type="curve" smooth="yes"/>
			<point x="315" y="541"/>
			<point x="282" y="568"/>
			<point x="251" y="594" type="curve" smooth="yes"/>
			<point x="225" y="614"/>
			<point x="199" y="635"/>
			<point x="199" y="661" type="curve" smooth="yes"/>
			<point x="199" y="681"/>
			<point x="214" y="706"/>
			<point x="244" y="706" type="curve" smooth="yes"/>
			<point x="255" y="706"/>
			<point x="270" y="704"/>
			<point x="280" y="704" type="curve"/>
			<point x="235" y="709" type="line"/>
			<point x="253" y="671" type="line" smooth="yes"/>
			<point x="266" y="644"/>
			<point x="279" y="633"/>
			<point x="300" y="633" type="curve" smooth="yes"/>
			<point x="322" y="633"/>
			<point x="335" y="643"/>
			<point x="336" y="661" type="curve"/>
			<point x="328" y="696"/>
			<point x="299" y="723"/>
			<point x="237" y="723" type="curve" smooth="yes"/>
			<point x="154" y="723"/>
			<point x="116" y="676"/>
			<point x="116" y="623" type="curve" smooth="yes"/>
			<point x="116" y="584"/>
			<point x="143" y="558"/>
			<point x="171" y="537" type="curve" smooth="yes"/>
			<point x="199" y="515"/>
			<point x="226" y="496"/>
			<point x="226" y="468" type="curve" smooth="yes"/>
			<point x="226" y="447"/>
			<point x="210" y="426"/>
			<point x="181" y="426" type="curve" smooth="yes"/>
			<point x="165" y="426"/>
			<point x="146" y="428"/>
			<point x="131" y="431" type="curve"/>
		</contour>
	</outline>
</glyph>
<glyph name="x.sups" format="2">
	<unicode hex="02E3"/>
	<advance width="371"/>
	<outline>
		<contour>
			<point x="229" y="458" type="line" smooth="yes"/>
			<point x="243" y="418"/>
			<point x="261" y="403"/>
			<point x="296" y="403" type="curve" smooth="yes"/>
			<point x="345" y="403"/>
			<point x="378" y="441"/>
			<point x="400" y="491" type="curve"/>
			<point x="388" y="498" type="line"/>
			<point x="371" y="472"/>
			<point x="358" y="458"/>
			<point x="346" y="458" type="curve" smooth="yes"/>
			<point x="338" y="458"/>
			<point x="333" y="464"/>
			<point x="327" y="480" type="curve" smooth="yes"/>
			<point x="283" y="601" type="line"/>
			<point x="281" y="606" type="line"/>
			<point x="260" y="663" type="line" smooth="yes"/>
			<point x="246" y="699"/>
			<point x="233" y="719"/>
			<point x="195" y="719" type="curve" smooth="yes"/>
			<point x="145" y="719"/>
			<point x="118" y="671"/>
			<point x="103" y="629" type="curve"/>
			<point x="116" y="623" type="line"/>
			<point x="129" y="651"/>
			<point x="140" y="660"/>
			<point x="148" y="660" type="curve" smooth="yes"/>
			<point x="154" y="660"/>
			<point x="157" y="655"/>
			<point x="163" y="640" type="curve" smooth="yes"/>
			<point x="204" y="526" type="line"/>
			<point x="206" y="522" type="line"/>
		</contour>
		<contour>
			<point x="49" y="450" type="curve"/>
			<point x="55" y="417"/>
			<point x="81" y="403"/>
			<point x="106" y="403" type="curve" smooth="yes"/>
			<point x="139" y="403"/>
			<point x="154" y="421"/>
			<point x="174" y="451" type="curve" smooth="yes"/>
			<point x="190" y="476"/>
			<point x="211" y="516"/>
			<point x="237" y="567" type="curve"/>
			<point x="232" y="582" type="line"/>
			<point x="205" y="539"/>
			<point x="180" y="498"/>
			<point x="155" y="459" type="curve" smooth="yes"/>
			<point x="150" y="451"/>
			<point x="146" y="448"/>
			<point x="143" y="446" type="curve"/>
			<point x="143" y="439" type="line"/>
			<point x="153" y="439" type="line"/>
			<point x="147" y="454" type="line" smooth="yes"/>
			<point x="135" y="478"/>
			<point x="119" y="488"/>
			<point x="97" y="488" type="curve" smooth="yes"/>
			<point x="73" y="488"/>
			<point x="52" y="475"/>
		</contour>
		<contour>
			<point x="255" y="540" type="line"/>
			<point x="282" y="584"/>
			<point x="306" y="624"/>
			<point x="331" y="664" type="curve" smooth="yes"/>
			<point x="337" y="672"/>
			<point x="340" y="675"/>
			<point x="345" y="678" type="curve"/>
			<point x="345" y="683" type="line"/>
			<point x="332" y="683" type="line"/>
			<point x="340" y="669" type="line" smooth="yes"/>
			<point x="352" y="645"/>
			<point x="370" y="634"/>
			<point x="392" y="634" type="curve" smooth="yes"/>
			<point x="417" y="634"/>
			<point x="435" y="650"/>
			<point x="438" y="673" type="curve"/>
			<point x="432" y="705"/>
			<point x="406" y="719"/>
			<point x="382" y="719" type="curve" smooth="yes"/>
			<point x="348" y="719"/>
			<point x="333" y="701"/>
			<point x="313" y="671" type="curve" smooth="yes"/>
			<point x="297" y="646"/>
			<point x="276" y="606"/>
			<point x="250" y="555" type="curve"/>
		</contour>
	</outline>
</glyph>
<glyph name="acutecmb" format="2">
	<unicode hex="0301"/>
	<outline>
		<contour>
			<point x="39" y="543" type="curve"/>
			<point x="57" y="532" type="line"/>
			<point x="89" y="561"/>
			<point x="120" y="589"/>
			<point x="151" y="618" type="curve" smooth="yes"/>
			<point x="181" y="644"/>
			<point x="201" y="670"/>
			<point x="201" y="692" type="curve" smooth="yes"/>
			<point x="201" y="720"/>
			<point x="180" y="736"/>
			<point x="155" y="736" type="curve" smooth="yes"/>
			<point x="121" y="736"/>
			<point x="103" y="702"/>
			<point x="90" y="669" type="curve" smooth="yes"/>
			<point x="74" y="627"/>
			<point x="56" y="585"/>
		</contour>
	</outline>
	<anchor name="_aboveLC" x="55" y="478"/>
	<anchor name="aboveLC" x="110" y="736"/>
</glyph>
<glyph name="circumflexcmb" format="2">
	<unicode hex="0302"/>
	<outline>
		<contour>
			<point x="198" y="531" type="line"/>
			<point x="217" y="546" type="line"/>
			<point x="123" y="716" type="line"/>
			<point x="71" y="716" type="line"/>
			<point x="-83" y="549" type="line"/>
			<point x="-68" y="531" type="line"/>
			<point x="107" y="647" type="line"/>
			<point x="73" y="647" type="line"/>
		</contour>
	</outline>
	<anchor name="_aboveLC" x="55" y="478"/>
	<anchor name="aboveLC" x="105" y="716"/>
</glyph>
<glyph name="tildecmb" format="2">
	<unicode hex="0303"/>
	<outline>
		<contour>
			<point x="-81" y="552" type="curve"/>
			<point x="-62" y="543" type="line"/>
			<point x="-42" y="577"/>
			<point x="-20" y="604"/>
			<point x="9" y="604" type="curve" smooth="yes"/>
			<point x="29" y="604"/>
			<point x="46" y="588"/>
			<point x="64" y="572" type="curve" smooth="yes"/>
			<point x="82" y="555"/>
			<point x="101" y="540"/>
			<point x="131" y="540" type="curve" smooth="yes"/>
			<point x="178" y="540"/>
			<point x="222" y="588"/>
			<point x="248" y="673" type="curve"/>
			<point x="229" y="682" type="line"/>
			<point x="209" y="647"/>
			<point x="187" y="620"/>
			<point x="158" y="620" type="curve" smooth="yes"/>
			<point x="137" y="620"/>
			<point x="120" y="637"/>
			<point x="101" y="654" type="curve" smooth="yes"/>
			<point x="83" y="670"/>
			<point x="64" y="684"/>
			<point x="36" y="684" type="curve" smooth="yes"/>
			<point x="-11" y="684"/>
			<point x="-55" y="637"/>
		</contour>
	</outline>
	<anchor name="_aboveLC" x="55" y="478"/>
	<anchor name="aboveLC" x="99" y="684"/>
</glyph>
<glyph name="macroncmb" format="2">
	<unicode hex="0304"/>
	<outline>
		<contour>
			<point x="-27" y="556" type="line"/>
			<point x="256" y="556" type="line"/>
			<point x="270" y="625" type="line"/>
			<point x="-13" y="625" type="line"/>
		</contour>
	</outline>
	<anchor name="_aboveLC" x="101" y="478"/>
	<anchor name="aboveLC" x="133" y="625"/>
</glyph>
<glyph name="brevecmb" format="2">
	<unicode hex="0306"/>
	<outline>
		<contour>
			<point x="71" y="537" type="curve" smooth="yes"/>
			<point x="167" y="537"/>
			<point x="220" y="611"/>
			<point x="238" y="674" type="curve"/>
			<point x="215" y="682" type="line"/>
			<point x="183" y="634"/>
			<point x="138" y="602"/>
			<point x="80" y="602" type="curve" smooth="yes"/>
			<point x="22" y="602"/>
			<point x="-12" y="634"/>
			<point x="-25" y="682" type="curve"/>
			<point x="-52" y="673" type="line"/>
			<point x="-52" y="610"/>
			<point x="-24" y="537"/>
		</contour>
	</outline>
	<anchor name="_aboveLC" x="55" y="478"/>
	<anchor name="aboveLC" x="98" y="682"/>
</glyph>
<glyph name="dotaccentcmb" format="2">
	<unicode hex="0307"/>
	<outline>
		<contour>
			<point x="75" y="558" type="curve" smooth="yes"/>
			<point x="118" y="558"/>
			<point x="157" y="591"/>
			<point x="157" y="641" type="curve" smooth="yes"/>
			<point x="157" y="676"/>
			<point x="133" y="701"/>
			<point x="97" y="701" type="curve" smooth="yes"/>
			<point x="54" y="701"/>
			<point x="15" y="668"/>
			<point x="15" y="618" type="curve" smooth="yes"/>
			<point x="15" y="584"/>
			<point x="40" y="558"/>
		</contour>
	</outline>
	<anchor name="_aboveLC" x="55" y="478"/>
	<anchor name="aboveLC" x="102" y="701"/>
</glyph>
<glyph name="dieresiscmb" format="2">
	<unicode hex="0308"/>
	<outline>
		<contour>
			<point x="-20" y="561" type="curve" smooth="yes"/>
			<point x="14" y="561"/>
			<point x="46" y="587"/>
			<point x="46" y="630" type="curve" smooth="yes"/>
			<point x="46" y="661"/>
			<point x="22" y="681"/>
			<point x="-8" y="681" type="curve" smooth="yes"/>
			<point x="-41" y="681"/>
			<point x="-75" y="656"/>
			<point x="-75" y="613" type="curve" smooth="yes"/>
			<point x="-75" y="580"/>
			<point x="-49" y="561"/>
		</contour>
		<contour>
			<point x="174" y="561" type="curve" smooth="yes"/>
			<point x="208" y="561"/>
			<point x="240" y="587"/>
			<point x="240" y="630" type="curve" smooth="yes"/>
			<point x="240" y="661"/>
			<point x="216" y="681"/>
			<point x="187" y="681" type="curve" smooth="yes"/>
			<point x="153" y="681"/>
			<point x="120" y="656"/>
			<point x="120" y="613" type="curve" smooth="yes"/>
			<point x="120" y="580"/>
			<point x="146" y="561"/>
		</contour>
	</outline>
	<anchor name="_aboveLC" x="55" y="478"/>
	<anchor name="aboveLC" x="98" y="681"/>
</glyph>
<glyph name="hoicmb" format="2">
	<unicode hex="0309"/>
	<outline>
		<contour>
			<point x="32" y="532" type="line"/>
			<point x="108" y="545"/>
			<point x="154" y="578"/>
			<point x="154" y="640" type="curve" smooth="yes"/>
			<point x="154" y="691"/>
			<point x="117" y="729"/>
			<point x="44" y="737" type="curve"/>
			<point x="20" y="658" type="line"/>
			<point x="73" y="651"/>
			<point x="93" y="636"/>
			<point x="93" y="613" type="curve" smooth="yes"/>
			<point x="93" y="588"/>
			<point x="78" y="569"/>
			<point x="28" y="554" type="curve"/>
		</contour>
	</outline>
	<anchor name="_aboveLC" x="55" y="478"/>
	<anchor name="aboveLC" x="110" y="737"/>
</glyph>
<glyph name="cedillacmb" format="2">
	<unicode hex="0327"/>
	<outline>
		<contour>
			<point x="-37" y="-73" type="line"/>
			<point x="-4" y="-78"/>
			<point x="12" y="-99"/>
			<point x="12" y="-127" type="curve" smooth="yes"/>
			<point x="12" y="-165"/>
			<point x="-12" y="-191"/>
			<point x="-56" y="-191" type="curve" smooth="yes"/>
			<point x="-77" y="-191"/>
			<point x="-90" y="-188"/>
			<point x="-105" y="-182" type="curve"/>
			<point x="-113" y="-206" type="line"/>
			<point x="-97" y="-215"/>
			<point x="-78" y="-222"/>
			<point x="-44" y="-222" type="curve" smooth="yes"/>
			<point x="40" y="-222"/>
			<point x="91" y="-181"/>
			<point x="91" y="-126" type="curve" smooth="yes"/>
			<point x="91" y="-85"/>
			<point x="59" y="-51"/>
			<point x="-20" y="-41" type="curve"/>
			<point x="-6" y="-62" type="line"/>
			<point x="13" y="0" type="line"/>
			<point x="-14" y="0" type="line"/>
		</contour>
	</outline>
	<anchor name="_baseLC" x="0" y="0"/>
</glyph>
<glyph name="ogonekcmb" format="2">
	<unicode hex="0328"/>
	<outline>
		<contour>
			<point x="-102" y="-229" type="curve" smooth="yes"/>
			<point x="-64" y="-229"/>
			<point x="-31" y="-212"/>
			<point x="-5" y="-186" type="curve"/>
			<point x="-15" y="-166" type="line"/>
			<point x="-25" y="-169"/>
			<point x="-39" y="-173"/>
			<point x="-50" y="-173" type="curve" smooth="yes"/>
			<point x="-91" y="-173"/>
			<point x="-108" y="-151"/>
			<point x="-108" y="-117" type="curve" smooth="yes"/>
			<point x="-108" y="-70"/>
			<point x="-80" y="-24"/>
			<point x="-23" y="9" type="curve"/>
			<point x="-55" y="12" type="line"/>
			<point x="-55" y="2" type="line"/>
			<point x="-128" y="-30"/>
			<point x="-186" y="-83"/>
			<point x="-186" y="-152" type="curve" smooth="yes"/>
			<point x="-186" y="-198"/>
			<point x="-154" y="-229"/>
		</contour>
	</outline>
	<anchor name="_ogonek" x="-47" y="0"/>
</glyph>
<glyph name="Delta" format="2">
	<unicode hex="0394"/>
	<unicode hex="2206"/>
	<advance width="552"/>
	<outline>
		<contour>
			<point x="-11" y="0" type="line"/>
			<point x="492" y="0" type="line"/>
			<point x="497" y="29" type="line"/>
			<point x="388" y="659" type="line"/>
			<point x="326" y="659" type="line"/>
			<point x="-5" y="29" type="line"/>
		</contour>
		<contour>
			<point x="49" y="75" type="line"/>
			<point x="297" y="553" type="line"/>
			<point x="279" y="553" type="line"/>
			<point x="353" y="72" type="line"/>
			<point x="368" y="102" type="line"/>
			<point x="43" y="102" type="line"/>
		</contour>
	</outline>
</glyph>
<glyph name="Theta" format="2">
	<unicode hex="0398"/>
	<advance width="643"/>
	<outline>
		<contour>
			<point x="226" y="233" type="line"/>
			<point x="247" y="233" type="line"/>
			<point x="302" y="323" type="line"/>
			<point x="305" y="340" type="line"/>
			<point x="283" y="431" type="line"/>
			<point x="263" y="431" type="line"/>
		</contour>
		<contour>
			<point x="408" y="233" type="line"/>
			<point x="425" y="233" type="line"/>
			<point x="462" y="431" type="line"/>
			<point x="444" y="431" type="line"/>
			<point x="386" y="340" type="line"/>
			<point x="383" y="323" type="line"/>
		</contour>
		<contour>
			<point x="281" y="-16" type="curve" smooth="yes"/>
			<point x="502" y="-16"/>
			<point x="638" y="196"/>
			<point x="638" y="424" type="curve" smooth="yes"/>
			<point x="638" y="589"/>
			<point x="541" y="673"/>
			<point x="403" y="673" type="curve" smooth="yes"/>
			<point x="181" y="673"/>
			<point x="46" y="461"/>
			<point x="46" y="232" type="curve" smooth="yes"/>
			<point x="46" y="67"/>
			<point x="143" y="-16"/>
		</contour>
		<contour>
			<point x="285" y="10" type="curve" smooth="yes"/>
			<point x="209" y="10"/>
			<point x="177" y="78"/>
			<point x="177" y="185" type="curve" smooth="yes"/>
			<point x="177" y="376"/>
			<point x="263" y="647"/>
			<point x="399" y="647" type="curve" smooth="yes"/>
			<point x="475" y="647"/>
			<point x="507" y="580"/>
			<point x="507" y="473" type="curve" smooth="yes"/>
			<point x="507" y="282"/>
			<point x="421" y="10"/>
		</contour>
		<contour>
			<point x="271" y="297" type="line"/>
			<point x="402" y="297" type="line"/>
			<point x="417" y="368" type="line"/>
			<point x="286" y="368" type="line"/>
		</contour>
	</outline>
</glyph>
<glyph name="Xi" format="2">
	<unicode hex="039E"/>
	<advance width="551"/>
	<outline>
		<contour>
			<point x="3" y="0" type="line"/>
			<point x="474" y="0" type="line"/>
			<point x="514" y="199" type="line"/>
			<point x="492" y="199" type="line"/>
			<point x="394" y="34" type="line"/>
			<point x="460" y="102" type="line"/>
			<point x="60" y="102" type="line"/>
			<point x="94" y="34" type="line"/>
			<point x="50" y="199" type="line"/>
			<point x="28" y="199" type="line"/>
		</contour>
		<contour>
			<point x="86" y="468" type="line"/>
			<point x="108" y="468" type="line"/>
			<point x="211" y="623" type="line"/>
			<point x="146" y="556" type="line"/>
			<point x="518" y="556" type="line"/>
			<point x="484" y="623" type="line"/>
			<point x="529" y="468" type="line"/>
			<point x="551" y="468" type="line"/>
			<point x="575" y="657" type="line"/>
			<point x="130" y="657" type="line"/>
		</contour>
		<contour>
			<point x="140" y="233" type="line"/>
			<point x="161" y="233" type="line"/>
			<point x="216" y="323" type="line"/>
			<point x="219" y="340" type="line"/>
			<point x="197" y="431" type="line"/>
			<point x="177" y="431" type="line"/>
		</contour>
		<contour>
			<point x="399" y="233" type="line"/>
			<point x="416" y="233" type="line"/>
			<point x="453" y="431" type="line"/>
			<point x="436" y="431" type="line"/>
			<point x="377" y="340" type="line"/>
			<point x="374" y="323" type="line"/>
		</contour>
		<contour>
			<point x="185" y="297" type="line"/>
			<point x="393" y="297" type="line"/>
			<point x="408" y="368" type="line"/>
			<point x="200" y="368" type="line"/>
		</contour>
	</outline>
</glyph>
<glyph name="Sigma" format="2">
	<unicode hex="03A3"/>
	<advance width="531"/>
	<outline>
		<contour>
			<point x="-10" y="0" type="line"/>
			<point x="446" y="0" type="line"/>
			<point x="497" y="229" type="line"/>
			<point x="475" y="229" type="line"/>
			<point x="373" y="70" type="line"/>
			<point x="423" y="113" type="line"/>
			<point x="114" y="113" type="line"/>
			<point x="115" y="127" type="line"/>
			<point x="100" y="89" type="line"/>
			<point x="233" y="233" type="line"/>
			<point x="352" y="367" type="line"/>
			<point x="246" y="641" type="line"/>
			<point x="248" y="621" type="line"/>
			<point x="249" y="630" type="line"/>
			<point x="379" y="630" type="line"/>
			<point x="492" y="630" type="line"/>
			<point x="459" y="645" type="line"/>
			<point x="505" y="480" type="line"/>
			<point x="527" y="480" type="line"/>
			<point x="547" y="657" type="line"/>
			<point x="114" y="657" type="line"/>
			<point x="110" y="634" type="line"/>
			<point x="243" y="278" type="line"/>
			<point x="270" y="317" type="line"/>
			<point x="-5" y="29" type="line"/>
		</contour>
	</outline>
</glyph>
<glyph name="Psi" format="2">
	<unicode hex="03A8"/>
	<advance width="787"/>
	<outline>
		<contour>
			<point x="405" y="227" type="curve"/>
			<point x="406" y="252" type="line"/>
			<point x="265" y="252"/>
			<point x="260" y="318"/>
			<point x="268" y="456" type="curve" smooth="yes"/>
			<point x="274" y="537" type="line" smooth="yes"/>
			<point x="279" y="629"/>
			<point x="246" y="657"/>
			<point x="142" y="657" type="curve" smooth="yes"/>
			<point x="99" y="657" type="line"/>
			<point x="96" y="635" type="line"/>
			<point x="116" y="633" type="line" smooth="yes"/>
			<point x="142" y="630"/>
			<point x="147" y="607"/>
			<point x="145" y="567" type="curve" smooth="yes"/>
			<point x="140" y="479" type="line" smooth="yes"/>
			<point x="130" y="287"/>
			<point x="181" y="227"/>
		</contour>
		<contour>
			<point x="405" y="227" type="line"/>
			<point x="630" y="227"/>
			<point x="690" y="287"/>
			<point x="752" y="479" type="curve" smooth="yes"/>
			<point x="781" y="567" type="line" smooth="yes"/>
			<point x="793" y="607"/>
			<point x="806" y="629"/>
			<point x="835" y="633" type="curve" smooth="yes"/>
			<point x="853" y="635" type="line"/>
			<point x="857" y="657" type="line"/>
			<point x="815" y="657" type="line" smooth="yes"/>
			<point x="711" y="657"/>
			<point x="665" y="629"/>
			<point x="638" y="537" type="curve" smooth="yes"/>
			<point x="614" y="456" type="line" smooth="yes"/>
			<point x="573" y="319"/>
			<point x="548" y="252"/>
			<point x="406" y="252" type="curve"/>
		</contour>
		<contour>
			<point x="228" y="0" type="line"/>
			<point x="488" y="0" type="line"/>
			<point x="492" y="22" type="line"/>
			<point x="394" y="37" type="line"/>
			<point x="332" y="37" type="line"/>
			<point x="233" y="22" type="line"/>
		</contour>
		<contour>
			<point x="291" y="0" type="line"/>
			<point x="426" y="0" type="line"/>
			<point x="442" y="102"/>
			<point x="458" y="207"/>
			<point x="478" y="311" type="curve" smooth="yes"/>
			<point x="544" y="657" type="line"/>
			<point x="409" y="657" type="line"/>
			<point x="393" y="555"/>
			<point x="377" y="449"/>
			<point x="357" y="345" type="curve" smooth="yes"/>
		</contour>
		<contour>
			<point x="343" y="635" type="line"/>
			<point x="442" y="621" type="line"/>
			<point x="501" y="621" type="line"/>
			<point x="604" y="635" type="line"/>
			<point x="608" y="657" type="line"/>
			<point x="347" y="657" type="line"/>
		</contour>
	</outline>
</glyph>
<glyph name="Omega" format="2">
	<unicode hex="03A9"/>
	<unicode hex="2126"/>
	<advance width="653"/>
	<outline>
		<contour>
			<point x="28" y="0" type="line"/>
			<point x="250" y="0" type="line"/>
			<point x="284" y="152" type="line"/>
			<point x="239" y="181"/>
			<point x="224" y="250"/>
			<point x="224" y="315" type="curve" smooth="yes"/>
			<point x="224" y="451"/>
			<point x="278" y="647"/>
			<point x="396" y="647" type="curve" smooth="yes"/>
			<point x="458" y="647"/>
			<point x="488" y="586"/>
			<point x="488" y="492" type="curve" smooth="yes"/>
			<point x="488" y="358"/>
			<point x="436" y="204"/>
			<point x="340" y="152" type="curve"/>
			<point x="325" y="0" type="line"/>
			<point x="564" y="0" type="line"/>
			<point x="609" y="192" type="line"/>
			<point x="587" y="192" type="line"/>
			<point x="514" y="73" type="line"/>
			<point x="548" y="102" type="line"/>
			<point x="355" y="102" type="line"/>
			<point x="364" y="95" type="line"/>
			<point x="368" y="140" type="line"/>
			<point x="499" y="178"/>
			<point x="615" y="273"/>
			<point x="615" y="458" type="curve" smooth="yes"/>
			<point x="615" y="596"/>
			<point x="519" y="673"/>
			<point x="401" y="673" type="curve" smooth="yes"/>
			<point x="252" y="673"/>
			<point x="98" y="562"/>
			<point x="98" y="351" type="curve" smooth="yes"/>
			<point x="98" y="236"/>
			<point x="158" y="169"/>
			<point x="252" y="140" type="curve"/>
			<point x="241" y="95" type="line"/>
			<point x="255" y="102" type="line"/>
			<point x="80" y="102" type="line"/>
			<point x="98" y="73" type="line"/>
			<point x="67" y="192" type="line"/>
			<point x="45" y="192" type="line"/>
		</contour>
	</outline>
</glyph>
<glyph name="beta" format="2">
	<unicode hex="03B2"/>
	<advance width="531"/>
	<outline>
		<contour>
			<point x="-8" y="-212" type="line"/>
			<point x="132" y="-188" type="line"/>
			<point x="159" y="74" type="line"/>
			<point x="162" y="78" type="line"/>
			<point x="245" y="534" type="line" smooth="yes"/>
			<point x="268" y="662"/>
			<point x="307" y="704"/>
			<point x="351" y="704" type="curve" smooth="yes"/>
			<point x="390" y="704"/>
			<point x="408" y="664"/>
			<point x="408" y="601" type="curve" smooth="yes"/>
			<point x="408" y="486"/>
			<point x="366" y="416"/>
			<point x="255" y="377" type="curve"/>
			<point x="256" y="352" type="line"/>
			<point x="339" y="347"/>
			<point x="374" y="283"/>
			<point x="374" y="210" type="curve" smooth="yes"/>
			<point x="374" y="124"/>
			<point x="331" y="54"/>
			<point x="249" y="54" type="curve" smooth="yes"/>
			<point x="212" y="54"/>
			<point x="170" y="68"/>
			<point x="148" y="108" type="curve"/>
			<point x="148" y="91" type="line"/>
			<point x="164" y="25"/>
			<point x="222" y="-15"/>
			<point x="304" y="-15" type="curve" smooth="yes"/>
			<point x="399" y="-15"/>
			<point x="492" y="61"/>
			<point x="492" y="189" type="curve" smooth="yes"/>
			<point x="492" y="315"/>
			<point x="389" y="372"/>
			<point x="282" y="374" type="curve"/>
			<point x="272" y="366" type="line"/>
			<point x="446" y="395"/>
			<point x="520" y="485"/>
			<point x="520" y="590" type="curve" smooth="yes"/>
			<point x="520" y="673"/>
			<point x="462" y="729"/>
			<point x="362" y="729" type="curve" smooth="yes"/>
			<point x="220" y="729"/>
			<point x="141" y="629"/>
			<point x="103" y="436" type="curve" smooth="yes"/>
			<point x="31" y="64" type="line"/>
			<point x="-18" y="-201" type="line"/>
		</contour>
	</outline>
</glyph>
<glyph name="gamma" format="2">
	<unicode hex="03B3"/>
	<advance width="486"/>
	<outline>
		<contour>
			<point x="103" y="-212" type="line"/>
			<point x="233" y="-190" type="line"/>
			<point x="249" y="47" type="line"/>
			<point x="154" y="48" type="line"/>
			<point x="91" y="-201" type="line"/>
		</contour>
		<contour>
			<point x="142" y="-14" type="curve"/>
			<point x="237" y="-1" type="line"/>
			<point x="298" y="72"/>
			<point x="372" y="167"/>
			<point x="423" y="256" type="curve" smooth="yes"/>
			<point x="460" y="320"/>
			<point x="483" y="376"/>
			<point x="483" y="424" type="curve" smooth="yes"/>
			<point x="483" y="435"/>
			<point x="481" y="445"/>
			<point x="479" y="455" type="curve"/>
			<point x="468" y="464"/>
			<point x="455" y="472"/>
			<point x="434" y="472" type="curve" smooth="yes"/>
			<point x="388" y="472"/>
			<point x="369" y="437"/>
			<point x="369" y="385" type="curve" smooth="yes"/>
			<point x="369" y="365"/>
			<point x="372" y="339"/>
			<point x="378" y="311" type="curve" smooth="yes"/>
			<point x="395" y="237" type="line"/>
			<point x="399" y="278" type="line"/>
			<point x="397" y="272"/>
			<point x="394" y="267"/>
			<point x="390" y="260" type="curve" smooth="yes"/>
			<point x="341" y="169"/>
			<point x="278" y="83"/>
			<point x="229" y="24" type="curve"/>
			<point x="252" y="26" type="line"/>
			<point x="252" y="121"/>
			<point x="244" y="233"/>
			<point x="237" y="314" type="curve" smooth="yes"/>
			<point x="230" y="430"/>
			<point x="212" y="471"/>
			<point x="146" y="471" type="curve" smooth="yes"/>
			<point x="106" y="471"/>
			<point x="63" y="451"/>
			<point x="21" y="395" type="curve"/>
			<point x="31" y="380" type="line"/>
			<point x="46" y="387"/>
			<point x="61" y="395"/>
			<point x="75" y="395" type="curve" smooth="yes"/>
			<point x="100" y="395"/>
			<point x="107" y="376"/>
			<point x="114" y="298" type="curve" smooth="yes"/>
			<point x="127" y="171"/>
			<point x="137" y="85"/>
		</contour>
	</outline>
</glyph>
<glyph name="delta" format="2">
	<unicode hex="03B4"/>
	<advance width="477"/>
	<outline>
		<contour>
			<point x="195" y="-15" type="curve" smooth="yes"/>
			<point x="326" y="-15"/>
			<point x="448" y="87"/>
			<point x="448" y="256" type="curve" smooth="yes"/>
			<point x="448" y="357"/>
			<point x="385" y="417"/>
			<point x="326" y="470" type="curve" smooth="yes"/>
			<point x="271" y="519"/>
			<point x="226" y="562"/>
			<point x="226" y="606" type="curve" smooth="yes"/>
			<point x="226" y="671"/>
			<point x="266" y="701"/>
			<point x="324" y="701" type="curve" smooth="yes"/>
			<point x="345" y="701"/>
			<point x="369" y="692"/>
			<point x="380" y="684" type="curve"/>
			<point x="383" y="704" type="line"/>
			<point x="330" y="707" type="line"/>
			<point x="373" y="623" type="line" smooth="yes"/>
			<point x="391" y="591"/>
			<point x="414" y="578"/>
			<point x="438" y="578" type="curve" smooth="yes"/>
			<point x="462" y="578"/>
			<point x="485" y="593"/>
			<point x="494" y="625" type="curve"/>
			<point x="487" y="678"/>
			<point x="424" y="726"/>
			<point x="325" y="726" type="curve" smooth="yes"/>
			<point x="196" y="726"/>
			<point x="123" y="657"/>
			<point x="123" y="564" type="curve" smooth="yes"/>
			<point x="123" y="492"/>
			<point x="173" y="441"/>
			<point x="225" y="395" type="curve" smooth="yes"/>
			<point x="273" y="351"/>
			<point x="323" y="307"/>
			<point x="323" y="234" type="curve" smooth="yes"/>
			<point x="323" y="156"/>
			<point x="282" y="11"/>
			<point x="202" y="11" type="curve" smooth="yes"/>
			<point x="162" y="11"/>
			<point x="139" y="46"/>
			<point x="139" y="116" type="curve" smooth="yes"/>
			<point x="139" y="251"/>
			<point x="198" y="353"/>
			<point x="270" y="380" type="curve"/>
			<point x="247" y="408" type="line"/>
			<point x="247" y="396" type="line"/>
			<point x="125" y="379"/>
			<point x="18" y="291"/>
			<point x="18" y="142" type="curve" smooth="yes"/>
			<point x="18" y="58"/>
			<point x="68" y="-15"/>
		</contour>
	</outline>
</glyph>
<glyph name="epsilon" format="2">
	<unicode hex="03B5"/>
	<advance width="420"/>
	<outline>
		<contour>
			<point x="178" y="-15" type="curve" smooth="yes"/>
			<point x="271" y="-15"/>
			<point x="346" y="25"/>
			<point x="398" y="91" type="curve"/>
			<point x="385" y="104" type="line"/>
			<point x="329" y="65"/>
			<point x="278" y="54"/>
			<point x="230" y="54" type="curve" smooth="yes"/>
			<point x="169" y="54"/>
			<point x="144" y="85"/>
			<point x="144" y="125" type="curve" smooth="yes"/>
			<point x="144" y="181"/>
			<point x="192" y="219"/>
			<point x="262" y="219" type="curve" smooth="yes"/>
			<point x="279" y="219"/>
			<point x="291" y="218"/>
			<point x="303" y="216" type="curve"/>
			<point x="314" y="272" type="line"/>
			<point x="287" y="269"/>
			<point x="280" y="269"/>
			<point x="261" y="269" type="curve" smooth="yes"/>
			<point x="203" y="269"/>
			<point x="178" y="305"/>
			<point x="178" y="346" type="curve" smooth="yes"/>
			<point x="178" y="414"/>
			<point x="227" y="448"/>
			<point x="282" y="448" type="curve" smooth="yes"/>
			<point x="289" y="448"/>
			<point x="294" y="447"/>
			<point x="301" y="447" type="curve"/>
			<point x="295" y="459" type="line"/>
			<point x="261" y="457" type="line"/>
			<point x="298" y="394" type="line" smooth="yes"/>
			<point x="314" y="365"/>
			<point x="331" y="348"/>
			<point x="361" y="348" type="curve" smooth="yes"/>
			<point x="394" y="348"/>
			<point x="418" y="365"/>
			<point x="423" y="406" type="curve"/>
			<point x="414" y="437"/>
			<point x="370" y="473"/>
			<point x="275" y="473" type="curve" smooth="yes"/>
			<point x="147" y="473"/>
			<point x="61" y="419"/>
			<point x="61" y="332" type="curve" smooth="yes"/>
			<point x="61" y="277"/>
			<point x="105" y="233"/>
			<point x="205" y="231" type="curve"/>
			<point x="211" y="243" type="line"/>
			<point x="70" y="235"/>
			<point x="10" y="178"/>
			<point x="10" y="102" type="curve" smooth="yes"/>
			<point x="10" y="27"/>
			<point x="85" y="-15"/>
		</contour>
	</outline>
	<anchor name="aboveLC" x="267" y="478"/>
	<anchor name="belowLC" x="173" y="-20"/>
</glyph>
<glyph name="eta" format="2">
	<unicode hex="03B7"/>
	<advance width="519"/>
	<outline>
		<contour>
			<point x="19" y="-3" type="curve"/>
			<point x="31" y="-15" type="line"/>
			<point x="161" y="8" type="line"/>
			<point x="224" y="345" type="line"/>
			<point x="237" y="413"/>
			<point x="219" y="471"/>
			<point x="150" y="471" type="curve" smooth="yes"/>
			<point x="100" y="471"/>
			<point x="55" y="443"/>
			<point x="20" y="393" type="curve"/>
			<point x="30" y="378" type="line"/>
			<point x="44" y="387"/>
			<point x="62" y="396"/>
			<point x="77" y="396" type="curve" smooth="yes"/>
			<point x="106" y="396"/>
			<point x="113" y="366"/>
			<point x="98" y="307" type="curve" smooth="yes"/>
			<point x="72" y="203"/>
			<point x="45" y="100"/>
		</contour>
		<contour>
			<point x="238" y="-201" type="line"/>
			<point x="250" y="-212" type="line"/>
			<point x="388" y="-188" type="line"/>
			<point x="439" y="83" type="line" smooth="yes"/>
			<point x="478" y="297"/>
			<point x="484" y="331"/>
			<point x="484" y="360" type="curve" smooth="yes"/>
			<point x="484" y="442"/>
			<point x="440" y="471"/>
			<point x="387" y="471" type="curve" smooth="yes"/>
			<point x="327" y="471"/>
			<point x="272" y="434"/>
			<point x="204" y="343" type="curve"/>
			<point x="195" y="343" type="line"/>
			<point x="195" y="313" type="line"/>
			<point x="235" y="364"/>
			<point x="279" y="393"/>
			<point x="322" y="393" type="curve" smooth="yes"/>
			<point x="347" y="393"/>
			<point x="364" y="381"/>
			<point x="364" y="344" type="curve" smooth="yes"/>
			<point x="364" y="319"/>
			<point x="354" y="270"/>
			<point x="297" y="37" type="curve" smooth="yes"/>
		</contour>
	</outline>
	<anchor name="aboveLC" x="292" y="478"/>
	<anchor name="belowLC" x="81" y="-20"/>
</glyph>
<glyph name="theta" format="2">
	<unicode hex="03B8"/>
	<advance width="515"/>
	<outline>
		<contour>
			<point x="204" y="-15" type="curve" smooth="yes"/>
			<point x="426" y="-15"/>
			<point x="524" y="330"/>
			<point x="524" y="522" type="curve" smooth="yes"/>
			<point x="524" y="656"/>
			<point x="463" y="729"/>
			<point x="360" y="729" type="curve" smooth="yes"/>
			<point x="137" y="729"/>
			<point x="40" y="385"/>
			<point x="40" y="192" type="curve" smooth="yes"/>
			<point x="40" y="55"/>
			<point x="101" y="-15"/>
		</contour>
		<contour>
			<point x="208" y="11" type="curve" smooth="yes"/>
			<point x="175" y="11"/>
			<point x="160" y="43"/>
			<point x="160" y="118" type="curve" smooth="yes"/>
			<point x="160" y="239"/>
			<point x="244" y="704"/>
			<point x="356" y="704" type="curve" smooth="yes"/>
			<point x="389" y="704"/>
			<point x="404" y="671"/>
			<point x="404" y="597" type="curve" smooth="yes"/>
			<point x="404" y="476"/>
			<point x="319" y="11"/>
		</contour>
		<contour>
			<point x="107" y="335" type="line"/>
			<point x="446" y="335" type="line"/>
			<point x="460" y="391" type="line"/>
			<point x="121" y="391" type="line"/>
		</contour>
	</outline>
</glyph>
<glyph name="nu" format="2">
	<unicode hex="03BD"/>
	<advance width="486"/>
	<outline>
		<contour>
			<point x="141" y="-2" type="curve"/>
			<point x="151" y="-15" type="line"/>
			<point x="237" y="-1" type="line"/>
			<point x="300" y="73"/>
			<point x="374" y="170"/>
			<point x="426" y="261" type="curve" smooth="yes"/>
			<point x="462" y="324"/>
			<point x="483" y="378"/>
			<point x="483" y="424" type="curve" smooth="yes"/>
			<point x="483" y="435"/>
			<point x="481" y="445"/>
			<point x="479" y="455" type="curve"/>
			<point x="468" y="464"/>
			<point x="455" y="472"/>
			<point x="434" y="472" type="curve" smooth="yes"/>
			<point x="388" y="472"/>
			<point x="369" y="437"/>
			<point x="369" y="385" type="curve" smooth="yes"/>
			<point x="369" y="355"/>
			<point x="375" y="313"/>
			<point x="389" y="266" type="curve" smooth="yes"/>
			<point x="397" y="234" type="line"/>
			<point x="420" y="324" type="line"/>
			<point x="413" y="307"/>
			<point x="406" y="291"/>
			<point x="397" y="273" type="curve" smooth="yes"/>
			<point x="348" y="177"/>
			<point x="279" y="86"/>
			<point x="229" y="24" type="curve"/>
			<point x="252" y="26" type="line"/>
			<point x="252" y="121"/>
			<point x="244" y="233"/>
			<point x="237" y="314" type="curve" smooth="yes"/>
			<point x="230" y="433"/>
			<point x="212" y="471"/>
			<point x="146" y="471" type="curve" smooth="yes"/>
			<point x="106" y="471"/>
			<point x="63" y="451"/>
			<point x="21" y="395" type="curve"/>
			<point x="31" y="380" type="line"/>
			<point x="46" y="387"/>
			<point x="61" y="395"/>
			<point x="75" y="395" type="curve" smooth="yes"/>
			<point x="100" y="395"/>
			<point x="106" y="376"/>
			<point x="114" y="298" type="curve" smooth="yes"/>
			<point x="128" y="178"/>
			<point x="135" y="92"/>
		</contour>
	</outline>
</glyph>
<glyph name="upsilon" format="2">
	<unicode hex="03C5"/>
	<advance width="475"/>
	<outline>
		<contour>
			<point x="204" y="-15" type="curve" smooth="yes"/>
			<point x="412" y="-15"/>
			<point x="448" y="213"/>
			<point x="448" y="373" type="curve" smooth="yes"/>
			<point x="448" y="405"/>
			<point x="447" y="428"/>
			<point x="443" y="452" type="curve"/>
			<point x="432" y="465"/>
			<point x="418" y="471"/>
			<point x="401" y="471" type="curve" smooth="yes"/>
			<point x="363" y="471"/>
			<point x="338" y="441"/>
			<point x="338" y="404" type="curve" smooth="yes"/>
			<point x="338" y="356"/>
			<point x="373" y="302"/>
			<point x="423" y="221" type="curve"/>
			<point x="419" y="266" type="line"/>
			<point x="413" y="313" type="line"/>
			<point x="410" y="283"/>
			<point x="407" y="258"/>
			<point x="404" y="242" type="curve" smooth="yes"/>
			<point x="388" y="102"/>
			<point x="318" y="48"/>
			<point x="257" y="48" type="curve" smooth="yes"/>
			<point x="208" y="48"/>
			<point x="176" y="71"/>
			<point x="176" y="130" type="curve" smooth="yes"/>
			<point x="176" y="206"/>
			<point x="225" y="333"/>
			<point x="225" y="389" type="curve" smooth="yes"/>
			<point x="225" y="443"/>
			<point x="196" y="471"/>
			<point x="146" y="471" type="curve" smooth="yes"/>
			<point x="96" y="471"/>
			<point x="52" y="447"/>
			<point x="17" y="398" type="curve"/>
			<point x="27" y="383" type="line"/>
			<point x="42" y="391"/>
			<point x="57" y="395"/>
			<point x="72" y="395" type="curve" smooth="yes"/>
			<point x="88" y="395"/>
			<point x="98" y="387"/>
			<point x="98" y="366" type="curve" smooth="yes"/>
			<point x="98" y="315"/>
			<point x="48" y="191"/>
			<point x="48" y="114" type="curve" smooth="yes"/>
			<point x="48" y="22"/>
			<point x="117" y="-15"/>
		</contour>
	</outline>
	<anchor name="aboveLC" x="282" y="478"/>
</glyph>
<glyph name="chi" format="2">
	<unicode hex="03C7"/>
	<advance width="520"/>
	<outline>
		<contour>
			<point x="-41" y="-198" type="line"/>
			<point x="90" y="-211" type="line"/>
			<point x="260" y="71" type="line"/>
			<point x="275" y="82" type="line"/>
			<point x="545" y="445" type="line"/>
			<point x="541" y="460" type="line"/>
			<point x="409" y="473" type="line"/>
			<point x="244" y="200" type="line"/>
			<point x="228" y="189" type="line"/>
			<point x="-45" y="-183" type="line"/>
		</contour>
		<contour>
			<point x="230" y="144" type="line"/>
			<point x="267" y="158" type="line"/>
			<point x="255" y="158" type="line"/>
			<point x="218" y="332" type="line" smooth="yes"/>
			<point x="197" y="433"/>
			<point x="172" y="475"/>
			<point x="112" y="475" type="curve" smooth="yes"/>
			<point x="73" y="475"/>
			<point x="36" y="449"/>
			<point x="18" y="404" type="curve"/>
			<point x="24" y="389" type="line"/>
			<point x="36" y="395"/>
			<point x="56" y="399"/>
			<point x="79" y="399" type="curve" smooth="yes"/>
			<point x="142" y="399"/>
			<point x="185" y="345"/>
			<point x="205" y="245" type="curve" smooth="yes"/>
		</contour>
		<contour>
			<point x="390" y="-211" type="curve" smooth="yes"/>
			<point x="428" y="-211"/>
			<point x="468" y="-183"/>
			<point x="487" y="-136" type="curve"/>
			<point x="480" y="-122" type="line"/>
			<point x="467" y="-129"/>
			<point x="447" y="-135"/>
			<point x="424" y="-135" type="curve" smooth="yes"/>
			<point x="361" y="-135"/>
			<point x="318" y="-82"/>
			<point x="297" y="19" type="curve" smooth="yes"/>
			<point x="271" y="122" type="line"/>
			<point x="236" y="117" type="line"/>
			<point x="247" y="108" type="line"/>
			<point x="285" y="-68" type="line" smooth="yes"/>
			<point x="305" y="-169"/>
			<point x="329" y="-211"/>
		</contour>
	</outline>
</glyph>
<glyph name="psi" format="2">
	<unicode hex="03C8"/>
	<advance width="627"/>
	<outline>
		<contour>
			<point x="221" y="-212" type="line"/>
			<point x="345" y="-188" type="line"/>
			<point x="373" y="17" type="line"/>
			<point x="455" y="620" type="line"/>
			<point x="446" y="628" type="line"/>
			<point x="391" y="618" type="line"/>
			<point x="257" y="16" type="line"/>
			<point x="210" y="-201" type="line"/>
		</contour>
		<contour>
			<point x="268" y="-15" type="curve"/>
			<point x="283" y="43" type="line"/>
			<point x="202" y="43"/>
			<point x="171" y="92"/>
			<point x="173" y="153" type="curve" smooth="yes"/>
			<point x="176" y="219"/>
			<point x="225" y="333"/>
			<point x="225" y="389" type="curve" smooth="yes"/>
			<point x="225" y="443"/>
			<point x="196" y="471"/>
			<point x="146" y="471" type="curve" smooth="yes"/>
			<point x="96" y="471"/>
			<point x="52" y="447"/>
			<point x="17" y="398" type="curve"/>
			<point x="27" y="383" type="line"/>
			<point x="42" y="391"/>
			<point x="57" y="395"/>
			<point x="72" y="395" type="curve" smooth="yes"/>
			<point x="88" y="395"/>
			<point x="98" y="387"/>
			<point x="98" y="366" type="curve" smooth="yes"/>
			<point x="98" y="315"/>
			<point x="49" y="217"/>
			<point x="49" y="143" type="curve" smooth="yes"/>
			<point x="49" y="50"/>
			<point x="112" y="-15"/>
		</contour>
		<contour>
			<point x="328" y="-15" type="line"/>
			<point x="566" y="-15"/>
			<point x="600" y="209"/>
			<point x="600" y="373" type="curve" smooth="yes"/>
			<point x="600" y="405"/>
			<point x="599" y="428"/>
			<point x="594" y="452" type="curve"/>
			<point x="584" y="465"/>
			<point x="569" y="471"/>
			<point x="552" y="471" type="curve" smooth="yes"/>
			<point x="514" y="471"/>
			<point x="489" y="441"/>
			<point x="489" y="404" type="curve" smooth="yes"/>
			<point x="489" y="356"/>
			<point x="525" y="303"/>
			<point x="573" y="222" type="curve"/>
			<point x="568" y="271" type="line"/>
			<point x="562" y="313" type="line"/>
			<point x="559" y="283"/>
			<point x="559" y="258"/>
			<point x="556" y="242" type="curve" smooth="yes"/>
			<point x="534" y="105"/>
			<point x="473" y="41"/>
			<point x="337" y="42" type="curve"/>
		</contour>
	</outline>
</glyph>
<glyph name="omega" format="2">
	<unicode hex="03C9"/>
	<advance width="700"/>
	<outline>
		<contour>
			<point x="173" y="-15" type="curve" smooth="yes"/>
			<point x="259" y="-15"/>
			<point x="325" y="49"/>
			<point x="343" y="155" type="curve"/>
			<point x="334" y="155" type="line"/>
			<point x="314" y="44"/>
			<point x="364" y="-15"/>
			<point x="444" y="-15" type="curve" smooth="yes"/>
			<point x="561" y="-15"/>
			<point x="672" y="70"/>
			<point x="672" y="248" type="curve" smooth="yes"/>
			<point x="672" y="362"/>
			<point x="600" y="436"/>
			<point x="507" y="473" type="curve"/>
			<point x="496" y="458" type="line"/>
			<point x="530" y="416"/>
			<point x="547" y="361"/>
			<point x="547" y="292" type="curve" smooth="yes"/>
			<point x="547" y="211"/>
			<point x="519" y="54"/>
			<point x="435" y="54" type="curve" smooth="yes"/>
			<point x="407" y="54"/>
			<point x="388" y="70"/>
			<point x="388" y="114" type="curve" smooth="yes"/>
			<point x="388" y="128"/>
			<point x="389" y="151"/>
			<point x="394" y="176" type="curve" smooth="yes"/>
			<point x="427" y="333" type="line"/>
			<point x="415" y="344" type="line"/>
			<point x="313" y="318" type="line"/>
			<point x="289" y="170" type="line" smooth="yes"/>
			<point x="274" y="80"/>
			<point x="239" y="54"/>
			<point x="204" y="54" type="curve" smooth="yes"/>
			<point x="170" y="54"/>
			<point x="147" y="82"/>
			<point x="147" y="146" type="curve" smooth="yes"/>
			<point x="147" y="258"/>
			<point x="191" y="381"/>
			<point x="286" y="458" type="curve"/>
			<point x="278" y="473" type="line"/>
			<point x="143" y="433"/>
			<point x="20" y="339"/>
			<point x="20" y="147" type="curve" smooth="yes"/>
			<point x="20" y="47"/>
			<point x="82" y="-15"/>
		</contour>
	</outline>
	<anchor name="aboveLC" x="389" y="478"/>
	<anchor name="belowLC" x="313" y="-20"/>
</glyph>
<glyph name="kai" format="2">
	<unicode hex="03D7"/>
	<advance width="522"/>
	<outline>
		<contour>
			<point x="30" y="-15" type="line"/>
			<point x="161" y="8" type="line"/>
			<point x="223" y="345" type="line" smooth="yes"/>
			<point x="236" y="413"/>
			<point x="218" y="471"/>
			<point x="149" y="471" type="curve" smooth="yes"/>
			<point x="99" y="471"/>
			<point x="55" y="443"/>
			<point x="19" y="393" type="curve"/>
			<point x="29" y="378" type="line"/>
			<point x="44" y="387"/>
			<point x="61" y="396"/>
			<point x="76" y="396" type="curve" smooth="yes"/>
			<point x="105" y="396"/>
			<point x="112" y="367"/>
			<point x="97" y="308" type="curve" smooth="yes"/>
			<point x="71" y="204"/>
			<point x="45" y="100"/>
			<point x="18" y="-3" type="curve"/>
		</contour>
		<contour>
			<point x="166" y="-212" type="curve" smooth="yes"/>
			<point x="315" y="-212"/>
			<point x="429" y="-119"/>
			<point x="500" y="74" type="curve"/>
			<point x="485" y="91" type="line"/>
			<point x="465" y="71"/>
			<point x="449" y="61"/>
			<point x="436" y="61" type="curve" smooth="yes"/>
			<point x="414" y="61"/>
			<point x="403" y="75"/>
			<point x="391" y="108" type="curve" smooth="yes"/>
			<point x="379" y="141" type="line" smooth="yes"/>
			<point x="357" y="200"/>
			<point x="323" y="223"/>
			<point x="257" y="231" type="curve" smooth="yes"/>
			<point x="209" y="236" type="line"/>
			<point x="202" y="230" type="line"/>
			<point x="414" y="315" type="line" smooth="yes"/>
			<point x="488" y="344"/>
			<point x="511" y="365"/>
			<point x="511" y="405" type="curve" smooth="yes"/>
			<point x="511" y="440"/>
			<point x="487" y="466"/>
			<point x="448" y="472" type="curve"/>
			<point x="197" y="244" type="line"/>
			<point x="188" y="235" type="line"/>
			<point x="183" y="235" type="line"/>
			<point x="183" y="217" type="line"/>
			<point x="203" y="214" type="line" smooth="yes"/>
			<point x="227" y="210"/>
			<point x="239" y="190"/>
			<point x="255" y="130" type="curve" smooth="yes"/>
			<point x="270" y="73" type="line" smooth="yes"/>
			<point x="286" y="10"/>
			<point x="317" y="-15"/>
			<point x="366" y="-15" type="curve" smooth="yes"/>
			<point x="404" y="-15"/>
			<point x="441" y="3"/>
			<point x="470" y="35" type="curve"/>
			<point x="470" y="41" type="line"/>
			<point x="463" y="41" type="line"/>
			<point x="381" y="-72"/>
			<point x="272" y="-114"/>
			<point x="157" y="-114" type="curve" smooth="yes"/>
			<point x="74" y="-114"/>
			<point x="18" y="-92"/>
			<point x="-32" y="-60" type="curve"/>
			<point x="-52" y="-78" type="line"/>
			<point x="-3" y="-169"/>
			<point x="84" y="-212"/>
		</contour>
	</outline>
</glyph>
<glyph name="Dje" format="2">
	<unicode hex="0402"/>
	<advance width="674"/>
	<outline>
		<contour>
			<point x="357" y="-56" type="line"/>
			<point x="588" y="-43"/>
			<point x="639" y="112"/>
			<point x="639" y="239" type="curve" smooth="yes"/>
			<point x="639" y="337"/>
			<point x="575" y="379"/>
			<point x="488" y="379" type="curve" smooth="yes"/>
			<point x="417" y="379"/>
			<point x="352" y="346"/>
			<point x="285" y="311" type="curve"/>
			<point x="285" y="305" type="line"/>
			<point x="357" y="329"/>
			<point x="392" y="335"/>
			<point x="434" y="335" type="curve" smooth="yes"/>
			<point x="478" y="335"/>
			<point x="509" y="305"/>
			<point x="509" y="242" type="curve" smooth="yes"/>
			<point x="509" y="71"/>
			<point x="434" y="-20"/>
			<point x="357" y="-38" type="curve"/>
		</contour>
		<contour>
			<point x="76" y="469" type="line"/>
			<point x="98" y="469" type="line"/>
			<point x="200" y="645" type="line"/>
			<point x="158" y="630" type="line"/>
			<point x="563" y="630" type="line"/>
			<point x="530" y="645" type="line"/>
			<point x="575" y="469" type="line"/>
			<point x="597" y="469" type="line"/>
			<point x="618" y="657" type="line"/>
			<point x="112" y="657" type="line"/>
		</contour>
		<contour>
			<point x="100" y="0" type="line"/>
			<point x="283" y="0" type="line"/>
			<point x="283" y="37" type="line"/>
			<point x="217" y="37" type="line"/>
			<point x="105" y="22" type="line"/>
		</contour>
		<contour>
			<point x="176" y="0" type="line"/>
			<point x="311" y="0" type="line"/>
			<point x="328" y="103"/>
			<point x="345" y="207"/>
			<point x="365" y="311" type="curve" smooth="yes"/>
			<point x="432" y="657" type="line"/>
			<point x="296" y="657" type="line"/>
			<point x="280" y="554"/>
			<point x="262" y="450"/>
			<point x="242" y="346" type="curve" smooth="yes"/>
		</contour>
	</outline>
</glyph>
<glyph name="Ieukran" format="2">
	<unicode hex="0404"/>
	<advance width="558"/>
	<outline>
		<contour>
			<point x="159" y="324" type="line"/>
			<point x="353" y="324" type="line"/>
			<point x="358" y="353" type="line"/>
			<point x="164" y="353" type="line"/>
		</contour>
		<contour>
			<point x="354" y="225" type="line"/>
			<point x="375" y="225" type="line"/>
			<point x="417" y="451" type="line"/>
			<point x="396" y="451" type="line"/>
			<point x="342" y="346" type="line"/>
			<point x="338" y="329" type="line"/>
		</contour>
		<component base="C"/>
	</outline>
	<anchor name="aboveUC" x="397" y="677"/>
</glyph>
<glyph name="Nje" format="2">
	<unicode hex="040A"/>
	<advance width="876"/>
	<outline>
		<contour>
			<point x="453" y="0" type="line"/>
			<point x="560" y="0" type="line" smooth="yes"/>
			<point x="766" y="0"/>
			<point x="851" y="101"/>
			<point x="851" y="224" type="curve" smooth="yes"/>
			<point x="851" y="315"/>
			<point x="786" y="368"/>
			<point x="656" y="368" type="curve" smooth="yes"/>
			<point x="600" y="368"/>
			<point x="554" y="357"/>
			<point x="517" y="349" type="curve"/>
			<point x="512" y="322" type="line"/>
			<point x="549" y="331"/>
			<point x="583" y="338"/>
			<point x="624" y="338" type="curve" smooth="yes"/>
			<point x="686" y="338"/>
			<point x="720" y="299"/>
			<point x="720" y="228" type="curve" smooth="yes"/>
			<point x="720" y="112"/>
			<point x="655" y="27"/>
			<point x="562" y="27" type="curve" smooth="yes"/>
			<point x="457" y="27" type="line"/>
		</contour>
		<contour>
			<point x="5" y="0" type="line"/>
			<point x="268" y="0" type="line"/>
			<point x="272" y="22" type="line"/>
			<point x="173" y="37" type="line"/>
			<point x="111" y="37" type="line"/>
			<point x="9" y="22" type="line"/>
		</contour>
		<contour>
			<point x="67" y="0" type="line"/>
			<point x="206" y="0" type="line"/>
			<point x="221" y="102"/>
			<point x="237" y="207"/>
			<point x="257" y="311" type="curve" smooth="yes"/>
			<point x="324" y="657" type="line"/>
			<point x="185" y="657" type="line"/>
			<point x="170" y="555"/>
			<point x="154" y="449"/>
			<point x="134" y="345" type="curve" smooth="yes"/>
		</contour>
		<contour>
			<point x="120" y="635" type="line"/>
			<point x="218" y="621" type="line"/>
			<point x="280" y="621" type="line"/>
			<point x="383" y="635" type="line"/>
			<point x="388" y="657" type="line"/>
			<point x="124" y="657" type="line"/>
		</contour>
		<contour>
			<point x="390" y="0" type="line"/>
			<point x="529" y="0" type="line"/>
			<point x="544" y="102"/>
			<point x="560" y="207"/>
			<point x="580" y="311" type="curve" smooth="yes"/>
			<point x="646" y="657" type="line"/>
			<point x="508" y="657" type="line"/>
			<point x="492" y="555"/>
			<point x="476" y="449"/>
			<point x="456" y="345" type="curve" smooth="yes"/>
		</contour>
		<contour>
			<point x="442" y="635" type="line"/>
			<point x="541" y="621" type="line"/>
			<point x="603" y="621" type="line"/>
			<point x="706" y="635" type="line"/>
			<point x="710" y="657" type="line"/>
			<point x="447" y="657" type="line"/>
		</contour>
		<contour>
			<point x="327" y="0" type="line"/>
			<point x="495" y="0" type="line"/>
			<point x="496" y="37" type="line"/>
			<point x="434" y="37" type="line"/>
			<point x="332" y="22" type="line"/>
		</contour>
		<contour>
			<point x="188" y="324" type="line"/>
			<point x="511" y="324" type="line"/>
			<point x="517" y="353" type="line"/>
			<point x="195" y="353" type="line"/>
		</contour>
	</outline>
</glyph>
<glyph name="Dzhe" format="2">
	<unicode hex="040F"/>
	<advance width="655"/>
	<outline>
		<contour>
			<point x="56" y="0" type="line"/>
			<point x="194" y="0" type="line"/>
			<point x="210" y="102"/>
			<point x="226" y="207"/>
			<point x="246" y="311" type="curve" smooth="yes"/>
			<point x="312" y="657" type="line"/>
			<point x="174" y="657" type="line"/>
			<point x="159" y="555"/>
			<point x="142" y="449"/>
			<point x="123" y="345" type="curve" smooth="yes"/>
		</contour>
		<contour>
			<point x="108" y="635" type="line"/>
			<point x="207" y="621" type="line"/>
			<point x="268" y="621" type="line"/>
			<point x="372" y="635" type="line"/>
			<point x="376" y="657" type="line"/>
			<point x="113" y="657" type="line"/>
		</contour>
		<contour>
			<point x="389" y="0" type="line"/>
			<point x="527" y="0" type="line"/>
			<point x="542" y="102"/>
			<point x="559" y="207"/>
			<point x="578" y="311" type="curve" smooth="yes"/>
			<point x="645" y="657" type="line"/>
			<point x="507" y="657" type="line"/>
			<point x="491" y="555"/>
			<point x="475" y="449"/>
			<point x="455" y="345" type="curve" smooth="yes"/>
		</contour>
		<contour>
			<point x="441" y="635" type="line"/>
			<point x="539" y="621" type="line"/>
			<point x="601" y="621" type="line"/>
			<point x="704" y="635" type="line"/>
			<point x="709" y="657" type="line"/>
			<point x="445" y="657" type="line"/>
		</contour>
		<contour>
			<point x="-7" y="0" type="line"/>
			<point x="160" y="0" type="line"/>
			<point x="162" y="37" type="line"/>
			<point x="100" y="37" type="line"/>
			<point x="-2" y="22" type="line"/>
		</contour>
		<contour>
			<point x="433" y="0" type="line"/>
			<point x="589" y="0" type="line"/>
			<point x="593" y="22" type="line"/>
			<point x="494" y="37" type="line"/>
			<point x="433" y="37" type="line"/>
		</contour>
		<contour>
			<point x="125" y="0" type="line"/>
			<point x="458" y="0" type="line"/>
			<point x="464" y="27" type="line"/>
			<point x="131" y="27" type="line"/>
		</contour>
		<contour>
			<point x="245" y="-175" type="line"/>
			<point x="266" y="-175" type="line"/>
			<point x="333" y="21" type="line"/>
			<point x="252" y="21" type="line"/>
		</contour>
	</outline>
</glyph>
<glyph name="De" format="2">
	<unicode hex="0414"/>
	<advance width="614"/>
	<outline>
		<contour>
			<point x="-43" y="-175" type="line"/>
			<point x="-22" y="-175" type="line"/>
			<point x="56" y="18" type="line"/>
			<point x="19" y="0" type="line"/>
			<point x="523" y="0" type="line"/>
			<point x="491" y="18" type="line"/>
			<point x="500" y="-175" type="line"/>
			<point x="522" y="-175" type="line"/>
			<point x="571" y="27" type="line"/>
			<point x="-20" y="27" type="line"/>
		</contour>
		<contour>
			<point x="342" y="0" type="line"/>
			<point x="480" y="0" type="line"/>
			<point x="495" y="102"/>
			<point x="512" y="207"/>
			<point x="531" y="311" type="curve" smooth="yes"/>
			<point x="598" y="657" type="line"/>
			<point x="460" y="657" type="line"/>
			<point x="444" y="555"/>
			<point x="428" y="449"/>
			<point x="408" y="345" type="curve" smooth="yes"/>
		</contour>
		<contour>
			<point x="218" y="635" type="line"/>
			<point x="319" y="621" type="line"/>
			<point x="323" y="621" type="line"/>
			<point x="331" y="657" type="line"/>
			<point x="221" y="657" type="line"/>
		</contour>
		<contour>
			<point x="493" y="621" type="line"/>
			<point x="554" y="621" type="line"/>
			<point x="658" y="635" type="line"/>
			<point x="662" y="657" type="line"/>
			<point x="494" y="657" type="line"/>
		</contour>
		<contour>
			<point x="75" y="6" type="line"/>
			<point x="203" y="149"/>
			<point x="267" y="401"/>
			<point x="334" y="657" type="curve"/>
			<point x="303" y="657" type="line"/>
			<point x="238" y="413"/>
			<point x="174" y="160"/>
			<point x="55" y="26" type="curve"/>
		</contour>
		<contour>
			<point x="309" y="630" type="line"/>
			<point x="489" y="630" type="line"/>
			<point x="493" y="657" type="line"/>
			<point x="313" y="657" type="line"/>
		</contour>
	</outline>
</glyph>
<glyph name="Pe" format="2">
	<unicode hex="041F"/>
	<advance width="659"/>
	<outline>
		<contour>
			<point x="-7" y="0" type="line"/>
			<point x="256" y="0" type="line"/>
			<point x="260" y="22" type="line"/>
			<point x="162" y="37" type="line"/>
			<point x="100" y="37" type="line"/>
			<point x="-2" y="22" type="line"/>
		</contour>
		<contour>
			<point x="56" y="0" type="line"/>
			<point x="194" y="0" type="line"/>
			<point x="210" y="102"/>
			<point x="226" y="207"/>
			<point x="246" y="311" type="curve" smooth="yes"/>
			<point x="312" y="657" type="line"/>
			<point x="174" y="657" type="line"/>
			<point x="159" y="555"/>
			<point x="142" y="449"/>
			<point x="123" y="345" type="curve" smooth="yes"/>
		</contour>
		<contour>
			<point x="108" y="635" type="line"/>
			<point x="207" y="621" type="line"/>
			<point x="268" y="657" type="line"/>
			<point x="113" y="657" type="line"/>
		</contour>
		<contour>
			<point x="236" y="630" type="line"/>
			<point x="572" y="630" type="line"/>
			<point x="579" y="657" type="line"/>
			<point x="242" y="657" type="line"/>
		</contour>
		<contour>
			<point x="331" y="0" type="line"/>
			<point x="593" y="0" type="line"/>
			<point x="597" y="22" type="line"/>
			<point x="498" y="37" type="line"/>
			<point x="437" y="37" type="line"/>
			<point x="335" y="22" type="line"/>
		</contour>
		<contour>
			<point x="393" y="0" type="line"/>
			<point x="531" y="0" type="line"/>
			<point x="546" y="102"/>
			<point x="563" y="207"/>
			<point x="582" y="311" type="curve" smooth="yes"/>
			<point x="649" y="657" type="line"/>
			<point x="511" y="657" type="line"/>
			<point x="495" y="555"/>
			<point x="479" y="449"/>
			<point x="459" y="345" type="curve" smooth="yes"/>
		</contour>
		<contour>
			<point x="605" y="621" type="line"/>
			<point x="708" y="635" type="line"/>
			<point x="713" y="657" type="line"/>
			<point x="544" y="657" type="line"/>
		</contour>
	</outline>
</glyph>
<glyph name="Ef" format="2">
	<unicode hex="0424"/>
	<advance width="717"/>
	<outline>
		<contour>
			<point x="290" y="99" type="curve" smooth="yes"/>
			<point x="330" y="99" type="line"/>
			<point x="336" y="124" type="line"/>
			<point x="284" y="124" type="line" smooth="yes"/>
			<point x="215" y="124"/>
			<point x="173" y="183"/>
			<point x="173" y="270" type="curve" smooth="yes"/>
			<point x="173" y="413"/>
			<point x="258" y="537"/>
			<point x="360" y="537" type="curve" smooth="yes"/>
			<point x="414" y="537" type="line"/>
			<point x="421" y="562" type="line"/>
			<point x="376" y="562" type="line" smooth="yes"/>
			<point x="177" y="562"/>
			<point x="49" y="450"/>
			<point x="49" y="287" type="curve" smooth="yes"/>
			<point x="49" y="166"/>
			<point x="137" y="99"/>
		</contour>
		<contour>
			<point x="338" y="99" type="line"/>
			<point x="382" y="99" type="line" smooth="yes"/>
			<point x="581" y="99"/>
			<point x="709" y="211"/>
			<point x="709" y="373" type="curve" smooth="yes"/>
			<point x="709" y="495"/>
			<point x="622" y="562"/>
			<point x="468" y="562" type="curve" smooth="yes"/>
			<point x="431" y="562" type="line"/>
			<point x="423" y="537" type="line"/>
			<point x="474" y="537" type="line" smooth="yes"/>
			<point x="544" y="537"/>
			<point x="585" y="477"/>
			<point x="585" y="391" type="curve" smooth="yes"/>
			<point x="585" y="247"/>
			<point x="501" y="124"/>
			<point x="398" y="124" type="curve" smooth="yes"/>
			<point x="344" y="124" type="line"/>
		</contour>
		<contour>
			<point x="190" y="-15" type="line"/>
			<point x="447" y="-15" type="line"/>
			<point x="451" y="7" type="line"/>
			<point x="352" y="22" type="line"/>
			<point x="297" y="22" type="line"/>
			<point x="195" y="7" type="line"/>
		</contour>
		<contour>
			<point x="253" y="-15" type="line"/>
			<point x="385" y="-15" type="line"/>
			<point x="400" y="87"/>
			<point x="418" y="207"/>
			<point x="438" y="311" type="curve" smooth="yes"/>
			<point x="506" y="666" type="line"/>
			<point x="374" y="666" type="line"/>
			<point x="359" y="564"/>
			<point x="341" y="449"/>
			<point x="321" y="345" type="curve" smooth="yes"/>
		</contour>
		<contour>
			<point x="308" y="644" type="line"/>
			<point x="407" y="629" type="line"/>
			<point x="462" y="629" type="line"/>
			<point x="565" y="644" type="line"/>
			<point x="570" y="666" type="line"/>
			<point x="313" y="666" type="line"/>
		</contour>
	</outline>
</glyph>
<glyph name="Ecyr" format="2">
	<unicode hex="042D"/>
	<advance width="560"/>
	<outline>
		<contour>
			<point x="195" y="-16" type="curve" smooth="yes"/>
			<point x="434" y="-16"/>
			<point x="554" y="206"/>
			<point x="554" y="404" type="curve" smooth="yes"/>
			<point x="554" y="572"/>
			<point x="443" y="673"/>
			<point x="293" y="673" type="curve" smooth="yes"/>
			<point x="228" y="673"/>
			<point x="180" y="660"/>
			<point x="129" y="634" type="curve"/>
			<point x="108" y="473" type="line"/>
			<point x="130" y="473" type="line"/>
			<point x="219" y="646" type="line"/>
			<point x="196" y="628" type="line"/>
			<point x="228" y="643"/>
			<point x="259" y="647"/>
			<point x="294" y="647" type="curve" smooth="yes"/>
			<point x="370" y="647"/>
			<point x="422" y="578"/>
			<point x="422" y="448" type="curve" smooth="yes"/>
			<point x="422" y="248"/>
			<point x="333" y="10"/>
			<point x="180" y="10" type="curve" smooth="yes"/>
			<point x="154" y="10"/>
			<point x="126" y="14"/>
			<point x="101" y="27" type="curve"/>
			<point x="118" y="11" type="line"/>
			<point x="75" y="194" type="line"/>
			<point x="53" y="194" type="line"/>
			<point x="32" y="25" type="line"/>
			<point x="74" y="-5"/>
			<point x="140" y="-16"/>
		</contour>
		<contour>
			<point x="188" y="225" type="line"/>
			<point x="209" y="225" type="line"/>
			<point x="262" y="329" type="line"/>
			<point x="265" y="346" type="line"/>
			<point x="251" y="451" type="line"/>
			<point x="230" y="451" type="line"/>
		</contour>
		<contour>
			<point x="247" y="324" type="line"/>
			<point x="440" y="324" type="line"/>
			<point x="446" y="353" type="line"/>
			<point x="252" y="353" type="line"/>
		</contour>
	</outline>
	<anchor name="aboveUC" x="326" y="677"/>
</glyph>
<glyph name="Yu" format="2">
	<unicode hex="042E"/>
	<advance width="892"/>
	<outline>
		<contour>
			<point x="184" y="321" type="line"/>
			<point x="415" y="321" type="line"/>
			<point x="415" y="350" type="line"/>
			<point x="184" y="350" type="line"/>
		</contour>
		<contour>
			<point x="554" y="-16" type="curve" smooth="yes"/>
			<point x="766" y="-16"/>
			<point x="887" y="218"/>
			<point x="887" y="433" type="curve" smooth="yes"/>
			<point x="887" y="596"/>
			<point x="801" y="673"/>
			<point x="678" y="673" type="curve" smooth="yes"/>
			<point x="466" y="673"/>
			<point x="345" y="438"/>
			<point x="345" y="223" type="curve" smooth="yes"/>
			<point x="345" y="61"/>
			<point x="432" y="-16"/>
		</contour>
		<contour>
			<point x="558" y="10" type="curve" smooth="yes"/>
			<point x="499" y="10"/>
			<point x="476" y="67"/>
			<point x="476" y="156" type="curve" smooth="yes"/>
			<point x="476" y="332"/>
			<point x="555" y="647"/>
			<point x="674" y="647" type="curve" smooth="yes"/>
			<point x="733" y="647"/>
			<point x="755" y="590"/>
			<point x="755" y="500" type="curve" smooth="yes"/>
			<point x="755" y="324"/>
			<point x="677" y="10"/>
		</contour>
		<component base="I"/>
	</outline>
	<anchor name="aboveUC" x="461" y="677"/>
</glyph>
<glyph name="be" format="2">
	<unicode hex="0431"/>
	<advance width="491"/>
	<outline>
		<contour>
			<point x="212" y="-15" type="curve" smooth="yes"/>
			<point x="362" y="-15"/>
			<point x="467" y="115"/>
			<point x="467" y="271" type="curve" smooth="yes"/>
			<point x="467" y="376"/>
			<point x="405" y="444"/>
			<point x="290" y="444" type="curve" smooth="yes"/>
			<point x="181" y="444"/>
			<point x="91" y="378"/>
			<point x="63" y="250" type="curve"/>
			<point x="63" y="241" type="line"/>
			<point x="87" y="397"/>
			<point x="116" y="488"/>
			<point x="156" y="526" type="curve" smooth="yes"/>
			<point x="224" y="592"/>
			<point x="451" y="581"/>
			<point x="500" y="620" type="curve" smooth="yes"/>
			<point x="531" y="644"/>
			<point x="547" y="702"/>
			<point x="560" y="766" type="curve"/>
			<point x="544" y="770" type="line"/>
			<point x="521" y="729" type="line"/>
			<point x="356" y="708"/>
			<point x="261" y="693"/>
			<point x="195" y="645" type="curve" smooth="yes"/>
			<point x="93" y="568"/>
			<point x="33" y="338"/>
			<point x="33" y="186" type="curve" smooth="yes"/>
			<point x="33" y="38"/>
			<point x="110" y="-15"/>
		</contour>
		<contour>
			<point x="209" y="11" type="curve" smooth="yes"/>
			<point x="173" y="11"/>
			<point x="154" y="35"/>
			<point x="154" y="108" type="curve" smooth="yes"/>
			<point x="154" y="190"/>
			<point x="176" y="288"/>
			<point x="209" y="351" type="curve"/>
			<point x="230" y="391"/>
			<point x="256" y="418"/>
			<point x="285" y="418" type="curve" smooth="yes"/>
			<point x="320" y="418"/>
			<point x="340" y="394"/>
			<point x="340" y="321" type="curve" smooth="yes"/>
			<point x="340" y="186"/>
			<point x="281" y="11"/>
		</contour>
	</outline>
</glyph>
<glyph name="ve" format="2">
	<unicode hex="0432"/>
	<advance width="472"/>
	<outline>
		<contour>
			<point x="198" y="-15" type="curve" smooth="yes"/>
			<point x="341" y="-15"/>
			<point x="430" y="52"/>
			<point x="430" y="137" type="curve" smooth="yes"/>
			<point x="430" y="204"/>
			<point x="375" y="235"/>
			<point x="276" y="241" type="curve"/>
			<point x="276" y="249" type="line"/>
			<point x="239" y="239" type="line"/>
			<point x="289" y="225"/>
			<point x="309" y="180"/>
			<point x="309" y="128" type="curve" smooth="yes"/>
			<point x="309" y="59"/>
			<point x="271" y="11"/>
			<point x="215" y="11" type="curve" smooth="yes"/>
			<point x="169" y="11"/>
			<point x="149" y="45"/>
			<point x="149" y="106" type="curve" smooth="yes"/>
			<point x="149" y="200"/>
			<point x="184" y="338"/>
			<point x="236" y="406" type="curve" smooth="yes"/>
			<point x="257" y="431"/>
			<point x="280" y="447"/>
			<point x="305" y="447" type="curve" smooth="yes"/>
			<point x="335" y="447"/>
			<point x="351" y="423"/>
			<point x="351" y="384" type="curve" smooth="yes"/>
			<point x="351" y="308"/>
			<point x="306" y="251"/>
			<point x="130" y="241" type="curve"/>
			<point x="130" y="215" type="line"/>
			<point x="345" y="235"/>
			<point x="463" y="288"/>
			<point x="463" y="380" type="curve" smooth="yes"/>
			<point x="463" y="437"/>
			<point x="414" y="473"/>
			<point x="326" y="473" type="curve" smooth="yes"/>
			<point x="274" y="473"/>
			<point x="226" y="459"/>
			<point x="185" y="436" type="curve" smooth="yes"/>
			<point x="84" y="380"/>
			<point x="21" y="267"/>
			<point x="21" y="147" type="curve" smooth="yes"/>
			<point x="21" y="46"/>
			<point x="84" y="-15"/>
		</contour>
	</outline>
</glyph>
<glyph name="ka" format="2">
	<unicode hex="043A"/>
	<advance width="512"/>
	<outline>
		<contour>
			<point x="45" y="-8" type="line"/>
			<point x="165" y="0" type="line"/>
			<point x="170" y="68"/>
			<point x="183" y="138"/>
			<point x="197" y="204" type="curve" smooth="yes"/>
			<point x="227" y="341" type="line"/>
			<point x="252" y="462" type="line"/>
			<point x="237" y="473" type="line"/>
			<point x="48" y="421" type="line"/>
			<point x="45" y="404" type="line"/>
			<point x="130" y="382" type="line"/>
			<point x="114" y="395" type="line"/>
			<point x="31" y="3" type="line"/>
		</contour>
		<contour>
			<point x="475" y="1" type="curve"/>
			<point x="479" y="19" type="line"/>
			<point x="456" y="23" type="line" smooth="yes"/>
			<point x="430" y="26"/>
			<point x="422" y="53"/>
			<point x="404" y="87" type="curve" smooth="yes"/>
			<point x="378" y="140" type="line" smooth="yes"/>
			<point x="349" y="198"/>
			<point x="309" y="225"/>
			<point x="238" y="232" type="curve" smooth="yes"/>
			<point x="202" y="235" type="line"/>
			<point x="201" y="228" type="line"/>
			<point x="400" y="326" type="line" smooth="yes"/>
			<point x="459" y="353"/>
			<point x="491" y="363"/>
			<point x="491" y="410" type="curve" smooth="yes"/>
			<point x="491" y="442"/>
			<point x="463" y="466"/>
			<point x="435" y="468" type="curve"/>
			<point x="198" y="239" type="line"/>
			<point x="189" y="231" type="line"/>
			<point x="185" y="231" type="line"/>
			<point x="185" y="225" type="line"/>
			<point x="197" y="220" type="line" smooth="yes"/>
			<point x="224" y="210"/>
			<point x="231" y="195"/>
			<point x="247" y="152" type="curve" smooth="yes"/>
			<point x="274" y="74" type="line" smooth="yes"/>
			<point x="299" y="2"/>
			<point x="335" y="-14"/>
			<point x="394" y="-14" type="curve" smooth="yes"/>
			<point x="428" y="-14"/>
			<point x="452" y="-8"/>
		</contour>
	</outline>
	<anchor name="aboveLC" x="331" y="478"/>
</glyph>
<glyph name="el" format="2">
	<unicode hex="043B"/>
	<advance width="542"/>
	<outline>
		<contour>
			<point x="64" y="-15" type="curve" smooth="yes"/>
			<point x="97" y="-15"/>
			<point x="125" y="0"/>
			<point x="143" y="43" type="curve" smooth="yes"/>
			<point x="168" y="105"/>
			<point x="197" y="191"/>
			<point x="221" y="262" type="curve" smooth="yes"/>
			<point x="261" y="379"/>
			<point x="302" y="392"/>
			<point x="375" y="392" type="curve" smooth="yes"/>
			<point x="391" y="392"/>
			<point x="406" y="389"/>
			<point x="422" y="385" type="curve"/>
			<point x="363" y="437" type="line"/>
			<point x="357" y="374"/>
			<point x="346" y="319"/>
			<point x="333" y="253" type="curve" smooth="yes"/>
			<point x="306" y="130" type="line" smooth="yes"/>
			<point x="300" y="105"/>
			<point x="292" y="69"/>
			<point x="292" y="46" type="curve" smooth="yes"/>
			<point x="292" y="9"/>
			<point x="319" y="-15"/>
			<point x="360" y="-15" type="curve" smooth="yes"/>
			<point x="435" y="-15"/>
			<point x="489" y="46"/>
			<point x="522" y="104" type="curve"/>
			<point x="505" y="116" type="line"/>
			<point x="476" y="79"/>
			<point x="452" y="63"/>
			<point x="437" y="63" type="curve" smooth="yes"/>
			<point x="428" y="63"/>
			<point x="422" y="66"/>
			<point x="422" y="77" type="curve" smooth="yes"/>
			<point x="422" y="88"/>
			<point x="426" y="102"/>
			<point x="430" y="123" type="curve" smooth="yes"/>
			<point x="499" y="455" type="line"/>
			<point x="471" y="466"/>
			<point x="438" y="473"/>
			<point x="396" y="473" type="curve" smooth="yes"/>
			<point x="285" y="473"/>
			<point x="237" y="384"/>
			<point x="197" y="271" type="curve" smooth="yes"/>
			<point x="169" y="191"/>
			<point x="148" y="127"/>
			<point x="121" y="62" type="curve"/>
			<point x="135" y="55" type="line"/>
			<point x="146" y="68" type="line"/>
			<point x="129" y="83" type="line" smooth="yes"/>
			<point x="111" y="98"/>
			<point x="96" y="110"/>
			<point x="67" y="110" type="curve" smooth="yes"/>
			<point x="35" y="110"/>
			<point x="3" y="90"/>
			<point x="-6" y="49" type="curve"/>
			<point x="-2" y="3"/>
			<point x="31" y="-15"/>
		</contour>
	</outline>
</glyph>
<glyph name="sha" format="2">
	<unicode hex="0448"/>
	<advance width="787"/>
	<outline>
		<contour>
			<point x="117" y="-15" type="curve" smooth="yes"/>
			<point x="188" y="-15"/>
			<point x="252" y="37"/>
			<point x="323" y="115" type="curve"/>
			<point x="330" y="115" type="line"/>
			<point x="317" y="132" type="line"/>
			<point x="269" y="87"/>
			<point x="229" y="66"/>
			<point x="201" y="66" type="curve" smooth="yes"/>
			<point x="184" y="66"/>
			<point x="174" y="76"/>
			<point x="174" y="95" type="curve" smooth="yes"/>
			<point x="174" y="109"/>
			<point x="181" y="141"/>
			<point x="188" y="170" type="curve" smooth="yes"/>
			<point x="251" y="462" type="line"/>
			<point x="238" y="473" type="line"/>
			<point x="46" y="421" type="line"/>
			<point x="42" y="404" type="line"/>
			<point x="129" y="382" type="line"/>
			<point x="112" y="395" type="line"/>
			<point x="58" y="153" type="line" smooth="yes"/>
			<point x="51" y="123"/>
			<point x="44" y="93"/>
			<point x="44" y="63" type="curve" smooth="yes"/>
			<point x="44" y="11"/>
			<point x="74" y="-15"/>
		</contour>
		<contour>
			<point x="366" y="-15" type="curve" smooth="yes"/>
			<point x="437" y="-15"/>
			<point x="501" y="37"/>
			<point x="572" y="115" type="curve"/>
			<point x="579" y="115" type="line"/>
			<point x="566" y="132" type="line"/>
			<point x="518" y="87"/>
			<point x="478" y="66"/>
			<point x="450" y="66" type="curve" smooth="yes"/>
			<point x="433" y="66"/>
			<point x="423" y="76"/>
			<point x="423" y="95" type="curve" smooth="yes"/>
			<point x="423" y="109"/>
			<point x="431" y="143"/>
			<point x="436" y="170" type="curve" smooth="yes"/>
			<point x="497" y="462" type="line"/>
			<point x="484" y="473" type="line"/>
			<point x="359" y="437" type="line"/>
			<point x="354" y="374"/>
			<point x="344" y="321"/>
			<point x="329" y="255" type="curve" smooth="yes"/>
			<point x="307" y="153" type="line" smooth="yes"/>
			<point x="303" y="136"/>
			<point x="299" y="119"/>
			<point x="296" y="102" type="curve"/>
			<point x="297" y="102" type="line"/>
			<point x="295" y="87"/>
			<point x="293" y="76"/>
			<point x="293" y="63" type="curve" smooth="yes"/>
			<point x="293" y="11"/>
			<point x="323" y="-15"/>
		</contour>
		<contour>
			<point x="606" y="-15" type="curve" smooth="yes"/>
			<point x="681" y="-15"/>
			<point x="735" y="46"/>
			<point x="768" y="104" type="curve"/>
			<point x="750" y="116" type="line"/>
			<point x="722" y="79"/>
			<point x="698" y="63"/>
			<point x="683" y="63" type="curve" smooth="yes"/>
			<point x="674" y="63"/>
			<point x="668" y="66"/>
			<point x="668" y="77" type="curve" smooth="yes"/>
			<point x="668" y="88"/>
			<point x="672" y="102"/>
			<point x="676" y="123" type="curve" smooth="yes"/>
			<point x="747" y="462" type="line"/>
			<point x="734" y="473" type="line"/>
			<point x="609" y="437" type="line"/>
			<point x="603" y="374"/>
			<point x="592" y="319"/>
			<point x="579" y="253" type="curve" smooth="yes"/>
			<point x="547" y="111" type="line"/>
			<point x="546" y="105" type="line" smooth="yes"/>
			<point x="541" y="81"/>
			<point x="538" y="61"/>
			<point x="538" y="46" type="curve" smooth="yes"/>
			<point x="538" y="9"/>
			<point x="565" y="-15"/>
		</contour>
	</outline>
</glyph>
<glyph name="shcha" format="2">
	<unicode hex="0449"/>
	<advance width="787"/>
	<outline>
		<contour>
			<point x="559" y="-233" type="line"/>
			<point x="643" y="-226"/>
			<point x="693" y="-189"/>
			<point x="694" y="-119" type="curve" smooth="yes"/>
			<point x="695" y="-87" type="line" smooth="yes"/>
			<point x="696" y="-13"/>
			<point x="730" y="34"/>
			<point x="768" y="104" type="curve"/>
			<point x="748" y="104" type="line"/>
			<point x="692" y="28" type="line"/>
			<point x="705" y="13" type="line"/>
			<point x="645" y="-34"/>
			<point x="623" y="-62"/>
			<point x="613" y="-105" type="curve" smooth="yes"/>
			<point x="607" y="-137" type="line" smooth="yes"/>
			<point x="596" y="-182"/>
			<point x="581" y="-203"/>
			<point x="553" y="-214" type="curve"/>
		</contour>
		<component base="sha"/>
	</outline>
</glyph>
<glyph name="yeru" format="2">
	<unicode hex="044B"/>
	<advance width="724"/>
	<outline>
		<contour>
			<point x="544" y="-15" type="curve" smooth="yes"/>
			<point x="618" y="-15"/>
			<point x="673" y="46"/>
			<point x="705" y="104" type="curve"/>
			<point x="688" y="116" type="line"/>
			<point x="660" y="79"/>
			<point x="636" y="63"/>
			<point x="620" y="63" type="curve" smooth="yes"/>
			<point x="612" y="63"/>
			<point x="606" y="66"/>
			<point x="606" y="77" type="curve" smooth="yes"/>
			<point x="606" y="88"/>
			<point x="610" y="102"/>
			<point x="614" y="123" type="curve" smooth="yes"/>
			<point x="684" y="462" type="line"/>
			<point x="671" y="473" type="line"/>
			<point x="547" y="437" type="line"/>
			<point x="541" y="374"/>
			<point x="530" y="319"/>
			<point x="516" y="253" type="curve" smooth="yes"/>
			<point x="490" y="130" type="line" smooth="yes"/>
			<point x="484" y="105"/>
			<point x="476" y="69"/>
			<point x="476" y="46" type="curve" smooth="yes"/>
			<point x="476" y="9"/>
			<point x="502" y="-15"/>
		</contour>
		<component base="soft"/>
	</outline>
	<anchor name="aboveLC" x="392" y="478"/>
</glyph>
<glyph name="soft" format="2">
	<unicode hex="044C"/>
	<advance width="470"/>
	<outline>
		<contour>
			<point x="205" y="-15" type="curve" smooth="yes"/>
			<point x="339" y="-15"/>
			<point x="438" y="82"/>
			<point x="438" y="198" type="curve" smooth="yes"/>
			<point x="438" y="262"/>
			<point x="404" y="310"/>
			<point x="330" y="310" type="curve" smooth="yes"/>
			<point x="260" y="310"/>
			<point x="212" y="265"/>
			<point x="168" y="212" type="curve"/>
			<point x="161" y="212" type="line"/>
			<point x="177" y="201" type="line"/>
			<point x="208" y="229"/>
			<point x="237" y="247"/>
			<point x="269" y="247" type="curve" smooth="yes"/>
			<point x="295" y="247"/>
			<point x="316" y="232"/>
			<point x="316" y="187" type="curve" smooth="yes"/>
			<point x="316" y="95"/>
			<point x="270" y="12"/>
			<point x="221" y="12" type="curve" smooth="yes"/>
			<point x="184" y="12"/>
			<point x="168" y="36"/>
			<point x="168" y="91" type="curve" smooth="yes"/>
			<point x="168" y="134"/>
			<point x="184" y="196"/>
			<point x="194" y="229" type="curve"/>
			<point x="190" y="232" type="line"/>
			<point x="243" y="462" type="line"/>
			<point x="229" y="473" type="line"/>
			<point x="40" y="421" type="line"/>
			<point x="36" y="404" type="line"/>
			<point x="122" y="382" type="line"/>
			<point x="106" y="395" type="line"/>
			<point x="78" y="287"/>
			<point x="46" y="165"/>
			<point x="46" y="107" type="curve" smooth="yes"/>
			<point x="46" y="36"/>
			<point x="92" y="-15"/>
		</contour>
	</outline>
</glyph>
<glyph name="dje" format="2">
	<unicode hex="0452"/>
	<advance width="518"/>
	<outline>
		<contour>
			<point x="37" y="-8" type="line"/>
			<point x="157" y="0" type="line"/>
			<point x="163" y="68"/>
			<point x="176" y="138"/>
			<point x="190" y="204" type="curve" smooth="yes"/>
			<point x="215" y="325" type="line"/>
			<point x="217" y="331" type="line"/>
			<point x="297" y="720" type="line"/>
			<point x="284" y="730" type="line"/>
			<point x="92" y="678" type="line"/>
			<point x="89" y="662" type="line"/>
			<point x="176" y="639" type="line"/>
			<point x="154" y="656" type="line"/>
			<point x="145" y="592"/>
			<point x="133" y="524"/>
			<point x="119" y="459" type="curve" smooth="yes"/>
			<point x="24" y="3" type="line"/>
		</contour>
		<contour>
			<point x="71" y="548" type="line"/>
			<point x="400" y="548" type="line"/>
			<point x="405" y="574" type="line"/>
			<point x="76" y="574" type="line"/>
		</contour>
		<contour>
			<point x="140" y="-245" type="line"/>
			<point x="176" y="-236"/>
			<point x="213" y="-218"/>
			<point x="242" y="-196" type="curve" smooth="yes"/>
			<point x="404" y="-77"/>
			<point x="483" y="165"/>
			<point x="483" y="335" type="curve" smooth="yes"/>
			<point x="483" y="419"/>
			<point x="458" y="461"/>
			<point x="395" y="461" type="curve" smooth="yes"/>
			<point x="331" y="461"/>
			<point x="261" y="407"/>
			<point x="199" y="320" type="curve"/>
			<point x="192" y="320" type="line"/>
			<point x="206" y="305" type="line"/>
			<point x="250" y="359"/>
			<point x="287" y="377"/>
			<point x="309" y="377" type="curve" smooth="yes"/>
			<point x="332" y="377"/>
			<point x="345" y="362"/>
			<point x="345" y="316" type="curve" smooth="yes"/>
			<point x="345" y="165"/>
			<point x="277" y="-69"/>
			<point x="203" y="-162" type="curve" smooth="yes"/>
			<point x="184" y="-187"/>
			<point x="157" y="-204"/>
			<point x="131" y="-216" type="curve"/>
		</contour>
	</outline>
</glyph>
<glyph name="ieukran" format="2">
	<unicode hex="0454"/>
	<advance width="425"/>
	<outline>
		<contour>
			<point x="107" y="228" type="line"/>
			<point x="315" y="221" type="line"/>
			<point x="325" y="266" type="line"/>
			<point x="116" y="257" type="line"/>
		</contour>
		<component base="es"/>
	</outline>
	<anchor name="aboveLC" x="292" y="478"/>
</glyph>
<glyph name="lje" format="2">
	<unicode hex="0459"/>
	<advance width="731"/>
	<outline>
		<contour>
			<point x="64" y="-15" type="curve" smooth="yes"/>
			<point x="97" y="-15"/>
			<point x="125" y="0"/>
			<point x="143" y="43" type="curve" smooth="yes"/>
			<point x="168" y="105"/>
			<point x="197" y="191"/>
			<point x="221" y="262" type="curve" smooth="yes"/>
			<point x="261" y="379"/>
			<point x="302" y="392"/>
			<point x="375" y="392" type="curve" smooth="yes"/>
			<point x="391" y="392"/>
			<point x="406" y="389"/>
			<point x="422" y="385" type="curve"/>
			<point x="371" y="437" type="line"/>
			<point x="320" y="192"/>
			<point x="308" y="140"/>
			<point x="308" y="107" type="curve" smooth="yes"/>
			<point x="308" y="36"/>
			<point x="354" y="-15"/>
			<point x="466" y="-15" type="curve" smooth="yes"/>
			<point x="600" y="-15"/>
			<point x="700" y="82"/>
			<point x="700" y="198" type="curve" smooth="yes"/>
			<point x="700" y="262"/>
			<point x="666" y="310"/>
			<point x="591" y="310" type="curve" smooth="yes"/>
			<point x="521" y="310"/>
			<point x="473" y="265"/>
			<point x="429" y="212" type="curve"/>
			<point x="423" y="212" type="line"/>
			<point x="438" y="201" type="line"/>
			<point x="469" y="229"/>
			<point x="499" y="247"/>
			<point x="531" y="247" type="curve" smooth="yes"/>
			<point x="557" y="247"/>
			<point x="577" y="232"/>
			<point x="577" y="187" type="curve" smooth="yes"/>
			<point x="577" y="95"/>
			<point x="532" y="12"/>
			<point x="482" y="12" type="curve" smooth="yes"/>
			<point x="446" y="12"/>
			<point x="430" y="36"/>
			<point x="430" y="91" type="curve" smooth="yes"/>
			<point x="430" y="132"/>
			<point x="444" y="186"/>
			<point x="453" y="227" type="curve"/>
			<point x="452" y="230" type="line"/>
			<point x="499" y="455" type="line"/>
			<point x="471" y="466"/>
			<point x="438" y="473"/>
			<point x="396" y="473" type="curve" smooth="yes"/>
			<point x="285" y="473"/>
			<point x="237" y="384"/>
			<point x="197" y="271" type="curve" smooth="yes"/>
			<point x="169" y="191"/>
			<point x="148" y="127"/>
			<point x="121" y="62" type="curve"/>
			<point x="135" y="66" type="line"/>
			<point x="146" y="68" type="line"/>
			<point x="129" y="83" type="line" smooth="yes"/>
			<point x="111" y="98"/>
			<point x="96" y="110"/>
			<point x="67" y="110" type="curve" smooth="yes"/>
			<point x="35" y="110"/>
			<point x="3" y="90"/>
			<point x="-6" y="49" type="curve"/>
			<point x="-2" y="3"/>
			<point x="31" y="-15"/>
		</contour>
	</outline>
</glyph>
<glyph name="fita" format="2">
	<unicode hex="0473"/>
	<advance width="485"/>
	<outline>
		<contour>
			<point x="88" y="217" type="line"/>
			<point x="406" y="217" type="line"/>
			<point x="406" y="244" type="line"/>
			<point x="88" y="244" type="line"/>
		</contour>
		<contour>
			<point x="201" y="-15" type="curve" smooth="yes"/>
			<point x="369" y="-15"/>
			<point x="464" y="137"/>
			<point x="464" y="292" type="curve" smooth="yes"/>
			<point x="464" y="416"/>
			<point x="379" y="473"/>
			<point x="284" y="473" type="curve" smooth="yes"/>
			<point x="117" y="473"/>
			<point x="21" y="321"/>
			<point x="21" y="166" type="curve" smooth="yes"/>
			<point x="21" y="42"/>
			<point x="106" y="-15"/>
		</contour>
		<contour>
			<point x="201" y="11" type="curve" smooth="yes"/>
			<point x="167" y="11"/>
			<point x="143" y="36"/>
			<point x="143" y="107" type="curve" smooth="yes"/>
			<point x="143" y="260"/>
			<point x="209" y="447"/>
			<point x="284" y="447" type="curve" smooth="yes"/>
			<point x="318" y="447"/>
			<point x="342" y="422"/>
			<point x="342" y="351" type="curve" smooth="yes"/>
			<point x="342" y="198"/>
			<point x="276" y="11"/>
		</contour>
	</outline>
	<anchor name="aboveLC" x="290" y="478"/>
</glyph>
<glyph name="Izhitsa" format="2">
	<unicode hex="0474"/>
	<advance width="670"/>
	<outline>
		<contour>
			<point x="229" y="-2" type="line"/>
			<point x="291" y="-2" type="line"/>
			<point x="507" y="451" type="line" smooth="yes"/>
			<point x="551" y="543"/>
			<point x="579" y="593"/>
			<point x="610" y="623" type="curve" smooth="yes"/>
			<point x="637" y="647" type="line"/>
			<point x="581" y="605" type="line"/>
			<point x="593" y="588" type="line" smooth="yes"/>
			<point x="611" y="562"/>
			<point x="633" y="550"/>
			<point x="659" y="550" type="curve" smooth="yes"/>
			<point x="695" y="550"/>
			<point x="725" y="570"/>
			<point x="734" y="604" type="curve"/>
			<point x="734" y="643"/>
			<point x="704" y="673"/>
			<point x="658" y="673" type="curve" smooth="yes"/>
			<point x="576" y="673"/>
			<point x="549" y="606"/>
			<point x="484" y="465" type="curve" smooth="yes"/>
			<point x="335" y="140" type="line"/>
			<point x="330" y="130" type="line"/>
			<point x="340" y="130" type="line"/>
			<point x="279" y="657" type="line"/>
			<point x="142" y="657" type="line"/>
		</contour>
		<contour>
			<point x="86" y="635" type="line"/>
			<point x="168" y="621" type="line"/>
			<point x="244" y="621" type="line"/>
			<point x="356" y="635" type="line"/>
			<point x="361" y="657" type="line"/>
			<point x="90" y="657" type="line"/>
		</contour>
	</outline>
	<anchor name="aboveUC" x="443" y="677"/>
</glyph>
<glyph name="Gheup" format="2">
	<unicode hex="0490"/>
	<advance width="485"/>
	<outline>
		<contour>
			<point x="220" y="630" type="line"/>
			<point x="537" y="630" type="line"/>
			<point x="572" y="807" type="line"/>
			<point x="550" y="807" type="line"/>
			<point x="452" y="642" type="line"/>
			<point x="497" y="657" type="line"/>
			<point x="225" y="657" type="line"/>
		</contour>
		<contour>
			<point x="-7" y="0" type="line"/>
			<point x="266" y="0" type="line"/>
			<point x="271" y="22" type="line"/>
			<point x="163" y="37" type="line"/>
			<point x="101" y="37" type="line"/>
			<point x="-2" y="22" type="line"/>
		</contour>
		<contour>
			<point x="56" y="0" type="line"/>
			<point x="194" y="0" type="line"/>
			<point x="210" y="102"/>
			<point x="226" y="207"/>
			<point x="246" y="311" type="curve" smooth="yes"/>
			<point x="312" y="657" type="line"/>
			<point x="174" y="657" type="line"/>
			<point x="159" y="555"/>
			<point x="142" y="450"/>
			<point x="123" y="346" type="curve" smooth="yes"/>
		</contour>
		<contour>
			<point x="108" y="635" type="line"/>
			<point x="207" y="621" type="line"/>
			<point x="269" y="621" type="line"/>
			<point x="270" y="657" type="line"/>
			<point x="113" y="657" type="line"/>
		</contour>
	</outline>
</glyph>
<glyph name="zhedescender" format="2">
	<unicode hex="0497"/>
	<advance width="844"/>
	<outline>
		<contour>
			<point x="588" y="-233" type="line"/>
			<point x="673" y="-226"/>
			<point x="723" y="-189"/>
			<point x="723" y="-119" type="curve" smooth="yes"/>
			<point x="724" y="-87" type="line" smooth="yes"/>
			<point x="725" y="-13"/>
			<point x="778" y="34"/>
			<point x="803" y="122" type="curve"/>
			<point x="786" y="122" type="line"/>
			<point x="715" y="21" type="line"/>
			<point x="726" y="2" type="line"/>
			<point x="671" y="-42"/>
			<point x="652" y="-62"/>
			<point x="642" y="-105" type="curve" smooth="yes"/>
			<point x="636" y="-137" type="line" smooth="yes"/>
			<point x="625" y="-182"/>
			<point x="610" y="-203"/>
			<point x="582" y="-214" type="curve"/>
		</contour>
		<component base="zhe"/>
	</outline>
</glyph>
<glyph name="endescender" format="2">
	<unicode hex="04A3"/>
	<advance width="545"/>
	<outline>
		<contour>
			<point x="319" y="-233" type="line"/>
			<point x="403" y="-226"/>
			<point x="453" y="-189"/>
			<point x="454" y="-119" type="curve" smooth="yes"/>
			<point x="455" y="-87" type="line" smooth="yes"/>
			<point x="456" y="-13"/>
			<point x="490" y="34"/>
			<point x="528" y="104" type="curve"/>
			<point x="507" y="104" type="line"/>
			<point x="452" y="28" type="line"/>
			<point x="462" y="13" type="line"/>
			<point x="405" y="-34"/>
			<point x="383" y="-62"/>
			<point x="373" y="-105" type="curve" smooth="yes"/>
			<point x="366" y="-137" type="line" smooth="yes"/>
			<point x="356" y="-182"/>
			<point x="340" y="-203"/>
			<point x="313" y="-214" type="curve"/>
		</contour>
		<component base="en"/>
	</outline>
</glyph>
<glyph name="Hadescender" format="2">
	<unicode hex="04B2"/>
	<advance width="593"/>
	<outline>
		<contour>
			<point x="457" y="0" type="line"/>
			<point x="526" y="0" type="line"/>
			<point x="494" y="18" type="line"/>
			<point x="523" y="-175" type="line"/>
			<point x="544" y="-175" type="line"/>
			<point x="573" y="20" type="line"/>
			<point x="461" y="39" type="line"/>
		</contour>
		<component base="Ha"/>
	</outline>
</glyph>
<glyph name="a.sups" format="2">
	<unicode hex="1D43"/>
	<advance width="373"/>
	<outline>
		<contour>
			<point x="169" y="408" type="curve" smooth="yes"/>
			<point x="226" y="408"/>
			<point x="267" y="461"/>
			<point x="289" y="497" type="curve"/>
			<point x="293" y="497" type="line"/>
			<point x="294" y="517" type="line"/>
			<point x="263" y="475"/>
			<point x="237" y="463"/>
			<point x="220" y="463" type="curve" smooth="yes"/>
			<point x="199" y="463"/>
			<point x="193" y="480"/>
			<point x="193" y="505" type="curve" smooth="yes"/>
			<point x="193" y="568"/>
			<point x="228" y="684"/>
			<point x="291" y="684" type="curve" smooth="yes"/>
			<point x="308" y="684"/>
			<point x="323" y="670"/>
			<point x="337" y="654" type="curve"/>
			<point x="399" y="680" type="line"/>
			<point x="380" y="708"/>
			<point x="343" y="723"/>
			<point x="306" y="723" type="curve" smooth="yes"/>
			<point x="208" y="723"/>
			<point x="93" y="588"/>
			<point x="93" y="490" type="curve" smooth="yes"/>
			<point x="93" y="432"/>
			<point x="132" y="408"/>
		</contour>
		<contour>
			<point x="328" y="408" type="curve" smooth="yes"/>
			<point x="378" y="408"/>
			<point x="416" y="448"/>
			<point x="439" y="487" type="curve"/>
			<point x="426" y="495" type="line"/>
			<point x="408" y="471"/>
			<point x="393" y="463"/>
			<point x="384" y="463" type="curve" smooth="yes"/>
			<point x="379" y="463"/>
			<point x="374" y="465"/>
			<point x="374" y="471" type="curve" smooth="yes"/>
			<point x="374" y="478"/>
			<point x="377" y="487"/>
			<point x="378" y="495" type="curve" smooth="yes"/>
			<point x="424" y="716" type="line"/>
			<point x="414" y="724" type="line"/>
			<point x="323" y="681" type="line"/>
			<point x="317" y="678" type="line"/>
			<point x="278" y="490" type="line"/>
			<point x="277" y="488" type="line" smooth="yes"/>
			<point x="275" y="475"/>
			<point x="273" y="466"/>
			<point x="273" y="458" type="curve" smooth="yes"/>
			<point x="273" y="428"/>
			<point x="297" y="408"/>
		</contour>
	</outline>
</glyph>
<glyph name="b.sups" format="2">
	<unicode hex="1D47"/>
	<advance width="351"/>
	<outline>
		<contour>
			<point x="197" y="408" type="curve" smooth="yes"/>
			<point x="317" y="408"/>
			<point x="416" y="544"/>
			<point x="416" y="642" type="curve" smooth="yes"/>
			<point x="416" y="702"/>
			<point x="379" y="723"/>
			<point x="342" y="723" type="curve" smooth="yes"/>
			<point x="290" y="723"/>
			<point x="250" y="687"/>
			<point x="217" y="635" type="curve"/>
			<point x="213" y="635" type="line"/>
			<point x="213" y="615" type="line"/>
			<point x="243" y="656"/>
			<point x="271" y="669"/>
			<point x="288" y="669" type="curve" smooth="yes"/>
			<point x="309" y="669"/>
			<point x="316" y="652"/>
			<point x="316" y="626" type="curve" smooth="yes"/>
			<point x="316" y="563"/>
			<point x="285" y="448"/>
			<point x="227" y="448" type="curve" smooth="yes"/>
			<point x="208" y="448"/>
			<point x="197" y="458"/>
			<point x="197" y="476" type="curve" smooth="yes"/>
			<point x="197" y="490"/>
			<point x="204" y="524"/>
			<point x="210" y="554" type="curve" smooth="yes"/>
			<point x="229" y="642" type="line"/>
			<point x="230" y="648" type="line"/>
			<point x="276" y="874" type="line"/>
			<point x="265" y="882" type="line"/>
			<point x="127" y="846" type="line"/>
			<point x="125" y="835" type="line"/>
			<point x="183" y="821" type="line"/>
			<point x="171" y="834" type="line"/>
			<point x="119" y="590" type="line" smooth="yes"/>
			<point x="111" y="559"/>
			<point x="103" y="517"/>
			<point x="103" y="485" type="curve" smooth="yes"/>
			<point x="103" y="414"/>
			<point x="171" y="408"/>
		</contour>
	</outline>
</glyph>
<glyph name="d.sups" format="2">
	<unicode hex="1D48"/>
	<advance width="373"/>
	<outline>
		<contour>
			<point x="169" y="408" type="curve" smooth="yes"/>
			<point x="226" y="408"/>
			<point x="267" y="461"/>
			<point x="289" y="497" type="curve"/>
			<point x="293" y="497" type="line"/>
			<point x="294" y="516" type="line"/>
			<point x="263" y="475"/>
			<point x="237" y="463"/>
			<point x="220" y="463" type="curve" smooth="yes"/>
			<point x="199" y="463"/>
			<point x="193" y="480"/>
			<point x="193" y="505" type="curve" smooth="yes"/>
			<point x="193" y="569"/>
			<point x="227" y="684"/>
			<point x="291" y="684" type="curve" smooth="yes"/>
			<point x="308" y="684"/>
			<point x="323" y="670"/>
			<point x="337" y="654" type="curve"/>
			<point x="399" y="680" type="line"/>
			<point x="380" y="708"/>
			<point x="343" y="723"/>
			<point x="306" y="723" type="curve" smooth="yes"/>
			<point x="208" y="723"/>
			<point x="93" y="588"/>
			<point x="93" y="490" type="curve" smooth="yes"/>
			<point x="93" y="432"/>
			<point x="132" y="408"/>
		</contour>
		<contour>
			<point x="379" y="501" type="curve" smooth="yes"/>
			<point x="456" y="874" type="line"/>
			<point x="445" y="882" type="line"/>
			<point x="307" y="847" type="line"/>
			<point x="305" y="836" type="line"/>
			<point x="363" y="821" type="line"/>
			<point x="349" y="830" type="line"/>
			<point x="323" y="695" type="line"/>
			<point x="318" y="687" type="line"/>
			<point x="277" y="493" type="line"/>
			<point x="276" y="487" type="line" smooth="yes"/>
			<point x="273" y="475"/>
			<point x="271" y="459"/>
			<point x="271" y="450" type="curve" smooth="yes"/>
			<point x="271" y="424"/>
			<point x="292" y="408"/>
			<point x="323" y="408" type="curve" smooth="yes"/>
			<point x="377" y="408"/>
			<point x="416" y="448"/>
			<point x="439" y="487" type="curve"/>
			<point x="426" y="495" type="line"/>
			<point x="408" y="471"/>
			<point x="393" y="463"/>
			<point x="384" y="463" type="curve" smooth="yes"/>
			<point x="370" y="463"/>
			<point x="373" y="474"/>
		</contour>
	</outline>
</glyph>
<glyph name="e.sups" format="2">
	<unicode hex="1D49"/>
	<advance width="297"/>
	<outline>
		<contour>
			<point x="204" y="408" type="curve" smooth="yes"/>
			<point x="283" y="408"/>
			<point x="321" y="444"/>
			<point x="350" y="505" type="curve"/>
			<point x="338" y="511" type="line"/>
			<point x="318" y="486"/>
			<point x="286" y="472"/>
			<point x="257" y="472" type="curve" smooth="yes"/>
			<point x="219" y="472"/>
			<point x="184" y="497"/>
			<point x="184" y="546" type="curve" smooth="yes"/>
			<point x="184" y="640"/>
			<point x="234" y="704"/>
			<point x="264" y="704" type="curve" smooth="yes"/>
			<point x="277" y="704"/>
			<point x="288" y="697"/>
			<point x="288" y="675" type="curve" smooth="yes"/>
			<point x="288" y="623"/>
			<point x="261" y="581"/>
			<point x="139" y="551" type="curve"/>
			<point x="140" y="539" type="line"/>
			<point x="291" y="568"/>
			<point x="369" y="604"/>
			<point x="369" y="665" type="curve" smooth="yes"/>
			<point x="369" y="700"/>
			<point x="334" y="723"/>
			<point x="281" y="723" type="curve" smooth="yes"/>
			<point x="165" y="723"/>
			<point x="88" y="622"/>
			<point x="88" y="524" type="curve" smooth="yes"/>
			<point x="88" y="449"/>
			<point x="140" y="408"/>
		</contour>
	</outline>
</glyph>
<glyph name="g.sups" format="2">
	<unicode hex="1D4D"/>
	<advance width="363"/>
	<outline>
		<contour>
			<point x="91" y="449" type="curve" smooth="yes"/>
			<point x="91" y="429"/>
			<point x="106" y="411"/>
			<point x="134" y="400" type="curve"/>
			<point x="134" y="396" type="line"/>
			<point x="140" y="396" type="line"/>
			<point x="237" y="387" type="line" smooth="yes"/>
			<point x="283" y="382"/>
			<point x="299" y="372"/>
			<point x="299" y="351" type="curve" smooth="yes"/>
			<point x="299" y="317"/>
			<point x="264" y="286"/>
			<point x="197" y="286" type="curve" smooth="yes"/>
			<point x="150" y="286"/>
			<point x="115" y="307"/>
			<point x="115" y="343" type="curve" smooth="yes"/>
			<point x="115" y="369"/>
			<point x="136" y="394"/>
			<point x="152" y="406" type="curve"/>
			<point x="145" y="409" type="line"/>
			<point x="85" y="391"/>
			<point x="46" y="363"/>
			<point x="46" y="325" type="curve" smooth="yes"/>
			<point x="46" y="289"/>
			<point x="82" y="263"/>
			<point x="160" y="263" type="curve" smooth="yes"/>
			<point x="285" y="263"/>
			<point x="379" y="326"/>
			<point x="379" y="392" type="curve" smooth="yes"/>
			<point x="379" y="437"/>
			<point x="347" y="459"/>
			<point x="274" y="467" type="curve" smooth="yes"/>
			<point x="189" y="474" type="line" smooth="yes"/>
			<point x="167" y="476"/>
			<point x="157" y="483"/>
			<point x="157" y="494" type="curve" smooth="yes"/>
			<point x="157" y="502"/>
			<point x="162" y="512"/>
			<point x="182" y="531" type="curve"/>
			<point x="179" y="541" type="line"/>
			<point x="179" y="536" type="line"/>
			<point x="128" y="511"/>
			<point x="91" y="491"/>
		</contour>
		<contour>
			<point x="216" y="530" type="curve" smooth="yes"/>
			<point x="202" y="530"/>
			<point x="191" y="541"/>
			<point x="191" y="573" type="curve" smooth="yes"/>
			<point x="191" y="637"/>
			<point x="214" y="707"/>
			<point x="249" y="707" type="curve" smooth="yes"/>
			<point x="264" y="707"/>
			<point x="275" y="696"/>
			<point x="275" y="663" type="curve" smooth="yes"/>
			<point x="275" y="599"/>
			<point x="251" y="530"/>
		</contour>
		<contour>
			<point x="104" y="593" type="curve" smooth="yes"/>
			<point x="104" y="536"/>
			<point x="161" y="513"/>
			<point x="217" y="513" type="curve" smooth="yes"/>
			<point x="287" y="513"/>
			<point x="338" y="547"/>
			<point x="355" y="597" type="curve" smooth="yes"/>
			<point x="364" y="625"/>
			<point x="374" y="660"/>
			<point x="378" y="672" type="curve"/>
			<point x="366" y="659" type="line"/>
			<point x="419" y="667"/>
			<point x="448" y="678"/>
			<point x="448" y="712" type="curve" smooth="yes"/>
			<point x="448" y="720"/>
			<point x="446" y="725"/>
			<point x="443" y="729" type="curve"/>
			<point x="435" y="733"/>
			<point x="429" y="734"/>
			<point x="418" y="734" type="curve" smooth="yes"/>
			<point x="388" y="734"/>
			<point x="367" y="714"/>
			<point x="356" y="649" type="curve"/>
			<point x="358" y="650" type="line"/>
			<point x="356" y="702"/>
			<point x="302" y="724"/>
			<point x="249" y="724" type="curve" smooth="yes"/>
			<point x="159" y="724"/>
			<point x="104" y="665"/>
		</contour>
	</outline>
</glyph>
<glyph name="k.sups" format="2">
	<unicode hex="1D4F"/>
	<advance width="349"/>
	<outline>
		<contour>
			<point x="90" y="421" type="line"/>
			<point x="100" y="413" type="line"/>
			<point x="188" y="418" type="line"/>
			<point x="282" y="874" type="line"/>
			<point x="272" y="882" type="line"/>
			<point x="131" y="847" type="line"/>
			<point x="129" y="836" type="line"/>
			<point x="187" y="821" type="line"/>
			<point x="175" y="830" type="line"/>
		</contour>
		<contour>
			<point x="413" y="419" type="curve"/>
			<point x="415" y="431" type="line"/>
			<point x="401" y="433" type="line" smooth="yes"/>
			<point x="385" y="436"/>
			<point x="377" y="453"/>
			<point x="368" y="473" type="curve" smooth="yes"/>
			<point x="348" y="518" type="line" smooth="yes"/>
			<point x="329" y="558"/>
			<point x="299" y="578"/>
			<point x="246" y="582" type="curve" smooth="yes"/>
			<point x="219" y="584" type="line"/>
			<point x="217" y="579" type="line"/>
			<point x="347" y="618" type="line" smooth="yes"/>
			<point x="395" y="632"/>
			<point x="418" y="643"/>
			<point x="418" y="679" type="curve" smooth="yes"/>
			<point x="418" y="701"/>
			<point x="395" y="719"/>
			<point x="374" y="721" type="curve"/>
			<point x="209" y="580" type="line"/>
			<point x="209" y="577" type="line"/>
			<point x="213" y="575" type="line" smooth="yes"/>
			<point x="230" y="569"/>
			<point x="233" y="558"/>
			<point x="244" y="527" type="curve" smooth="yes"/>
			<point x="264" y="468" type="line" smooth="yes"/>
			<point x="280" y="419"/>
			<point x="308" y="409"/>
			<point x="352" y="409" type="curve" smooth="yes"/>
			<point x="378" y="409"/>
			<point x="395" y="413"/>
		</contour>
	</outline>
</glyph>
